<mxfile host="app.diagrams.net" agent="Mozilla/5.0 (Windows NT 10.0; Win64; x64) AppleWebKit/537.36 (KHTML, like Gecko) Chrome/131.0.0.0 Safari/537.36" version="25.0.3">
  <diagram name="Page-1" id="1D7bmDgqNVoBB4WNUvNR">
    <mxGraphModel dx="1985" dy="3335" grid="1" gridSize="10" guides="1" tooltips="1" connect="1" arrows="1" fold="1" page="1" pageScale="1" pageWidth="850" pageHeight="1100" math="0" shadow="0">
      <root>
        <mxCell id="0" />
        <mxCell id="1" parent="0" />
        <mxCell id="AT_uzg10whJC4qiR5lYj-13" value="" style="shape=image;verticalLabelPosition=bottom;labelBackgroundColor=default;verticalAlign=top;aspect=fixed;imageAspect=0;image=data:image/png,iVBORw0KGgoAAAANSUhEUgAAA8oAAAHfCAYAAACI6yE1AAAAAXNSR0IArs4c6QAAAARnQU1BAACxjwv8YQUAAAAJcEhZcwAADsMAAA7DAcdvqGQAAISvSURBVHhe7d0LWJRl+sfx21OapaaVEYpCaNjBDpuZRVFgBVTawUOWFlpmLdZf29KsIDNo17RarY0t1zJb3LbMSrdCLSE1ysjsYKWkBkohZnmqzPLQ/72feWYYEBCUwxy+n+t6L+d95p13hmEG5zf3c2j0h0MAAAAAAIDR2P4LAAAAAAAcBGUAAAAAALwQlAEAAAAA8EJQBgAAAADAC0EZAAAAAAAvBGUAAAAAALwQlAEAAAAA8EJQBgAAAADAC0EZAAAAAAAvBGUAAAAAALwQlAEAAAAA8EJQBgAAAADAC0EZAAAAAAAvBGUAAAAAALwQlAEAAAAA8EJQBgAAAADAC0EZAAAAAAAvBGUAAAAAALwQlAEAAAAA8EJQBgAAAADAC0EZAAAAAAAvBGUAAAAAALwQlAEAAAAA8EJQBgAAAADAC0EZAAAAAAAvBGUAAAAAALwQlAEAAAAA8EJQBgAAAADAC0EZAAAAAAAvBGUAAAAAALwQlAEAAAAA8EJQBgAAAADAC0EZAAAAAAAvBGUAAAAAALwQlAEAAAAA8EJQBgAAAADAC0EZAAAAAAAvBGUAAAAAALwQlAEAAAAA8EJQBgAAAADAC0EZAAAAAAAvBGUAAAAAALwQlAEAAAAA8EJQBgAAAADAC0EZAAAAAAAvBGUAAAAAALwQlAEAAAAA8EJQBgAAAADAC0EZAAAAAAAvBGUAAAAAALwQlAEAAAAA8EJQBgAAAADAC0EZAAAAAAAvBGUAAAAAALwQlAEAAAAA8NLoD4e9DAAAgCA1aNAgewmovj//+c9y4YUX2j0gcBCUAQAAID179pQ+fQbYPeDA5s59SR577DGCMgISQRkAAAAmKN9++z1y+eX9bAtQuW3btsi1115KUEbAYowyAAAAAABeCMoAAAAAAHghKAMAAAAA4IWgDAAAAACAF4IyAAAAAABeCMoAAAAAAHghKAMAAAAA4IWgDAAAAACAF4IyAAAAAABeCMoAAAAAAHghKAMAAAAA4IWgDAAAAACAF4IyAAAAAABeCMoAAACoO8tSJD6+h2cbObvYXtHwSmYPrvzxFGfKSK/HHT8p117hul18cqaUOJfzJvWQictc7eZn9RxXLHOSa+PndZ3H+zmMj0+RvDLn18uDZY7vPLWA3yMoAwAABJmYmBgZO3asLFmyRPbu3Wtb61DvqbJgwXJnmydxOX1Lg6WvixwtM+3jHlE4yvO4QwbMkgUZQyTEtVuJUOmXsVyeGhBq9w9FlIyYoY/DvaVLz1o9P4DyCMoAAABBpnnz5pKdnS3p6ely7733msBcP0IlOjZKioo+KVsltVVYU6ktV7nViqnr30yZaI8fOTu39PblK73uc9qKr6vKm+K5rae9OFPSpufL2ul9nfbqVGOjpGsn5x93hdzrfiuilWY9zhWuc537dx6DbfO+vzKP2XP8gZU9f3l6fzU/J4BSjf5w2MsAAACoZ1rR3bJli2zbtk22b98uO3bskJ9//ll++eUX2blzp+zatUt+++032bNnjzlWP7o1atRImjRpIpGRkbJhwwZ7JjG3O/LII+2emNs0bdrU7ok55xFHHCGzZ8+W33//3baKtGnTxtzvHXeMk8sv72dba4kGyyWJsmBstLOjAW6UyITlMq6X62pXt+ExIimzpF+oXp8lcaZiWtoenTtYkqZHSJq2a5foYc4xM9zHZ0hXvbzB+35cATRNJstTYRkSP15ctzXn7CtrbnTdv+eYiqqy5n6myFqzoxVdvT+zY26XVJBs7ksDa3aM/XnK/Kze91X25/bcfkiBcx+rJck8Nq+fpczDcZ1n2jq7KwkV/Cylz1W/UO/LerzrOR3q3KbqCnjNbNu2Ra699lK58MILpWPHjra1rMaNG5vX32GHHWa+nGnRooUcfvjh0rJlS7Ppa1E3fc0ed9xx9laAb6CiDAAAUA9+/fVXWbNmjSxdulTmzJkjTz/9tKnojhkzRp555hlZuHCh5OfnmzDbunVr6dKli/Tq1UsSEhJk4MCBkpSUJLfccovceuut5l/d79mzp/Tv39+zxcfHl9nXEOO9f+mll5p/Nbi4dejQwXTF1vBdZxaNstXNUVI0fF5pqDRtGgLzZY3J+9ES13u+ZGsFtDhbsiVRot2hsXeiEw7dIiTMtEdI10jXbfOWzPe6nx5OsM6XtQUF5miJ7CZaDNaKdli4uVA9nq7Xk0XSD3W8sa1IO0LCIlwXqs2767WG5Cro8+Y8n9OGuSvKoyRHCmTHz/b6WnbeeeeVeY25t9tuu02GDh0qAwYMMK+7Hj16SEREhAnF+gVQgfO7+eCDD+TVV1+Vf/zjH3L33XdLWlqaPPXUU/LKK6/I+++/L9999529F6D+EZQBAADqwObNm+XDDz+Ul156SSZNmiQPPvigE3IWyPfffy/t27eX2NhYSU5Olscff1xSUlJk5MiRMnjwYOnTp49cdNFFcvbZZ8spp5xiqsZasdOK2zHHHCNHH320+Vf3w8LCymwanKuzr5U+DchXXHGFTJgwQcaPH28fdR3xjFG2Y2q1Wju+wIa/eTIi0h7n6DlktBQtyZWS3CyR2LgaVUG7OCG8dByvs9nq8qELlX43JsjanGxXt+3aEjpEknrPl1QbaIuGTy5XTT5YWnX2eh4WzJITSzsa1Cp9LXq/xtybVo61p4K+1jt37iwnn3yyeU3r615f49dff7350ke/KNKA/Oijj5r3gIZqfW1rT4nMzEx54IEHzL+ffPKJ6SEB1BeCMgAAQC3QSvCKFStMMNZK8T//+U9TQdaQqwH4kUcekdtvv1369esnF1xwgURFRUm7du3srevX/fffL3PnzjXh/YwzzrCt9SzSVotNBdTVZITGSVxhljxfECFJNZioqmeME2SnZ0ie3a8uT9X5AEzFOjyiwuBeVORVaS4sqEGYLpaiwtJQe2gTc9mqvD5/kfNl5iHPtl3/9P3QtWtX8/4YNGiQ3HPPPXLnnXeaL4s+/vhj87rV99c333xjbwHUHYIyAADAQSopKTGTYml30Yceekg+/fRTU6nVrtFaCRsyZIhER0ebNl/Su3dve6mBaCU1fIokaSU1XSRpeJTkLHFPjqUTfhVIjnh3ta6GXukyc3iBrc7qpksoVS1kQLLE2u7aFXarXmcfo7OlFo6WmRVUqF0B3c7k3StRYvU2B5joqyx3RVm3g13iyTVJWs54vb3Ohj1VwswkZa7zHvoSVQ2nbdu2cu6558rw4cNNUNYK9csvv2y6a3/22Wf2KKD2MZkXAABADRQWFsqXX34pX331lZloq1u3bnLqqafKSSedZI/wT9ot+/bb76n9ybwOQpkJsgKaTryVIWEZrnHHVU4u5mPck3k99thjZix8fdMvpXS8/759+8wXP/oeBGoTQRkAAOAA5s+fb7pWazjWmXt17LCOuQwPr8nMUL7NN4Kya3boHB3TXGvji31ZseRNGiOpi/Jduzp52AHXZ/YNDR2U3TQwv/POO6bynJiYKKGhvv8lA/wDQRkAAKACOgu1Lpm0cuVKM4GWjik+/fTTJSTEH2JMzflSRRm+z1eCstvixYvlrbfeMpOF6UzxwKFijDIAAID19ddfm6WbdJIrrVTp5EI6Adf//d//iS69FKghGfB3GtbvvfdeM6v81KlTy6wvDhwMKsoAgDoxa9YsmTFjht0DfJt+HPrtt9/MWsJNmjSRxo11q3hdYZ2kS9cdDjRUlFETvlZR9rZs2TLzhVffvn3NDNrAwSAoAwDqhAblZ555RgYNusm2AP7vuef+YdY9Jigj2PlyUFY6I70uJaW9QK699lrbClQfQRkAUCfcQfm115bYFsC/bd26RQYNupSgDDh8PSi7aVj+4YcfzFJtbdq0sa3AgTFGGQAAAEBA0mryiSeeaNY6/+6772wrcGAEZQAAAAAB65JLLjGzYf/zn/+UdevW2VagagRlAAAAAAHt3HPPlX79+pkhQTq7PXAgBGUAAAAAAe/MM8+UG264QaZPny5r1qyxrUDFCMoAAAAAgkL37t1l8ODB8txzz8n69ettK7A/gjIAAACAoHH66aebbtjPP/+8fP/997YVKIvloQAAdYLloRBogmV5qO7d/2RbgKrdcssAn18eqipLliyRjz76SEaOHCktWrSwrYALQRkAUCcIygg0wRCU9+3bZ/eA6vHnoKzeeOMNKSkpkeHDh9sWwIWgDACoEwRlBJpAD8qffvqpvQTUzBlnnGEv+acXXnhBWrVqJVdffbVtAQjKAIA6QlBGoAn0oAwEqz179sjUqVPNElLnnXeebUWwYzIvAAAAAEGradOmMmjQIHn11VelsLDQtiLYEZQBAAAABLUOHTrItddeKy+99JL8/vvvthXBjKAMAAgqeZN6SHy89zZY5hQ7VyxLcS6nSJ7rMJ+QN6ns48mbZB9roNHnflKu3QGAhnH22WdLVFSUvPzyy7YFwYygDAAIOrETlsuCBe5tlvQLdRp7pTuX06Wn6xAfUCxFhfMle5ndNfv5smaD3QUA1LqrrrpKtm/fLu+++65tQbAiKAMAUJwpI7W6nJwpJU4gnZM8WCZOGuypOk90h1VTdS5Xia7qeId3BXvkbFsOdt+f2SqrEhfIGomSoiW20lqcLdnrRIqKXAeXqYybx60qfywVHy9SMrv0WO/jy7S7jzeV30znPmz7pNzS83qds+Kfr7LHlisTx88XWTTKqw0AGs7AgQNlwYIFsnbtWtuCYERQBgAEnZzx5UJc6BB5akKC60ojX4oiJrsqzk57zgs2BJqqs61ET4iQaZnu7sIVH69hM1Wm2tvMk7iCbKfdCYbDVkuS+zwzEiU73StkuhUXSFF4osQVZpnu1yW5WRI2fLSTnwvM1T3H2ts7W1r4FHneEzArfiwVHu8E2rTpEZJm2qdKrBPMu3Zy2p1AnFSQ7Dl+ZmyWpLlD/qIskRR7vBNus2P08jwZIe7HUNXPV9Fji5Zx+tz3dj1P43qZAwGgwRx77LEmLGsX7F27dtlWBBuCMgAg6JR2vbbdrisQFmav6NRNurguObQqakO2VkELCzwBd//jiyU3J19iY6LNnpPGpd/YIRKyLEtyZL6k2qpq/LApsnbdatmvR/WG1SIRcRIdK6JF5A0FERI3IELC3PfpVbVNXVRaaVYVPvYqji8vb0lphVe3pOn5stYGdIlMlGjPc2aDtfOzhYXbcx7g56v4eQUA33LmmWfKqaeeKrNnz7YtCDYEZQAAqilvUl+ZFm4rxFoFPViRo2WmCerubf+x0SVFBSZUhkR3kzW5mZItic4xEdJVsiS3WKu2UyTMBv603vZGlark+NAhktTbHWpHSdHwyZ4vDroMn+f1+JxtrDvwV0M1fj4A8HV9+/aVHTt2yOLFi20LgglBGQCAGnBXiE3VtUqhEh0bVaZymzc7U0p6JUrsOu+u0hXRarS4qrWhcdI1Z4qIuV+t3Lon9EqQONNNOVeyF+m/B1LR8TpBWILter1cnhrgSsk9YxJk7fSMg5sBvFo/XwW8qvMA4Cv69+8vb775JusrByGCMgAA1dRzyGgpsuObs2OmOoFQq7v2ygqEDJglSQV9PV2YZ0qchOiY3Bml59Ft/wmsCmTNughx9VLWwJ1guziLdIrQ8B0hQ4cX2EpwlsRNcIJtjo5/rkx0Fcd7dZN2j9nulS4zPcfrVpNls6rz85XTK9mMcU7S41kmCoAPOe6442TAgAGmC/Yff/xhWxEMGjm/cH7jAIBaN2vWLHnmmWfktdeW2Bb4Hh1znSFhGa6u0Tr5WJpM9lSWUdbWrVtk0KBL5fHHH5eYmBjbCiAYvPLKKyYoa2hGcKCiDABAEAsLL60cJ+UkSiohGQD2069fP1m/fr189NFHtgWBjqAMADhkixYtktGjR8v7778ve/futa3wfaHSc+ys0km3MoZIiL0GAFCqUaNGJizPmTNHNm/ebFsRyAjKAIBa8d5778mDDz4o9957rwnM+/bts9cAAOD/IiIi5NJLL5VXX33VtiCQMUYZCFJa9du2bZs0bdpUdu/eLXv27DH/ureq9rds2SJt2rSxZ6qe7777Tjp06GD3qu/HH3+Uo48+2u5Vz1dffSUnn3yy3ase7U7VuXNnu3dg3377rXTs2NHuHVhxcbGEhh64S2t1f179PTRr1szu7e/777+X9u3b272yVq1aJSeddJLdq5j3c6i/e32dfP311xIWFiaHH3647Nq1Sxo3biyHHXaYOebjjz+WefPmmcuqXbt20rp1a/M4GKOMQMEYZQDq2WefNf8famhG4CIoAwFCw4wGX922b98uP/30k2f75ZdfZOfOnWb79ddfTcjRt76GrbZt25oQpKFLN+/L5ffdl/X8NQ2vRUVF5j+Vmvrhhx/kmGOOsXvVs3LlSunevbvdq56CggLzTXF1bdiwQTp1stMQV0N1g3V1f94DBeWSkhIJCam4E+2XX34pp5xyit2rmPdz6A7Kq1evNj9zy5YtzWtJ29xBOS8vz3RHc9NZQo888kjZuHEjQRkBg6AMQOlnrcmTJ8uwYcOkS5cuthWBhqAM+BENuFqh000DlW5a3dVNw/BRRx1lNq3k6daqVSuzHXHEEWbTgKPVwBYtWpiQA9QWHaN8zz33mIB85plnSp8+fWTt2rXMeo2AQlAG4KY9qfT/vjFjxpjxywg8BGXAR2klTrsr67+6aYVQq3janVY3rTrqppVd7eZa067QQG3SDwsLFiwwE52cc845po3loRBoCMoAvL388svSpEkT838fAg9BGfABW7dulcLCQjNOVrv0ajddDb86plfHtWoXWt1q2t0ZaEgEZQQagjIAbzo0SbtgX3bZZXL66afbVgQKgjLQALSbtE6MtGbNGlm3bp0ZN6zjY3UyKR0DqmN5mzdvbo8G/BNBufpKZg+WpOn5rp3I0TKzRss05crE+CyJW5AuPW0L6gZBGUB5On/HjBkzZPz48WaIGwIHy0MB9URnPX7nnXfkySeflIceekg++eQTOf744yUpKcns64QQcXFxZlIIQjIQRIozJW16hKSxljEA+J1u3brJBRdcIK+99pptQaAgKAN1SMPx/PnzZdKkSebbRp2B+pJLLpFHHnlEbrrpJvOHtTpLBgEINlolHixziu2u2U+RPOdS3qQeEh+vm+v6vEmjJEfmS6q2Tcp1He6E75HmmNLj3OeYM3uwbXfOtyyl3DEAgJq64oorzESrH374oW1BICAoA7VMw/DixYtlypQp8txzz8nvv/8uAwcOlPvvv1+uvvpq880jAHiEDpGk3q6gO3GZbZNoGTpcJDvXptdlWZLTO1F6OsE2tXC0zDTV51nSL1Sk59ipEisJror02GjnYCcQD1stSe4K9YxEyU7PlBJzovmSLZNNe5re55JEc3mmc1/TMm3IBgDUmH7G06qyrkSCwEBQBmqJjlH597//bbpR6yzViYmJkpKSIn379pXw8HB7FADsr+dYDbXzpOsLPSQ+2RVqQ6ITRXKyzeW8JfMlNsYJwb3SJS18iiS5K8cV0VDtrjDrNmyKrF23WjaYK6MkLrq0F0sXu3Z4SJjzb2GBDdMAgJrSz3oXX3wxXbADCEEZOAQ62+HSpUvNjIdZWVlywgknSHp6ugwaNEiioqLsUQBQHaHSL2OejJAsMYVkrTSH6+VcyV6UIHG9XEeZUB2TVXV3aZ0QzF1RNhsTfQFAXdOgrD0JtWch/B9BGTgI27dvlzfffFMeeOABs6zTVVddJXfeeadER0czEReAQ1Aga9bZi46eMRGSnZklMjy5bNDVynLvfFnjKhM7CqTIHZp7JUrsuinyvKcbNwCgvmgX7Hnz5pl5auDfWB4KqIHNmzfLkiVL5P333zcTcWkwPvbYY+21ALyxPFQ16cRb2j3a7sZOWC7jbPXYNQFXhnSd4RqPLDr51vj5rqt6T7Vjkr2Xl9KxyunSs8Jzlj2XTgo2M2KePDXA2dHzvtCthstSBR+WhwLqlo7vLSkpMRNj/fjjj857bquZ+0WX1fztt99k9+7dotGlUaNG0qxZMzn88MPliCOOkDZt2sjRRx9tPpPpJKm6zKYe01C0t+Hnn38uI0eOtC3wRwRloBr0j3V2drZ8/PHH5sORbkceeaS9FkBFCMq1QANvukgqAdYnEJSB2qO984qKisz27bffyvLly03I1aUz27dvL8ccc4wcddRR0rp1axOGW7RoYcKxBuB9+/aZ0Pzrr7+aEL1t2zbzWU0DtlZyda4YHQ7XtWtXOfnkk6VDhw72XuuPrnai93vppZfaFvgbgjJQBf0D/Pbbb5sqsq5xHBsba769BHBgBOVD46oSi4xwV5PR4AjKwMHRSrH2ynMHY910npeOHTua6q9708pwbdBxwuvWrZP8/Hz56quv5LDDDpM//elP0rNnz3ordGh41+VBhw8fbkI7/A9BGaiEdptZsGCBnHnmmWbtY/1GE0D1EZQRaAjKQPV98803smbNGrNt2LDBzAqtYdgdjrViXF80NGvFWtc51mFzF154Yb3c/0cffSQLFy40S4TC/xCUgXLWrl1rJupq2bKlJCQkmD/mAGqOoIxAQ1AGKqfdnr/++msTjLWSe9xxx5muz+6tceOGn0NYxztrIeTdd9+V888/X+Lj4+t8ElZdOlQr5bpcKPwLQRmwdLyLzlL46aefyuWXXy5nn322vQbAwSAoI9D4a1DWCSiB2rZr1y4zHvi7774zm36O0jG5urVr185s3jQs+8oEqBqYtdKrE2716dNHevToYa+pfTqMT5cR7d+/vxkvDf9BUAYcq1atktdff10iIyPNN346YQSAQ0NQRqDx16A8dOgw+eKLlXYPaBhZWVk+t1KI9iLUIolOIKbLOtXV57+VK1fK//73PxkzZoyZkAz+gaCMoPfGG2+Y2az1D+Rpp51mWwEcKoIyAo0/B+WOHU+QG2641bYA9eebb76W1NTRPhmU3ebOnWvCbL9+/eSkk06yrbXr1VdfNROYDRw40LbA1xGUEbR0nb5XXnnFjBvRP4w6JhlA7SEoI9D4e1C+885U2wLUn7y893w+KCsNynPmzJFzzjlHEhMTbWvt0cilXbB1glidKBa+r+FH1QMNQCvI+kFHK8g33HADIRkAACCIde/eXe6++25TSHn66afNusy1Sdd/vuqqq+S1114zY6Th+wjKCDo6o7VO4HDbbbcxaykAAAAMXWN52LBhZuKxv//972ayr9p04oknSq9evUxYhu8jKCNo6OLzM2bMkE2bNsno0aNZ/B0AAAD76d27t+lxqBO9zp8/37bWjssuu0y2bdsmH3zwgW2BryIoIyhoOH7yySfl6KOPlptuukkOP/xwew0AAABQVlRUlNx5553y7bffyvPPP2+Ww6ot7i7Yq1evti3wRQRlBDxd+P6pp56Snj17stg7AAAAqqVVq1YyfPhwU2iZOnWqFBUV2WsOTadOnczn0qVLl9oW+CKCMgLap59+Kv/85z/NrNYXXHCBbQUAAACqp0+fPnLRRReZsPzJJ5/Y1kPTv39/2bdvn+Tk5NgW+BqWh0LAWrZsmVkjeejQodKlSxfbCqC+uJeH6tv3WtsC+L///ncGy0MBNeAvy0NVx7p16+Qf//iHXH755XLxxRfb1oP3/fffmyWjRo0a5bxHO9pW+AqCMgKSdmV59913zcyF/OEBGoYG5ZdeesnuAb5NKzu//PKLc6mRNGvW1NmaSZMmTVxXlqNLyBCUgeoJpKCsdCKuzMxMad++vQwcONC2Hrz333/fLFt6xx132Bb4CoIyAo4GZJ1J8OabbzZ/xAAAqK7169fLypUrzbIwTZs2NWur6pr7HTp0sEf4H4IyGlKgBWW3//znP7Jjxw4ZMmSIWVbqUMycOdN8Zk1MTLQt8AWMUUZA0XEeH374oYwYMYKQDACosc6dO8sVV1wh9913n0RHR8uePXvMh9hHHnnEDOfZsGGDPRJAMLv++uslPDxcnnjiCTPc71BcffXVprK8du1a2wJfQFBGwFi8eLEJybfccouZnRAAgEOhQVkn8dHQfN5555m2F198Uf7617/K3Llz+VALBLmEhAQJCwuTV155xUwge7Bat25twrIuGQXfQVBGQMjNzZX33nvPTOHfrl072woAQO3QlRO00nzPPfdIUlKSWY//f//7nzz88MMye/Zs+eqrr+yRAILJDTfcILfddpv58iw7O9u21tyf/vQns2zU66+/blvQ0AjK8HvLly+XhQsXyk033STHHHOMbQUAoG7oeOVLL71U7rzzTjPUR//v0fkxxo4dKzNmzDDzZGzZssUeHcCWpUj8pFy7U0v0nPEpkmd3D0bJ7MHOOXrsvyVnSok9puaKZU5yD5m4Xw9bV/vI2cV2/+CVedw1fqy5MvEQnzccPF1dRSfj+vLLL80XZwdLq8pffPGFCd1oeARl+DX9g6TdXXR26+OPP962AgBQP3RyotjYWElOTpYHHnjATP5VUFBgxi1OnDhR5syZY7pk/vTTT/YWdUsrWzoUafv27bbFz/RKlwUL0qWn3T0YIQNmOedY7mzzZERklIyYoZedLWOIhNhjak+o9MtYLk8NCLX7B6k4U9KmR0iaedx19VhRl7RHo4Zlff/r0oiuWfRr5rDDDpMzzjjDTCa4a9cu24qGQlCG3yosLDQTrGgXOJ1MAQCAhqQz3/bo0cNM8vPggw/K4MGDzZwZK1askEmTJpmxzTpTrg4V0tm1daKw2qZL12hgT0lJMVXuegvMprqcIhPLVETLV2G16jlY5mjx1QmGI93Hlm/zqqbmTXIf41W1rei21WEr4K5zpkhemfOUrRaXqe7uVzUvrSK7H5/rtq6q7kTPYy59bOWr3PtXpivi9XwZpVXj0ufFdX3epFGSI/MlVdvcj7fC58l1jjmex+Ocz1TxvY/BodCeJdqFWr8sKyoqsq3Vp0M8dKZ9umA3PIIy/NKPP/4oL7zwglm/7qSTTrKtAAD4Dp3k56KLLjJDg9LS0mTo0KESEREhJSUlpmtlamqqTJgwQTIyMswkYW+99ZZZf1xnv9Vwrb2mdMzjmjVrzLZo0SLP5fKbDkPSf3fv3m0qWdr9W8+vW72F5UUice5KrkyR55eFSr8bEyRniQ1uy7Ikp3ey9At1gmb6FAmbYKunEyJkWroTjkOHyFMTElzHOjRcpspU1zHOOeMKsp0A7QS9YaslyV15nZEo2Xpbe5sDKsyQohi9bbr01PvznGe0FL1gz+MEx6ScRJlpr0uTrDJdmktmj5Hs2HmmitxzrFat7RXGfBFz/uUyc7jItEznZ3cCa2m1eKrESpR07WQPd3MeS1JvV9AtDdHRMtQ5R3auTa/m+UuUns7jSy0cbR/fLOf5FOdx6HkTXPcxNto5uKrnab5ky2TXz6b3uSSx7OPFIdNlnuLi4uTJJ5+Uzz77zLZW35VXXinfffedeV+j4RCU4Xf27t0r//73v83EKvrNPQAA/iA0NFTOPfdc6d+/v/zf//2f/O1vfzNdtvUDtQboZs2ambHN+gFZJwfTsPvxxx/L22+/bTYNz+7L5Tftbq3/enfx/vXXX00Xzq1b62m8dGQ3ceW/UAlzd/TqlSwjnHBqqp5L5ktsjBPiirMle12CxPVyH5MosetWS9mFt4olNyffdbzhhO6xQyREw6K7cqrbsCmydr/bViVRot336/BUZr3Oo4+zS2ycp+tzz7FeXcGXOCHaCb1JlXa1Lg3BIWERrgvV1HOshtp50vUF5/HYqnpIdKJIjn5B4PX89UqXtPApklTV+PAqn6coiYsuffxdnNeeMo+3sEB2mj0cqnPOOcesxKIzWevypTV11VVXmdtqLxE0DIIy/E5mZqZZ51LHhAEA4M90jHO3bt2kV69ecskll5gxjgMGDJAhQ4aYlRzGjBljwrRu3pfLb3fddZf51z2ppXYD1yWtdJZu7QbacEIl2vnvOjs3U7ILR8tQr5B60CLd1VT3VoMxzeERngBsKtbuyuyM0dLFtlclxwnaM4cXSGpNJjHzqhbHx4+SouGTTRW4YjrmWSvyWWIKyXrbcL2cK9mLSr9cMKE6Jqvq7tKH8jyhVnTt2tW8p1euXGnmK6iJyMhIiYmJkenTp9sW1DeCMvzKG2+8YcZ06ayAAACgrJ07d5qArOMkJ06caLqANm7cxF7bMExVdPoUKXJXaUPjJC5yvmTbLsYlszMkx1ONdtOAHSVFRaUpMG92ppSY6rN267aNh8hdOS7JzRL3qtg9YxJkbUGB3dPHl+npeq0V3ZABkz1V8uoplqJC2y3a2Q488VeBrFlnLzp6xkRIdmaWyPDkskFXK8u982WNp5xeIJ6nq5afJxw8nadAw7L28NBeJPoera74+Hhp0aKFmdcA9Y+gDL+xbNky0xVNJ0cBAAD707HOOonQZZddJi1btrStDcxUVBO8uiuHSr+U0VI03tUtWLsyp1Uwy7POXp1U0NfVddjZZoqG2mgZp+OJ7W11q97EWPsLGZAsYdNd50+TZBnhDu9OAJ0ZkeE5f1JBRLlKrD7+RMkeVpPlmLy6QVdUBS4z8dYokQmusceGE3rDFhVIV3d3ac/kWz3MGO5xpsrsGs88bZi26+OqvecJh65Ro0aml0hUVJQZt/ztt9/aaw5Mi0PaBXvTpk22BfWl0R8OexnwWTrV/lNPPSWjRo0yk6MAAIDqGTp0mHTseILceWeqbUH90lmyMyQsw9X1Wbt8p8nk6i8ppSE6XSTVT5eMyst7T1JTR0tWVpYZahDstPCjwVcLPzq7dXXoHASrVq0yy7+h/lBRhs/Trir//e9/ZdCgQYRkAADgd8LCCzwVZZ1RO7WaIdksKzUsS+JSWFc5UOh8BDoT/iuvvCL/+Mc/bKvINddcYy/t78ILL5SmTZvKO++8Y+Yw6NOnj70GdYmgDJ/38ssvy6mnnsoM1wAAwA/pMlKzSifVqkFlWLufu5eAQuDQLthaUdaVXF599VWzdrKuuazrrFdGu2Dfd999ppflrl27zKz4qFsEZfg0/eZM/xjwzRkAAAAChYZlneRr2rRpZm11HQ27ZMkS+fnnn+0RpXRdZZ3Ya9++fWZf10b//vvvzWXUHYIyfFZ+fr68++67MnDgQNsCAAAABIZhw4bJDz/8YPdcn311DHN5c+fOldNPP93uiQnMGzdutHuoKwRl+CStIuvYDR2H0bZtW9sKAAAABIYmTZpIly5dpFWrVmb/p59+koULF5rL5Y0fP96sla6VaEVFue4x6zV80qxZs+TII480XU0AAMDBY9ZrNCR/nfVaJ91yd3WuSxVFMV1OqjLex1d1XLCIjIw0y+LVBYIyfI5OTvDhhx/K6NGjbQsAADhYBGU0JH8Oyrfddrc0aUIHXF9VULBWVq36hKCM4LB582aZPHmy3H777dKpUyfbCgAADhZBGQ3J34Nynz79bQt8zVNPTarToMxXJPApugB7QkICIRkAAABAgyEow2foDNfawSEuLs62AAAAAED9IyjDJ+j6cfPmzZOrrrrKtgAAAABAwyAowydoSO7bt68cd9xxtgUAAAAAGgZBGQ3uvffek71798pFF11kWwAAAACg4TDrNRrU1q1bZeLEiXLHHXdIx44dbSsAAKgtOuv18ceH2z2g/r399v+Y9Rq1rq5nvSYoo0G98MILprt1fHy8bQEAALXp5ptvtpeA2rNjxw755ZedsmfPHjn88BbSvHkLadGihTRr1tQeUZYWRgjKqE0EZQSsFStWSE5Ojtx11122BQAAAP5k+/btsmbNGrN9/fXXcthhh5lA3LNnT+natasTog+3R/oXgrLvYx1lBKTdu3fLG2+8IVdccYVtAQAAgL9p06aN9OjRQ6677joZP368XHPNNdKlSxf58MMPzf6TTz4p8+fPl08//dTeAvAPVJTRIF5//XXTVad/f76lAwAACEQaM7TSnJeXJz/88INZDlRDtFaa9d8OHTrYI30PFWXfR9drBJxvvvlGZs6cKffee68ZywIAAIDA98svv8jatWtNeNZ/d+3a5QnORx99tLnsKwjKvo+u1wg4b775plx22WWEZAAAgCByxBFHyOmnn256FI4bN86seqIhWYPzjBkzzIRfc+bMkc8++0x27txpbwU0DIIy6tXSpUulefPmcs4559gWAAAABCOtIutnwiFDhsjDDz8sN9xwg2n76KOP5KGHHpIpU6aYAkt+fr7s3bvX3srPLUuR+PgeZbaRs4tte4rkuY+ZlGsOr75cmVjmNs5+cqaU2D3UHEEZ9eann36St956y1STAQAAAG86Zvmiiy6S4cOHm+pynz59pEmTJvL222/Lo48+Kk888YTMnTvXTAy2ZcsWe6tDp2On61XvqbJgwXLP9tSAUJFe6c7ldOlpD6mx4gIpWpTlCtpK99etlg12FzVHUEa90YXmzzvvPOnYsaNtAQAAACoWGRkpCQkJcvvtt8vIkSNNseXII4+UTz75xIRmrTproNbJwn799Vd7q5obNGiQCeeZmZmyefNm21qPijNlpFaXK6kAl8weXFqBrqxKvGG184QVSPYy125JbpasFScsF+tescxJLq1gl1arc2VifIpMnOS+brDMqfL4co/F2Sba+8vznMPreFsZd12X4mrzIwRl1AudsGH16tWSmJhoWwAAAIDq0YCsk3317t1bhg0bJg8++KAkJydL9+7dZf369TJt2jQZO3asPPLII2Zyp2XLlsm2bdvMbXXG7aqCdLNmzUyVWrt662SzGpjr1KJRnlBpul2HDpGnJiTYK8txwmZSQbKn+jwzNkvS9DbllBQVSFhsohQt0ZBaLLk5ETJiuMgaU1IOlX4Z7gr2PBlRmGEDsZovEmPP7Rw/LVNvX8nxTqBPmx4haaZ9qsRKlHTt5ArPMyPm2eOXS5qM8gRocW5bZM6fbhv8B0EZ9ULXz9NvBJs2bWpbAAAAgIN3zDHHyOWXXy4DBgyQUaNGyd133y1XXHGF6cK9ceNGMzHY5MmT5ZlnnpG0tDT561//Kvfcc49MmjTJ/OvedDZuN3dg3rdvn22pA15dr0236yrkLXGCrFewTpqeL2sLCuy1pTY4TV2j4yROCqTE2daEJ0q/sAgpcpWUvcZG95Vp6/JtgFausKtCnOM9Kj2+PA3lzmOa3tce30NSF0np/UqiRPeyF/0MQRl17oMPPjDjS3r2POhRFwAAAECV2rdvL6eccorExMTI1VdfLTfffLOMGTNG7r//fhOS77zzTklPTzddufVf96azcbvp7W+77TZp1KiRbWl4XYaXVmvNNjbaXuNWLEWFERIWGirREasld3aWSIxzTKduIjnZUqJdu8cXyIgZevt5MiLS3qwylR0fOkSSes+XVBOIR0nR8MnSz+b82Alej8/ZPF8AhEdIiOuS3yEoo07t3r3bebMsMNVkAAAAoKEcfvjhppt1y5Ytzb/uTWfUPvnkk01A1q7XOl65wYNyoVaGRXrGJMja6Rmlk3RVpDhbsqWbaGE4JLqbZE8XidMqbqgTnt0TekUmSrRmVz12nTYcQIXHayBPsF2v3WHYCeexUZLzQuDNsE1QRp3SkKx/eCIivLpyAAAAAD5Cu2a/8MILJiB369bNtjagXokSu26KJOmkWL3SZebwAlvF1c0uIeVtw2pZ667chsZJXG9XaBaJkK6RBVIkQyQp3Dmf3j5dJGm4E2zNWOZKaOW40uPdFWXdXJN/hQyYJWnu43ULkGWpGv3hsJeBWvX999+bcSEpKSnSpk0b2woAAAD4tl69esltt90tffr0ty3QivKc5AwJy3AtY6WTeKXJ5AOOs64rTz01SVat+sRM3lYXqCijzixcuFAuvfRSQjIAAAAQAMLCS6vbSTmJktpAIbk+EJRRJ9asWWOm6r/kkktsCwAAAAD/FSo9x87yTNi1IGOI307UVR0EZdSJt99+m5AMAAAAwC8RlFHrVqxYIXv27GE5KAAAAAB+iaCMWvfOO+9QTQYAAADgtwjKqFVLly6Vo48+Wk466STbAgAAAAD+haCMWrNv3z5ZtGiRXHzxxbYFAAAAAPwPQRm1RkPyiSeeKJ07d7YtAAAAAOB/CMqoFb/++qsJyr1797YtAAAAAOCfCMqoFdnZ2XL22WfLcccdZ1sAAAAAwD8RlHHIduzYYYJybGysbQEAAAAA/0VQxiHLycmRmJgYadeunW0BAAAAAP9FUMYh2bp1qyxZsoRqMgAAAICA0egPh70M1Nhrr70mTZs2lT59+tgWAAAAwL/16tVLbrvtbjnqqLa2Bb7m888/llWrPpEXX3zRttQugjIOmlaTH374YRk/fry0atXKtgIAAAD+TYPynj177B58VdeuXQnK8D1UkwEAABCIdLLa2hQfHy+7d++2eyJt2rSRu+66S84//3zbUjvmz58vL7zwgpxwwgmSnp5uWwNb69at7aXaRVDGQdm2bZukpaXJgw8+SDUZAAAAqMLAgQPlm2++sXti5veZOHGiNGnSxLYcug8++ECmTJki69atk27dusmjjz4qISEh9lrUFJN54aAsXrxYLrzwQkIyAAAAUIVPPvnErBDjDsUdOnSQa6+9tlZD8rvvvisZGRkmJCstam3ZssVcxsEhKKPGtCuKznStQRkAAABAxZ599ll5++23pX379vLhhx+atrPPPlt69OhhLteWadOmyapVq+yeyObNm+X777+3ezgYBGXUmIZkHU+hYysAAAAAlFVSUiJPP/207Nu3T6655hrT9VppNTklJcVcrk3/+c9/ZPny5dK2bVtp1qyZ7N27Vz7//HN7LQ4GY5RRIzt37jTjkseNGyft2rWzrQAAAACUDlFctmyZmTm7Pntg7tq1y4TwRx55pFa7dQcrKsqoEa0ma3cRQjIAAABQSrs7/+tf/zJdoLWCXN/DFL/++ms58cQTCcm1hKCMatMp7ZcuXWomIwAAAADgop+RJ02aJJGRkXLbbbdJRESEvab+uIMyagddr1FtixYtkk2bNsn1119vWwCgdj322GP2ElA/dP3NW265xe4FDt5L8GXaOzFQCi86s/TcuXNNNVk/I3fs2NFeU//++te/ytChQyU0NNS24FAQlFFtOjZ5+PDhDfoHAEBgS01NlVWr8u0eULd++ukn6d//moAMyjo2smPHTnYP8B2Fhd/I448/HhBBWcchv/7669K7d2+55JJLbGvD0GKWznyt/4+idhCUUS3vvfeerF271nxLBQB1Rf+D//bbEnn00X/ZFqDuXH99YkAH5dtuu1v69OlvW4CGt3XrjzJoULzfB2VdKvW5556TRo0ayVVXXSWdO3e21zQc7fpdXFxs1mdG7WCMMqpF33wXXHCB3QMAAACCz0cffWRmlT7mmGNk1KhRPhGSlY5PjoqKsnuoDQRlHJB7TTadnAAAAAAINr/88ovMmjXLFI9uuukmGTJkiL3GNzCRV+0jKOOAtNs11WQAAAAEo9dee83MaN2mTRv5y1/+4nPFIw3JHTp0kJYtW9oW1AaCMqr05Zdfmn9POeUU8y8AAAAQDHbt2iUvvfSSrFmzRs4//3y54oor7DW+hW7XdYOgjCppNVn/MAAAAADB4vPPPzdV5ObNm8vYsWMbfFbrqtDtum4QlFGpgoIC+fHHH6VHjx62BQAAAAhcWkV+5ZVX5M0335QBAwaYWa192fbt281azhEREbYFtYWgjErl5uZKdHS03QMAAAACl05gq1XkrVu3mirySSedZK/xXVST6w5BGRX6/vvv5auvviIoAwAAIKBt3LhRnn32WTPk8LrrrjNrqzdp0sRe69sIynWHoIwKvf/++yYkN23a1LYAAAAAgWX+/Pny+OOPm5msR48eLV27drXX+If8/HyCch0hKGM/v/76qycoAwAAAIHms88+kzFjxpj5eO677z656KKL7DX+Y+XKldKqVStp166dbUFtIihjPxqS//SnP8lRRx1lWwAAAAD/p5PVTp8+Xd555x0ZOnSoDB48WNq2bWuv9S8lJSXSvn17u4faRlDGfj744AM577zz7B4AAADg37755huZOXOmZGZmmkm67rrrLjnllFPstf5Jxyf37NnT7qG2EZRRhs72d+yxx0qnTp1sCwAAAOCfPvnkE/nnP/8p//3vf+WEE06Q1NTUgBheqMtYaXU8KirKtqC2EZRRBtVkAAGpOFNGxveQePeWnCkl9qoa0fNUcNuS2YNLz13+fpalOJdTJM8eWzuKZU6y931V5/x6m8Eyp9juVluuTPT6mSYus83VcrD3CZ/lvJ5Hzvb+herro7Zf3/Urb5L3e8mPXq/6t2VSrt0pr/zfCN309+Rqd/0OA/f9WVhYKHPnzpUHH3xQPvzwQznnnHPMOOQLLrjAHuH/3LNdN25MnKsrPLPwWLt2rezcuVO6d+9uWwCg7tx4443mQ0xOTo5tqWsJkrZguSxwtrTwKZJW5sP+oQkZMMucd8GCeTIiMkpGzHDdz4KMIRLSK925nC613znO634miKTWUVjJmzRKiobPsz/fchnXy14Bn9GvXz+ZNm2aFBUV2Za6tXb6mIALV7ET7HtpRqJkDwuU8Oj1N8Js+ncoVPplLJenBoTaYwKDTkSrE1vNmTNH0tPT5eWXX5bmzZvLn//8Z7ntttvM3DuBRoMy1eS6RVCGx7Jly+Tcc8+1ewBQtw4//HB54403ZMqUKfUcmEU6RUTJ2oICc7lMNdhdLS5Xga5ZFdWL+zz2vHpfI2dneiq0I2fnllZ9vCpDFT6mqjhhPK33fJnpqRLZ23qdt2T2GJm2Ll+mDSs9Z5lKWnXux3Cdv/Q5Ka1KeT9uvb6i+6y4Qm3PMVur79ruXF5W+js46Oc/SPz0008mKN9///31E5gjRbLTK369lHlNeb2mvdtLK9IV91Yo/zoqc1yVr137OrKvnZGz5zm38w691ah+hw6R1OEi0zLtYy/zt6D8ucq1a4XX632kj9H8rKbym1n6vnSeF8/j937fVXhfrsc80fPzerWPny+yaJRpr+57xH2/FR/v/TP55vvujz/+kK1bt8qaNWvMmscvvfSSPProo+b/EO0VqbM/33zzzTJ27FhJSEiQ4447zt4y8LB+ct1r5Lzg/rCXEcS2bNkikyZNkrS0NGnWrJltBYBSOh5q+/bt5oPKzz//LL/88ovn399//90eJbJq1SozUUpFdIbOkJAQc/n555833ePcOnToIHv27JH27UOdDz7/sq21RD+ADlstSbayqx8Ws2OWyzhxPsAuSZQFY13j1fQDeppMLltt0dumi6Rqddj7sr26LP2gPkYkZZb0c59CPyS/0E1mOrcR5/xJ0yMkTR+HeUxZEjdDj9UPqBnSVS9vqMZjquB+9LikgmTP7Vy8j6vgsXnxPCflK8bmcU6RtZGjzc9gfm79mdyP0f2cpIikeT3HLuXvs/y+/tzOc7AgWYqS+8q08KnmnOZnyUl03Z99/v7tXK7tuV2vvz5Bunc/tcyyMDt27JDWrVvbPdcEQDqusSLbtm2rcIWITZs2VfgBfffu3fv9H7tu3Tqzfqv64Ycf5JhjjjGXlfv8+t5r0aKFbS21YcMGM6fI5MmTzfvQrVu3buZDdHLyWOnTp79trSX2dz8zIsO+Lgvs7zBdOpV7rbpfU0OLvF+bzmtgUrZEj42T3IpeCzOc90q515GeZ2bEvEqroKWvXdfrKzs8UVLHul6rZd4/3q9bL/u99j3vWX2MfWXNjfa6ytqd98DE3DgZF5bhea/rfXset7aPL5ARnvf6KJEJ7sfrPo/7vWB/bs/fmgh53nN8ufd5JT+Pi+vc09bZXdOjRs/tfZ+u56vivw+ux3Otc5sIc/vasXXrjzJoULxcd911nmroxo0b5fjjjzeX9T2g77/ffvvNvO7d/+prXZdB0i+F9D1x9NFHm/eY3i4sLCzo5tbRvzH/+te/JCXF+cOLOkNFGYZWk3v16kVIBmDoN/ZffvmlLFq0SGbNmiV///vf5aGHHpInnnhCJk6cKAsWLDATpOgHnL1795oxUi1btjTbYYcd5rlcftMP++7LTZo0sffmordr2rSp3asL8yXVVkpSZar50Jm3pLQio1vS9HxPpVk/5Jp2DYnrVssG01oLeid6BckICTMfSiOka2S+rHHupKrHVG36AdrcXj8ou85bIf0wbu8ndZFIUZGnXFYqdIg8pd02b3TCi3OcqTL1SpTYRVmmMleSmyUSGychphJXIKneFbLyirMl211hNvc7SnKkQNx3Gxvj9YE/PMIVyjt1ky7O8/+daax95V+v2tPBe9/7NVt+q+y6ytrLn1s372Nrct+6ua9v1KiR/Wlc9DwiZdtqmw43SCrw7oJdLLk5+bJ2el/7u3W/pj4x7aW/21DppyG2steC7P866jl2qoQ55y1T4az0tZsvYTH2Cx1HSHSiSE62OZe+t8q8xg7EPMYEiXMHaH3d69+C8u3Oa39cJSHeIzJRoj2HRElXk+tCJSzcPvZlWc7PX/o3quzfHffxzs8TVpPY6t312vsLrApU8vvYss1eX8u0W3T517FuGpJ1UtkuXbrIWWedJXFxcXL11VebKvHdd98tjz32mDzwwAMycuRI6d+/v5mUKxgnoKWaXD8IyjB0ogMNygCCkwZe/Tvw8ssvm25sf/3rXyU7O9tUjE8++WS54YYbTNvDDz9sukrrhxRdf1I/qCQmJspll11mPtDoNmrUKM/l8tuQIUM8l92VuIiICLn22mvNuLLTTjvNtNUN1xjlmcPLjunq4jX+1my2oplaOFpm6v6M0dLFHltfKnpMB7KhIF+6OM+lCRCmeqW31THT9oD95MpE58N4mB2bmdbbNldGx1pPSJCcJdolNVqGOmEme5mGI5E4mwDMWG2tLDsftCvvtlk6Vty1uStYDaGRef15v0b1Q7n3/ogRI8rse2/6+q+oXddlrahdu4KWb7v11ls9l/V94H2d+/ze7y/v7aabbjL/ur/kPvPMM2XMmDGmytS4cd0GZdVzbLKsGaaBqpRnrK/dnhpQVdfXil8L+7+OomWcc33cEifAmQBd1Wu3NFQaTohNCs+S3OJcyV7kFW6rUFJUUPpFTX3SXhtlno8DhNtat//v46z9O0zUCv1b734d6/8v7svXXHONmXDr7LPPNsdoGOzcubNZxkkryuW/FApWBOX6QVCG5OXlmW4r7u6QAAKfVow//vhjE4z/9re/ydNPPy35+fnSsWNHM8mWduW844475MorrzQfvr27g9YW7U7nDsj64b6+JiUJGTBZRhSOMh/Ae8YkyNrpGRWOWeyiVVLnX62YrnU1udRmdbkCVT2mSi1LkVQnBCS5q1ru6pWpErmaXMpXl93BQUOEaaiSCRCWVuqKlmTImvDkskHXVJajylT4PPcZ6nwYjnSPpUZt0W6o7oCs7ykNFvXDCbATEuzlUImOjZKcF8r3KHC1e/dWyJvtHHOg18J+ryNXZdlUdM1e9V+7PWMiJDszS2R48oGDZ3GmpE0XGTEk2vN6zbZf+pTMzpCcyG7SybSX9oTQxzDH/XN4Hl/13lMeplo9RZ6v9AumShQWVN6Do1rs+5P3pl/ZvHmz+f8adYugDPNmY9Y8ILDt27fPBOE333zTVIR1ToLPPvtMQkNDTUVrwoQJJiDr8nDt29f2SNCKzZw5s14Dcimd9XWqyPgeMlHSZaZ283R3d7QT/YQMSDZdPbUtTZJlhPvDsv0wWWX34kPVq+LHtD+vbpLjxY4/dJgK2hTTTTo+XSTJCRuuKrDzc9+YIDnOz+2aEMhVFXbdT5bEOYFnre2i6s3TBd3ZzLhhd3Vbn4vC+SLurqxeXWH1uFQT2svfp+u5dz+3upVdaggHQ9eHrd+A7MVMJOe6qJVgnVHevPZ0s+8TVzft0t/5TNEvoSp5LVTwOip9DepYXX2dV++16+GE0LBFBdK1tO/zflyvUWfzzBugrc5jTBktRfY6M7+AGX+sj12r6fY28Rlivpmyk+q5HleGFFXam6Mi0TJuRul96VZ5rwyrl/O3SezzXekyUVWxX26M573pT7SarN3U6+ILbJTFZF5BTifSefHFF+Xee++1LQAChU7Sp/+hakDWTQOwTvKjW3h4uD3Kt6Smpsq335bU/mReqAPlJh/yQ9dfnyj9+18jt9xyi20JHDqc6rbb7q79ybz8kYbvKifhQ31xT+b1+OOPS0xMjG1FTehqETrcIj4+3ragrlBRDnLa7bpnT3/9iAOgPJ0Z9O233zaTbmn3aQ3KOrZLu2SOHj3ajJH01ZAMP2ImC3NX9wDfpfMNmCpxCiEZgYHxyfWHoBzEdHF2nbznnHPOsS0A/JH+pzl37lwz1jgzM1N27txpJv/Rfe1O3aNHD9NNC6g1OrHXArs0DuDDzMRgDTphHFB7dIlG7S2mkxCi7hGUg5iGZP0AfeSRR9oWAP7iiy++MBNxjR8/3ow71iCss1Dfd999ZgIuXVoDAAAEDqrJ9YugHMTodg34D51OYuXKlWZOAZ0Aa/HixWameu1Ofeedd8oll1wixx9/vD0aAAAEGp1vhKBcfwjKQWrVqlVy2GGHSWRkjaZkBFCP9uzZI59++qnpTj1u3DjJzc01S7lpONZ1jHUilLZt29qjAQBAIKOiXL8IykGKscmAb/rtt9/M+sbPP/+8CccfffSR+UJLJ+O67bbb5Pzzz5cOHTrYowEAQDBYv369tGrVStq1a2dbUNcIykHoxx9/NN9I0e0a8A0//PCDGQrx7LPPmqXadH3jk08+WR566CGzbM25555r/nMEAADBiWpy/SMoByH32OQmTZrYFgD1TWedd4fjiRMnyooVK+SMM84wM1XfdNNN5j3KTNUAAEARlOsfQTkI0e0aaBjbtm0zXak1HGtX6q+++krOPPNME461W/VZZ50lzZs3t0cDAACI7Nq1SwoKCgjK9YygHGR07GNoaCiz4wL1RMccazh+7rnnZPr06fLll196Kse6nNOf/vQnadasmT0aAACgLHc1md6g9YugHGRYEgqoe7///rssX75cZsyYYcYc65rHp512mtx6660mHGvlWGedBwAAOBC6XTeMRn/o4pwICt9++6354J6ammpbUBmdXGn16tV2DzgwXcqpsLDQs3Xu3FnCw8PNVpcVY50FO5Do36dvvy2RRx/9l20B6s711ydK//7XmEnzAk2vXr3kttvulj59+tsWoOFt3fqjDBoUL48//rhZ4hDVM3nyZLn00kvl9NNPty2oDwTlIDJnzhwzc66+0VA1DcoJCQl2D/BNOq55+PDhdi8wEJRRnwjKQP0iKNfcpk2bZNq0aRS6GgBBOUj88ssv8sQTT8if//xnOeqoo2wrKuMOyg899Hfp0qWbbQV8x+233yADB/YPyKD84Ycf2T2g7g0Y0C9gg3Lr1vx/D9+zZcsPBOUaWLp0qWzcuNH5P3+gbUF9ISgHiffff1/WrFkjSUlJtgVV8Q7K55xzgW0FfMd11yUEZFDWCc+A+hZo7yPFewm+TMfbEpSrR1fK0LlNdCJQ1C+CcpDQanLv3r3llFNOsS2oCkEZvi5QgzIAACh1zz33yPjx46Vly5a2BfWFWa+DwIYNG+Tnn38mJAMAAAB+Qme77tixIyG5gRCUg4AuU9OjRw+7BwAAAMDXsSxUwyIoB7i9e/fKRx99RFAGAAAA/AhBuWERlAOcVpO7du0q7dq1sy0AAAAAfNn27dtly5YtEhERYVtQ3wjKAU6D8tlnn233AAAAAPg6qskNj6AcwL777jvzTVT37t1tCwAAAABfl5+fT1BuYATlAMbYZAAAAMD/UFFueATlAMZs1wAAAIB/Wb9+vbRq1Yo5hhoYQTlAvfvuu9K6dWs59thjbQsAAAAAX0c12TcQlAPU6tWr5dJLL7V7AAAAAPwBQdk3EJQDUElJidnOOOMM2wIAAADA1+myUDt37pQuXbrYFjQUgnIAYhIv35Y3qYfEx7u3wTKn2F5RbcUyJ7mHjJxd4xsaJbMHV3nbktkpZR6THj9xmd0JKPo8Vvz8689c+jvy2pIzpcQeUx36uw7M5w4AANQFHZ/cpk0badasmW1BQyEoByDWTq65O++8U5YsWWL36l7shOWyYIGzzUiU7GEpkmfbqydU+mUsl6cGhNr92rWhYL5k55amxw0F+VJUdHCh3F+FDJjl+v0smCcjIqNkxAz7+8oYIiH2GAAAgNqm3a6joqLsHhoSQTnAfPLJJxIaGirHHXecbUF1vP/++/Loo4/Kgw8+KIsXL7at9SA0TuIiC6So2FY3l2XKyHhbLS52XXZVM92VT1c1Wdu8q8JlqtSTcm1r2Xb3OdOm58va6X2dtoqqqcVSVOj8cS7ItpXTXMleJLK2oMDslX1MpdVSU6WelFJ6nfsxVHK8nneiV3tppbZsu+t4+9zMTrHtpc9T6TEuFT0PlT22ktljZNq6fJk2zGmrbqW4wt9JFe0AAAA1wPhk30FQDjAsCeWyd+9e2bx5syxcuND8wdFNnxv3Zff29ttvm39VsRNW33jjDXnsscfMVi+WZThhLULCbHE4e4lI6gKtFovMSZ8iYe7K84QImZauYc5VTU7r7TpeaRCcGTHPVkCd62SUCY/anipTbfs8idPwGzpEUodHSZfhevws6bdfUbpA1kiixEmWmKLysiwpGj5aYgsLXEHSuf1T9n4WzBgtRS+UBsy1hd3MY1+wYKrELspwhcVKjs+bNMo5r+sxz3Qej4RHSIgJxBnS1V29dc4j493VdifQFiTa40WmveB6nhZMSJAce87KngdV0WMLGTC5tFpcrUqx8/gq/J1U1g4AAFB9mzZtkn379snxxx9vW9CQCMoBRIPhhg0b5KyzzrItwUH/qHz44YfyyiuvyOOPPy4PPfSQ3HPPPfKvf/1LPv74Y1m0aJHZli5d6rns3nQ8t/77xx9/2LO5ArNW5utSznhbfRxf4AS1dOlpWvMlLMYGtuJsyV6XIHG9zBUivRIldt1q2WB3SxVLbk6+rRC7zpm6SKSo6BPTHhsTbY9zAvbYaoTB4gIpckJrv5gIWePcWUmRSFx0nHSV0vv2VG2HTZG13o/JhF0VIV0jzQWj0uPLMz+zrfCan2WU5DjB3d3ru/Rncbjvq1M36WLOWdnzYG9cyWOrkcp+J9X+XQEAAFROizdUk30HQTmABNMkXhs3bpR33nlHnnzySZkyZYqsWrXKfPt27bXXyh133GG6Ud93331y7733yp///Gez6Thk92X3psfov40aNTLnDQsLk2uuuUZSU1PNfl3xjFEuU9WNkq6d7MUaKj2fa3tqwEF2vd+w2smSESbsyZJMyS3oJtGhoRIWPl+y3VXqwtEyU+9nxmg50HyMlR3fc8hoERtqk6ZHSNpYdwhOkDSvn6Piqnfl9n8eanBjAACABkRQ9i0E5QASDJN4aeX4mWeekX/84x+ybds2ufzyy+Vvf/ubDB06VKKjo6VDhw7Stm1be3T1tWvXTq6++mpJT0834bnBJ1EwY5dd4VSVzM6QnMhusn+ODpXo2ChP9+NSrnbvSbjyZpce4xlzXE7ekvkSZvqBR0ucTJHsiDhTie0UUXquLrGutpLcLFlrWqpW4fEayG3X6wULbEXd/swzD2o278qehwPJN5Xzaqnsd3KA31WwTYQGAAAOTn5+PkHZhxCUA8Tnn38uxxxzjJnIK9Bo9XjevHmmyrty5UoTiB9++GHp37+/nHDCCfaoQ5OVlSX333+/nHLKKbaloYVKv5TRUmS7aJuqayXjaHWG5rTwKZJkuxy7J6bS9qSC0q7IM53oq7cPGZAssYtGmbayy0S5JvJyV7V7xiTY0OzcJizChGu9bZitBKdJsozwCogVqep4727Srgm2dPz1VM/xulW1jFV5lT0PlXPu78YE2w2+OhNwVfY7qfx3pc+h/pxz17jOAAAAUBGtJmvPxpYtW9oWNLRGf3gPzoTfevbZZ6V79+7Ss6drtGsg0O7UWkFes2aNnHvuuRITEyOtW7e219atH374QRISEuShh/4u55xzgW31FTrpVV9Zc+NyGeceF+tvlqXIyKJk2zVaZ7rOkjh3ZRnVct11CTJwYH8ZPny4bQEAAP5KJ5TVtZPj4+NtCxoaFeUA8OOPP8q6desCptu1diHXscf6B0O7QGv1+Iorrqi3kOzTnIAZH99XpoVP9d+Q7Cjp1M2rcjxKZAIhGQAABC+6XfsegnIAcI9Ndk9I5Y+0Y0Nubq488sgjkpeXJ7GxsTJmzBhTSYaXXumucb2eya/8U0joEBnnNemWP4d+AACAQ7F9+3bZunWrROiEqvAZBOUA4M9rJ+t6x4sXLzZVY/0mTccdJycny6mnnmqPAAAAAAIX1WTfRFD2c19++aXpkqyD//2JBuR3333XBOTCwkK58cYb5aabbpLIyINd5BYAAADwPywL5ZsIyn7OH9dOXrJkifz1r3+V9evXm3CclJQknTod5ALCAAAAgB8jKPsmgrIf03WEdWZof5nE67nnnjMBWSce03CsW8eOHe21AAAAQHDRwlGrVq2kXbt2tgW+gqDsx9yTeDVt2tS2+KYVK1bIo48+Krt375Yrr7xShg0bRgUZAAAAQY9qsu8iKPsxX5/E64svvpAnnnhC3n//fUlMTJRbb71VTjnlFHstAAAAENw0KOtyqPA9BGU/tXr1amnRooWEh4fbFt+hb/inn35aFi5cKDExMXL77bcTkAEAAAAvu3btkoKCAirKPoqg7Kd0Ei9fG5uss1c/++yz8uqrr8qf/vQn+ctf/iJnnHGGvRYAAACAm65ec/TRR0vjxkQyX8RvxQ/99NNP8tlnn/lMt+uSkhLJzMyUmTNnmq4j48aNk549e9prAQAAAJSn1eRzzz3X7sHXEJT9kHsSr+bNm9uWhrFjxw5TPZ46daqEhITI+PHj5fzzz7fXAoB/+v3339nqcQOAYMVEXr6t0R8Oexl+YtKkSdKvXz+JjIy0LfVr586dZi3kd955x4xBvvjii6Vly5b22sDwww8/SEJCgjz00N/lnHMusK2A77juugQZOLC/DB8+3Lagtrz++uuSnp5u91CXnnnmGTnrrLPsHgAEj02bNsm0adMkNTXVtsDXEJT9jH7z9L///U/uuusu21K/Fi9eLIsWLTJrvQ0ZMkSOOeYYe01gcQfliy++3LYAvmXFig8JynXEHZQfvOhB24K68OC7DxKUAQStpUuXysaNG53/ywfaFvgagrKf+c9//iMdO3Y0ldz6pJOHaUA+7rjjTAU5LCzMXhOYNCiPG3ev3QMObOfOX2T79u2yd+9eadnyCDniiJbSvHkLe23d6NXrHIJyHXAH5eUjltsW1Lai7UVy9UtXE5QBBC2dAFf//jHxre8iKPsR7fKckpJiPsDVV1dnnY1Pu1g3bdrUBGTWeQOqppPbrVy5Uj7//HPznj3ttNOke/fucsIJJ9gj4OsIynWPoAwg2N1zzz1mfp9AG74YSPwmKF933XXy+++77V5w0rXW9uzZI0ceeaRtqVs//bRD9u3bJ4cffrgcdljtThzWqFEjeeWV2XYPCEzapcodmvX926ZNG7niiiskIiLCHgFfRFCuewRlAMEsPz9fFi5cKHfccYdtgS/yq6B80klnStOmzWwL/NmKFe8TlBFUiouL5Y033jCzxf/222+myqzV5vDwcHsEfAVBue4RlAEEM51v6LDDDpP4+HjbAl/kd0F55MixtgX+6pln/k5QRlD77rvvTKVZt927d5vQrBPkRUdH2yPQkAjKdY+gDCCYPfbYY3LNNdfQw8zHsY4yANSzDh06mFnVx4wZIzfeeKOpML///vuSlpZm1ibXLlkAACDwbNu2TbZu3UpI9gMEZQBoQDqLff/+/U1ovuWWW8w45gULFpiJ+1588UUzvlln0gYAAP5Pl3o98cQT7R58GUEZAHxESEiI9O7dW/7v//7PrJWuy7B98MEHMm7cOHn++efNMm06kzYAAPBPBGX/QVAGAB/Utm1bOf/88+XWW2+VCRMmyCmnnGKWa9OlJObMmSPvvfeebNmyxR4NAAD8AUHZfxCUAcDH6RqLZ599tgwdOlQmTpxoZsr89ttvZcqUKfL3v/9d5s+fL+vXr7dHAwAAX6T/V7dq1cpM4AnfR1AGAD/SpEkT6dOnjwwaNEgeeughc1lnzn755ZflwQcfNOOaV6xYIb/88ou9BQAA8AVUk/0LQRkA/FiXLl1MWNbJwG6//Xbp1KmTfPrpp2YG7alTp8pbb71l/mPet2+fvQUAAGgIBGX/QlAGgABxzDHHmLWYb7rpJtNF+/LLL5dGjRqZWbTHjh0r//znP83lNWvWMJM2AAD1aNeuXVJYWEhQ9iMEZQAIUFptTkxMlDvuuEMefvhhufDCC003bR3TrBXoJ554QubNmyefffaZWdMR9SM3p4f0mGa3nFzbWgPrUw7udgCABqOrWGhI1iFU8A8EZQAIAs2bN5eTTz5ZrrjiChOcJ02aJJdddpkcccQR8vHHH5tu2jq79rPPPmuqzjrDdjCE51WrVtlL9aP4s8EyastomTdiuSx3tnntCoTICwCB78cffzTLQMJ/EJQBIAg1bdrUVJx13Wbtqq0TgekY5x49ephu2e+//76pON9///3y5JNPmsnC3n33XROgN23aJHv27LFn8m/btm2Tiy++2HRNz8vLq+Mu6Z9Lxocioy8ZIqG2JfT0IRKtF7RKPCdTik2rq+o8+DPdy5UUd/XZXO/sL5gvsmaUaUuxk51XWKU2ledMyZxT2u45zuu+ZEemDHbfdtpgydyhjcXO7ZzL613X3fFViTkUAHBwdHyy/h8L/9HoD4e97NOuu+46OemkM2XkyLG2Bf7qmWf+LitWvC+vvDLbtgDwVT///LOUlJTI999/b7YffvjBbLqGc4sWLeSoo46SNm3amOUujjzySLOUlbbrEla6aSXbfbl8my/QrnBaYVe6XMcZZ5whxx9/vMyaNctUfGvVLwtk8PzNMrlfaVD20FC7vJvMs9dpoM1oN0+St/Q1/8463esWeuw3ibI81kTscrfVgNtXVvdYLunitC8okNGDZsmQ1hq4R4nEO+2dvY7prO1Zkjgi3RXYNTS/Lc5jjJPsOWMkq12iTI6t4PEeoqLtRXL1S1c7/x88I2eddZZtBYDApF8wT5s2TVJTU20L/AFBGfWOoAwEhu3bt5ttx44d8tNPP5klqXbu3GkmLPntt9/k999/92zl9zWUagCvjIZtPU9Fjj32WNm8ebPdK+u4444zH0gqouFc71u5z6Hdy1euXGna3DTI6+P1haA86/QCr4DrOrR8UC491nVW7d49RibLrKMyvM6pgThDupnQ7HUbPUYr1GUkyNQRyVLgCdO2uRYRlAEEk6VLl8rGjRtl4MCBtgX+gKC8LEXilyTKgrH2m/kKFcuc5DEiKbOkX21/rb6fXJkYnyVxC9Klp23xljeph6QusjsSJSNm1PQxVX1+j+JMGZkukpoxRGp7NAVBGcCB/uvR63XG7orUxnXuy8uWLfNUlNu2bSunn366CdGzZ8+u/aAsnzth9eXS6q23SoOy6w+87puxzXp9bQdlr/stpVVn5/+9S1zH1zaCMoBgovN/6N867bUE/8EYZT8UO2G5LFjgbDMSJXtYiuTZdgDwFxpSq9oaN25cYbtutXGd+7Jq3bq1XHTRRZKSkiKPPPKIREVFmfbad5okdp0vo7zGBxd/lmLHBDt+XC0F5kKuZK0xFzyiY6dKgud6x5YCzzmiT0iQ/LXZdj9XMj7Ml4ijqvkNaudE57xTJMOOdQYA1D7WT/ZPBGVvWl2elCIT43tIvG7JmaIdA0tmj5Fp6/Jl2rDSNq3sTlym1VmnbVKu67bu28UPljn2E0zJ7MEy0jnnSPd1eqyl5/DcxrbnTRolOTJfUssdW6HQOImLLJAiva8y9+8Oz1oJdx7Lskxz/yNnF+9/fq0ce26nP5O5IQAEBR1fnZ2dLY8++qhZPquul+2Ijl0uU9tNkb528qy+a0Ui9IrO6TJVQ7Rpz5CCo83hpvLrmmRLu1/bSnTnZBkt9hw6cZfe1nPOUVJwzrwadJeOlvRBo6Vggft+SicIAwAcOg3JHTt2NHN4wL/Q9dq767VeHi+SZrola8jsK2tuXC7jeu3f9VpD7szC0ZKUMWT/Lsxe59SgnJSTKDNNF2YN1hnSdcYsic4dLGkyWZ4a4Dqhni87Ru/rwF2vXcc5O57HmyjZ9rz6+Mx9FiQ79x9hHnd2eKKkjnV3oa7i/N7drel6DSBIvf7665Kenl4HXa/hRtdrAMHijTfekGbNmkl8fLxtgb+golxeZDfpZC6ESli4uVC52DivsKlh2lZmx88XKSwwlWcjPMKGzQjpGqn/FktuTr6snd7XU8nVccdFpjR8YDnj3fdTICNmOIF3WZbkRCZKtA3xIdGJ0sVz//kSFlN12PVUtodNkbXrVssG2w4AAADg4NHt2n8RlA9BWFjpGLC8SX1lWvhU19jhCQm2tWqescZ2c1eXD6T0dtWZyCtKurqSf4W0+pxaOFpm6vlmjJYuth0AAADAwdOVIXQ5xYgIM8gGfoagXG35suYApdbYGNcMpHlLyi+1UV6oRMdGSc4LrvHO+7PjjqurV6LErsuSXHubvMwpstZTxa5I2fN3iY0zx5bkZslaV5ML1WUAAADgoFBN9m8E5WoJlX43Jtguz6UTdXnrOWS0FNku0dkxU8sE14qEDJglaeFTJMl2vXZPEqYTqwwdLq6JwzyTch1ItIybEGFv08NVIa50uauy598wIFnCbBfwNEmWEZHzJVsn9DIThc2XVOdx+cUgdgAAAMCH5OfnE5T9GJN5od4xmRcAX8ZkXnWPybwABIMHHnhARo8eLe3atbMt8CdUlAEAAACgFq1fv15atWpFSPZjBGUAAAAAqEWMT/Z/BGUAAAAAqEUEZf9HUAYAAACAWrJr1y4pKCggKPs5gjIAAAAA1BJ3NblJkya2Bf6IoAwAAAAAtYRu14GBoAwAAAAAtWTdunVy3HHH2T34K4IyAAAAANSCTZs2ye7du+Wkk06yLfBXjf5w2Ms+7brrrnNecGfKyJFjbQv81TPP/F1WrHhfXnlltm0BAN/x+uuvS3p6ujwU+5BtQV14IOcB5/+DZ+Sss86yLQDg/5YuXSobN26UgQMH2hb4K4Iy6h1BGYAvcwdl1D2CMoBAM336dOnRo4ecccYZtgX+iqCMekdQBuDLfv/9d3sJ9eGwww6zlwDA/40dO1YefPBBadmypW2Bv2KMMgAAXjS4sdXfBgCBIj8/X8LCwgjJAcLvKsqXXXa1bYG/WrjwDSrKAAAACCj/+9//zBeA8fHxtgX+zK+C8po1a+we/F14eARBGQAAAAHjsccek2uuuUYiIiJsC/yZ3wTlL774wl6CW15envz444+SmJhoW8rSCWnatm0rF154oW3xLaeeeqq9BAAAAPivbdu2yaOPPspkkAHEb4IyKjZx4kTp27evnHzyybal1L59+2TatGly/PHHy5VXXmlbAQAAANQmLWCtXr1abrzxRtsCf8dkXn4uISFB5s+fb/fKaty4sdx8883y3XffmTETAAAAAGrf119/LSeeeKLdQyAgKPs5XaOtTZs2snjxYttSVrNmzUxYLiwslLfeesu2AgAAAKgtBOXAQ1AOAO6q8s8//2xbymrevLkMHz7cTIZWWfUZAAAAQM2tX79eWrVqJe3atbMtCAQE5QDQoUMHOffcc6sMwYcffrgJy6tWrZKFCxfaVgAAAACHgmpyYCIoBwitKq9cuVIKCgpsy/6OOOIIE5b1uHfeece2AgAAADhYGpSjoqLsHgIFQTlA6OLmVU3s5abdQnTM8ieffCLZ2dm2FQAAAEBN7dq1S4qKiqRLly62BYGCoBxAtPv13r17zfT0VTnqqKNMWP7oo4/kzTfftK0AAAAAaiI/P18iIyOladOmtgWBgqAcYNxVZQ3MVdHJBvr162fC8tKlS20rAAAAgOqi23XgIigHGO32oW/W6sxurccmJyebpaVyc3NtKwAAAIDq0IoyE3kFJoJyANKqsobfkpIS21K59u3bmwm+Fi1aJB988IFtBQAAAFCVjRs3SuPGjSUkJMS2IJAQlANQmzZtqjWxl5u+uTUsL1iwQF5++WXbCgAAAKAyVJMDG0E5QMXFxcnmzZvNUlDVERoaKpdffrl88cUXZtwyAAAAgMoxPjmwEZQDWE2qyurss882leW5c+fKxx9/bFsBAAAAeNuzZw8V5QBHUA5g3bt3l2OPPVZycnJsy4F16tTJhOU5c+bIihUrbCsAAAAAN60m68S4zZs3ty0INATlAOeuKu/YscO2HFh4eLgJy7Nnz5ZPP/3UtgIAAABQVJMDH0E5wOlEXTExMfL000/bluo54YQTTFh+8cUX5dVXX7WtAAAAABifHPgIykHg4osvll9//VXWrVtnW6onMjJSLrnkErNsVHUnBQMAAAACmU6Yu2vXLunYsaNtQSAiKAcBHTtR04m93DRka2V55syZ8uWXX9pWAAAAIDhRTQ4OBOUgcc4550ijRo1k2bJltqX69A/BzTffLM8++6ysWrXKtgIAAADBh/HJwYGgHETcVeXdu3fbluo76aSTTGV5+vTpsnr1atsKAAAABJeNGzfS7ToIEJSDiE7QdcoppxxUF2x18skny7Bhw0xl+e2337atAAAAQHDQbtetWrWS9u3b2xYEKoJykNGqcm5urhQXF9uWmjn11FPlvPPOk4ULF5o/FAAAAECw0G7XjE8ODgTlIKPfgOkEXf/+979tS81dffXVcuONN8q//vUv88cCAAAACAZaKGJ8cnAgKAchDco6E/by5cttS811797dhGUds0xYBgAAQKDbunWrbNu2TSIiImwLAhlBOUhddtll8tZbbx3UxF5u7rBMZRkAAACBjmWhggtBOUhplxGdnEvD8qHQsDx06FDCMgAAAAKaftal23XwICgHMa0qa/frwsJC23JwdIIvDctz585l6SgAAAAEJA3KVJSDR6M/HPYygtAHH3wgK1askJEjR9qWg/fFF1/I888/b9Zb7tatm231bTrGGghEAwcOlNatW9u9hjFr1iz59ddf7R4QOLSiFBMTY/cABINvvvlGXn/9dfnLX/5iWxDoCMqQZ555xqyvfP7559uWg+dvYXnMmDHy2Wef2z0gMGzZ8qNkZ2f7RFDWvy8tWhxuWwD/p++vxx9/nKAMBJmsrCzZt2+fXH755bYFgY6gDCkqKpKMjAy57777zPJRh0rD8owZM+SWW27x+bCsQfnnn3+T9PQnbAvg3957L1vS0sb6VFB+7bUltgXwb1u3bpFBgy4lKANBaMqUKXLFFVdIly5dbAsCHWOUIWFhYRIdHS1vvvmmbTk0Omb5pptuMhN8rVq1yrYCAAAA/uenn36STZs2EZKDDEEZhk7spWMvaivYalduDcs6BvhQZ9YGAAAAGgqTeAUngjKMxo0bm7D8yiuv2JZDp2H5oosukkWLFsnKlSttKwAAAOA/WD85OBGU4XHGGWdI586dZcGCBbbl0PXp00dGjBgh//73v+XTTz+1rQAAAIB/0Pl8jj32WLuHYEFQRhk6SYFWgIuLi23LodNv4G699VZ5+eWXzbrNAAAAgD8oKCiQpk2bMj45CBGUUUa7du1MFXjevHm2pXZERkaasKznXbZsmW0FAAAAfJfO33PSSSfZPQQTgjL2c8EFF5h/lyyp3SVdtFu3dsNeuHChWWsZAAAA8GUalH19uVPUDYIyKtS3b19T/f3hhx9sS+3o2LGjXH311fLdd9/J4sWLbSsAAADgW3788UfZsWOHnHDCCbYFwYSgjAqFhoZKYmKizJ0717bUnu7du5tu2NoFW8dDAwAAAL5m9erVVJODGEEZlerdu7fs2rVLcnNzbUvtOeaYY0w3bJ0JW7tiAwAAAL6E8cnBjaCMKl155ZXy+uuvy+bNm21L7Wnbtq0Jy1999ZW89dZbthUAAABoWLt37yYoBzmCMqqkY4q1C7aG5brQqlUr0w37m2++kVdeecW2AgAAAA1Hu12feOKJ0rx5c9uCYENQxgHFxcXJvn375N1337Uttevwww83leU1a9bISy+9ZFsBAACAhkE1GQRlVMtVV10lb7zxhpmtui4cdthhcu+998qePXvk2WefNd1dAlHepB4ysTrLSC9Lkfj4Hs6WInm2qa6VzB4sI2cX2z2VKxOdx1Ctx3sgxZky0fvczv7ISbU/9t0X7P88osHp+yk5U0rsrtLfU3xlr0E93nNdscxJ7lHx77SC85Z3cK8H1326/gbU79+BQ6OPe7DMqerHbYC/bQBwMFgWCgRlVMtxxx1nlnV69dVXbUvdGDx4sJnoKyMjQ7Zu3Wpbg40TUMcXyIgZy2XBgnTpaVvrX7SMW7BcxvWyu4diw2rJyckuDRTO/trCgioDBlBreiVK7LosyfUEuGLJzREZMSTa7lclVPplLJenBoTa/foSZf8GONsEkdSACJa+8rcNAKq2fv160+Oxffv2tgXBiKCMaouOjpY2bdrU+cRbOoHYqaeeKi+++GIAh2VX5WXipMGeqpGrcqvtoyRH8mXaMO+20uqSpzplq15apTbVGbOfWXqs5zpn81S9ylWq3FWz4kxJm54va6f3ddq1IuQ+zl0dqvgxmGrZpBQZWf585ZQUFUgXWe0JKnlL5ousWy0bzF4lj8n8PCmmqm3aD/QzlG/3BAtXZdzd7q6Quyp9mZ7rRs7OLb29189hKo/2GM9jqOyx7fc8aiMaXrTE9c6XNa4XnPN7ypZsSZToDe7qpm4V/77c76HSnhVer6fxzuvY8rzXdDvA66HMsZW8Z8rolS5pvefLTPu+q+z2ZV6rpt31nvA8du3JYd4X2u48ntnun9+5vEyvc9229Get2eu/ZPYYmbbO9bfLc6yH3mf5v22V/Cz6OJ3b55n75n0EoP7R7RqKoIwaueaaayQvL89McFCXdGkqnUDhkUcekYKCAtsaaPKlKGKyrRglSM4L+sFSq1dTJdZWk7Saaz58hk91HbdgqoRNH1P6wbEwQ4pivKozi7JEUlzHxS4aJdnmunkyQqbI8+aDqas65jqX0+7c3pwrdIikDo+SLsPnOe2zpF+o+3G4VPUY1hZ2k1TbHrvInq+cDc6vMM45WbZJyrmSXThaRvQukCJzbCWPSS1ybuduP8DPUOYxOs+nRHaTTubDeYZ0dVfmnMco40src2unr3adf8ZokekZXs+dfQxOIEgqSLa3XS4zY7Mkzf1FRUWPbb/n0XUoGl7PGOc9tsQVxEpynfdJbJyEOAHU/btdMCFCpmXuH1p7jnV+v5F2p/zrSV9nVs+xts3Z0sIrfz1o8JwZofv2WBlVJphWplNElKzVv4XOazLVef/MNLfX17+9vb5WcxJtu5436wAVaCewFiSaY2cOF5n2grjex56/RY4avv5DBkx2nitbCc8YIiGuI639/7ZV+rMYWZIt+veR9xGA+rdixQo54ogj7B6CFUEZNXLkkUeasDxnzhz57bffbGvduPjii+Xaa6+VadOmmT9YgSgszH4C7NRNurgulaNdRPMlNsbdRbRcZUyrYt5doyOdfc+Hyijp2kn/DZWwcJEiVyo1H05dFZy+pvpTeq7KHOAxhEfYD8QR0tUTKLwVS1FhhIQNSJQw/aBf7GxOSImOkNJzVPaYTNhVrp/Bo7o/g1YO3RUuc7xWtNwB3dE70av7p/MYzXOnP4frnKbyvWiUvW0PSdLqoPuLm8oeG3yTdr9e5AqP5osb80ZxVVzN71erwwcaDuCuRFcU3Ey11nWuVCdEet5vZbjeS64K84GOrZi+JrtoyDd7oRIdG2VuX7Zdg/uBuzaXvqcd7vex/i2yvT3q+vVf2c9irIuQuHrv7g4AYnoz7ty500xmi+BGUEaNnXbaaaZrdH0s53TmmWfKzTffLG+//bYsXLjQtsLDE1KrST/Me8YIelfK6lKBrBH9UO0EbMmSObmrpauTNELCIlwVvpo+pkqODxmQbKro5kO9Xp/irmglSJqtiLm2mlWoXNVAr9uPrc64VvieaBk6vECyl2mPBlfYzZvUt2wvhIOWKxOHTZGwCa7XSFpv21yJWHuce6vO+OcNBfnSJSLC7tWfBnv9e4I4ANQv7TVJt2sogjIOio4j/uGHHyQ3d/+uirWtS5cuMmzYMCksLJTMzEzbGixcVRZ3l1ENiTMXuSvFB8lddTbVVleTm6daVMYhPoZlWZJjA33PGJFpOd1c96+VK3cFr4rHVKGKji8ukKLe7u7hNgyHxklcZOnYzprS7rprp2ccoAvr/ip+HtHQQqITpWj8KCnyqry6q6qmeuqtoupyaISElZkUzFuCxJneHU4QX2QaPEpfD/a95O7aXF3aRXlRgiQ5gdq8Jj0T4+XK89PzTc8U0+71uiuZnel53bqrtNrlfK25VD0H9/qvTi8Vl8p+FgBoSIxPhhtBGQetf//+pgv2t99+a1vqjs46mJSUZGYgfPTRR+Xnn3+21wQ+M+6v0FZKTdXqEMbshQ6RpPApkqTnShdJGl4agL0rsuWXszmUx2Am8nJXwrT7q7sKbkLHatlQxWOqUFXHe3UTdU0m5BoXGebV1bVGS/X0SpeZwwsk1X3Oasw8XNXziAZmvjiJst2unaA2ZLQTnF2/2+yYqaUzY5tZsp3X2H4TbUXLOB3L7O7K75nMy1Wtdr1OsiRuQmkALP96CBkwy4xhNq9f3fab9MrNa8jAeJE09zwEOrGX5/ZO6B8+zzXeV1+rERmu450tqSDCOd55/afo+HvX6z8pRyoZ4lGJGr/+nfu7MUFyzHNajUm4KvtZAKCB7Nu3z1SUWRYKqtEfDnsZqLH3339fPvzwQ7nzzjttS91bsmSJzJ07V4YMGWK6Zh+KMWPGOKH7N0lPf8K2wG9pl+zMCHnKdA3VsadjRFKCbyKg997LlrS0sZKdnS2tW7e2rQ1j1qxZ8swzz8hrry2xLYB/27p1iwwadKk8/vjjEhMTY1sBBIovv/xSFi9eLMnJybYFwYyKMg7JeeedJ8cff7ypLNcX/XAyYsQIE5j1g3h1vfnmm/YSAlOEhLmr3vF9JTt2ctCF5Ib03nvvye7du+0eAAD+h27X8EZQxiEbMGCAfPPNN6ayXF+ioqLMuGWtmN19990mNP/+++/22or997//lcsvv1zuvfde820hAkxotIzzLBtVvQmSUHt0FnydIfT//u//zMR7P/30k70GAAD/wERe8EZQxiFr0qSJDBw4UF5++eV6Ga/spiG5T58+csstt0hxcbE8+OCD8vTTT5vKVklJiWzfvt18WHdvatOmTWYGbV2fWQOzTkgGBCIdx6+ve31veP/r3qraL39dZe3ff/+957Iup/Hrr7+a4Rjp6ely//33S35+vn00AAD4tqKiImnatKmEhNRoPREEMMYoo9Z88MEH5kOyjldu3Lj+v4P55ZdfzAdzrW5rYN+4caO0aNHCXium4l0+GOvkYKeeeiZjlBEw3GOUL730UmnWrJk0b97cVHuPOOII8x5xO+yww8r0wtBu03q8atmypVlDsjx9v2gYdtu7d6/5okzp+638eud6n/v2/SGvv84YZQQGxigDgUsLKfp/n67sAiiCMmqVjlXWD+XXX3+9bfEdw4cPl08//dRc1tkMdXy1Ttqwb18TgjICRkNN5rVo0SK55557zOWwsDA566yzTPDWuQGYzAuBgqAMBK4nnnhC4uPjzfA+QNH1GrWqX79+sm3bNvOh2dfot4T6x++mm26Shx9+2MxoqJUzALVDJ/a76qqrJCUlxWwdO3a01wAA4Lt27Nhhhu0RkuGNoIxad91118nSpUvl888/ty2+ITU11cySrQG5c+fOthVAbdBQ/L///c8EZK0mAwDgL3R4HmsnozyCMmpd27ZtTVj+z3/+Yyb/8RXMYgjUHb6FBwD4K53I69hjj7V7gAtBGXVCPzTrjNRawdUxy/B3xTInWdcndm0jZ9fwC5BlKRI/KdfuAChD3x/2vXVQ7y9HyezBEp+cKSV2v0Z4fwIIYrt27TJz1vTu3du2AC4EZdSZ6Oho040lMzPTtsBflcweI9PCp7JGMVBXervfX/MkLqevTFxm26spZMAsWZAxRFjUBABqRocKdu/e3awGAXgjKKNOaVVZZ77V2bARYLQK5V3B8lSlcmWiuzpmrnf2x88XWTTKtLkDgKmAlTnOYc6RWVq9ds6XN6ncMUBAC5Xo2CgpKio2r/2Jy+z7yVZ8Pe8HrzbPe8nrPVLh+6t8u/v9WsH7EwCCxcqVK01QBsojKKPO3XDDDWas8jvvvGNb4G9CBiRLrPkgnSJ5tk16JcsIyZJc20s0b8l8iY2Jdj7Ij5Ki4fNc1TFT4YqWcRMSPBWzcb2cg51AnFSQbCtoy2VmbJakububLsoSSdH2qeY+s2NcVbYRMkWe50M8Al6uPD89X8LCXL02il4okDh9n4yNNu+b1MLRMtO8b5z3ROEoE2xNNVnfY26Vvb+0PSfR3n65pDnv37yK3p8AECR+/fVX+eqrrwjKqBBBGXWuUaNGJizrjIJ5eZ6YBb/ifJjWD9czusnMePcYSq18iWSbpJwr2YsSJM75kN1z7FQJm15111EN1e4Klm5JTjBYW1DgujIyUaI9PbujpGsn/TdUwsJ1sg0bpoFA43k/uL5o8gTW2DjpaS/q+6aLs+/qXl1aeS6vsvdX2dvrezXdc24ACEZaTT7ttNPodo0KEZRRL4466ii58cYb5dVXXzUTJsBPhQ6Rp2aMFsnJNl05tdIcppeXZUlO70T7odsVquOWOB/Sq+gu3cVddXZvWjEDgpVnjHLZOQDcleWa4v0FAAdGt2tUhaCMehMWFiZJSUkyc+ZMKSwstK3wOxtWy1p7UUNxXHiWPL9EZMSQsh/EtbIcu261bLD7UljgCc09YxJk7fSM0m7cAA7IvG/sl1Tlu2h7q+z9ZdrdPTccJbMzS4/xen8CQDDYuXOnrFq1iqCMShGUUa90LeOBAwfK888/L5s2bbKt8HVlJgAaL5LmNbtuz5gIySns5ukuXTrZ0CiRCbZrpxnPPEWStF0nEOqVLjOHF0iq+5zeY58BVMx536SF2/dR+S7a3ip7f2l7RIZt6yFJBREVvz8BIAi4q8k66SxQkUZ/OOxloN689957ZrvttttMt+yGMmbMGPn5598kPf0J24Ka0hCdJpNZMspHvPdetqSljZXs7Gxp3bq1bW0Yuo76M888I6+9tsS2oK7o+9BM4EUX6zq1desWGTToUnn88cclJibGtgLwR9OnT5c//elPZgMqQkUZDeL888+XHj16yIwZM0zXF/ijYrOMk86im0pIBhqIa/mopOkRkkZIBoBq2b59uxx55JF0u0aVCMpoMBdffLFERUXJc889J7t377at8B+h0i9juV0CCkDDsDPSL2AGawCorq+//lp+++03ul2jSgRlNKjLLrvMTPL17LPPyr59+2wrAAAAUDc+++wzOfXUU+0eUDGCMhrclVdeKe3btzdhGQAAAKgru3btMhXlU045xbYAFSMowydcc8010rZtW8IyAAAA6swnn3wip512mrRo0cK2ABUjKMNn9O/f38zSq7MQMhk7AAAAatunn37KJF6oFoIyfMqAAQNMZVmXlGGCLwAAANQWne36u+++Y3wyqoWgDJ/Tr18/CQ0Nlaefflp++ukn2woAAAAcvBUrVsjpp58uTZo0sS1A5QjK8El9+/aVE088Uf75z3/K999/b1sBAACAg6NBWccnA9VBUIbPio+Pl169eklGRoZ88803thUAAAComeLiYvn9998lKirKtgBVa/QHsybBx+m3f5mZmXLDDTfImWeeaVtrx5gxY+Tnn3+T9PQnbAvg3957L1vS0sZKdna2mRyvIc2aNcvMN/Daa0tsC+Dftm7dIoMGXSqPP/64xMTE2NaG8cUXX8i9995r94DAcemll8odd9xh92rPvHnzpFmzZpKYmGhbgKoRlOEX1q1bZ8LyBRdcIHFxcbb10BGUEWgIykDd8bWgPHToULnuuptsC+D/Fi9+Wy65JK5OgvL48ePl1ltvNfPgANVBUIbf2LJli/ngfdxxx8nAgQNt66FxB+W77nrQtgD+7csvP/W5oPzcc6/bFsD/+VpQfvrpFyUioqttBfzbsGFX10lQ1vfL0qVL5c9//rNtAQ6MoAy/89///lc2b97sfFgZJMcee6xtPTgalHNycuweEDh8JSj//e9/t3tA4CAoA3WjroLyc889JyeffLKZ+waoLoIy/NK7774rCxcuNJXlM844w7bW3JIldAlFYNL3RUMHZd5fCGQEZaD21UVQ1qVG//a3v5mu182bN7etwIERlOG3vv76a5k9e7aZ5r9Pnz62FQCAwEdQRiCqi6D89ttvy44dO6Rfv362BageloeC39J1lv/yl7/Itm3b5MknnzTT/gMAAABuH374oZx11ll2D6g+gjL82uGHH+5ZNurRRx+VxYsX22sAAAAQzFauXCnt2rWT8PBw2wJUH0EZAeH888+XsWPHyqpVq+Rf//qXbNq0yV4DAACAYPT+++/L2WefbfeAmiEoI2CEhITIbbfdJl26dJFHHnnEzPoLAACA4FNSUiLff/89QRkHjaCMgBMbGyvjxo2TwsJCmTJlipn0CwAAAMFDV14455xz7B5QcwRlBKT27dvLTTfdJBdccIG8/PLLZu3lLVu22GsBAAAQqHbu3CkfffQRQRmHhKCMgKazHN53333Spk0bSU9Pl/nz58uePXvstQAAAAg0OTk5ct5555nPf8DBIigj4DVu3FgSExPl/vvvl+3bt8tDDz0k7777rr0WAAAAgWLv3r1mFZRzzz3XtgAHh6CMoHH00UfLtddeK7fccots2LDBBGb9Q/rHH3/YIwAAAODP3n77bTOBl07yChwKgjKCTlhYmNx4442SlJQk69evl/Hjx8vChQvll19+sUcAAIAqFWfKyPgeEu/eJuXaK3xdscxJHixziu1uBfImpUievazyJlV9vN9aluJHv7fq2b17tyxatMgsGwocKoIyglbnzp1NYNYlpbRL9gMPPCCvvPKKFBUV2SMAAEClIkfLzAXLZYGzpcmoAAldxVJUOF+yl9lds58vazbYXfi0t956y4xNPv74420LcPAIygh6oaGhMmDAAHnwwQfNpA/PP/+8PPXUU5KXl2fGuQAAgKr1HDtVYhdl2MqrVm1Lq80jZ5eWY/MmlW/PlYnxXhVbrXImZ0qJu/I729k3xzuXl5VWsSd6gmzZc7rDesnswTJyUkpp1dvTPkamrcuXacOcNnM/5RXIGomSoiU29BdnS/Y6kaIi1wMsc1+e27se68RJgz3XuR9fxcc79Od0tzub+znSx73f8abym1n6nDo/i+e83ucsU+V3P6eVPTbneR8/X2TRKK82//bDDz/IsmXL5MILL7QtwKEhKANWq1at5JJLLpHU1FSzrNQXX3xhJgB76aWXJD8/3x4FAAD2FyFdI12VVxNGw6eaSvOCBVMlbPoYE9o0BKaKu32exBVkVxBUvTmBtiDRHD9zuMi0F0RS9bYTEiTnBVdA1HPOjJhnz+mqbLtD39rCbq7jncfgDvEhAybLiMgoGTHDac8YIvuNYi0ukKLwRIkrzDLdr0tysyRs+GgnPxeYq3uOdd2Pua/wKfK8J2DmS1HEZNd1Xo+v4uM1pBa4HoPzPIyI1GFhoSYQJxUke46fGZslae4vGRZliaRou/4soyQ7xt5WvM45bLUk2dsumJEo2enuEF3RY4uWcc5l6e36fYzrZQ70a3PnzjWf49q1a2dbgENDUAYqcNppp5l1mO+991457rjjzLJSWnGeM2eOrF692h4FAADKKpbcnHyJjYm2+9ES11sDdPn2UOk3toKgWk7p8Y7wCNfxnbpJl3WrZYO9r7XT+3qqpamLSqu/nuNNiDcXDmyD8398RJxExzrncU6zoSBC4gZESFhhgSt0elVty9yXw4RdpY/PdanK48vLW1Ja4dUtaXq+rLUBXSITJdqeXiRKunbSf0MlLNyec1mW5Mh8SbW3jR82Rdaa58ilwscWQHTNZJ1rJi4uzrYAh46gDFRBu2JfdNFFMmrUKElOTpa2bdua2RS10pyZmSkff/yx/Pzzz/ZoAACCVYGsWecOcPUrdoKtotrtqQGeRFljJUUFJlSGRHeTNbmZki2J0lODtmRJbrFWbadImL2/tN72RpWq7PhoGaoVcu3+Hd/XVN/dFd0uw0ur42Yb6/VFwYF4jRl3benOYw98GpC1kHHZZZfZFqB2EJSBamrfvr35pvKOO+6QsWPHSmRkpHz++eeSnp4uTzzxhGRlZcnatWtZbgoAEHTyJo2SnN7J0i80VKJjoyTHM8Y3U2Yu0gDtaveuqObNLu0a7J4sy1RVq83el+3mXH2VTc6lFWpxhf3QOOmaM0XEVLS1cuu+TYLEmVCbK9mL9N8Dqfj4DQViu16XhuGeMQmydnpGmRm3q61XosSu8+4KXk3uSrkfe/HFFyU2Nla6dAnEWjkaEkEZOAhaadaF7IcNGyYTJ06UxMRE2bdvn7z55psmRD/99NPOf34LzNjm3377zd4KAIAA4gSzJNvV14w9toHPjAMutF2ITUV1lhOgtX2WJBWUdpOeKXESYsfK5oy3bYVR5hzVpefUsb/ux1HxBF3eQqXfje77K7/sk1bFI8TVS1lDeIKnQt4pQkN+hAwdXmC7N2dJnPO41+ZUNc5aK8eVHW8nFLOP24yr7pUuMz3H61Z2maqqOc/jjNFSZJ9Hzzmr0ivZjHE2z52fzliun7VUfHy8+ReoTY3+oPwF1Kpdu3bJN998IwUFBVJYWGg2Hees6zfr1qFDB7M1bdrU3gIAgJrRCSeHDh0qTz/9okREdLWt8Be6NnPRENcXCGZW6yWJNetmHaCGDbtaLrnE1XvvQHT4mwblW2+9VY4++mjbCtQegjJQDzZs2CC6PvO3334r3333nRQXF8uxxx4rISEhZtNu3bodc8wx0rx5c3srAAAqRlD2Z8VSMjtDkqa7u5knSFqQjCc+kOoG5c8++0xefvllufnmm+WEE06wrUDtIigDDWTjxo1m27Rpk3z//feyefNmsx1++OFmaQPddPIw3Y466ijT3Vv/PeKII+wZAADBQNeHveeee+Taa6+Vc845x/x/QFBGIKpOUM7JyZHFixfL9ddfLyeeeKJtBWofQRnwMdu3b5cff/xRtm7dKlu2bJFt27Z5Nr1Oxzy3bt3arPus25FHHmk2DdC6tWzZ0oRt99aiRQtTpW7UqJG9BwCAP9GgnJCQYP6mn3HGGdKnTx/z/8Dtt99OUEZAqSooa2+8N954w8wJc+WVV8rxxx9vrwHqBkEZ8DN79uyRHTt2yE8//WQ2XZ5KN10eQbedO3fKr7/+ajYdL+3eDjvsMM/WrFkzs+mxWrFu0qRJtTcdW60hvqbjgbTruY7RDjTaI0DHoAca/ZJGezUEGn2v6BdLgUa/QDuYYRtfffWVnHzyyXaveg7mvax/a/RLvOrSv1n6JV91/f777+ZvW3Xs3bvX/C07EP07p38fK6IrHuh6+xXRnkE6tMab9hrS4TVu2pvI/SFfP/yHhoZ63nP6GtVz6N/ojh07mmP0b/3DDz9sLisNzOHh4bJq1SqCMgLKsGFXSdeukWaS1JKSErOSiL63dZ1k7VV3wQUXyIUXXmiPBuoWQRkIEvpB0r3t3r3bbOvXrzchTz841mTTD5Da9a8mdHy2+0NfICn/AThQVBUS/FmgBuWaBEVvq1evlm7dutm96tF5FnRCwpqo66Csf880WFaH/g2rTlDWXjz6wbwiX375pZxyyil2ryyt/up8E97Kt2kA0PkplDs0u99z+oWn9irSx+h+njUoT5482VxW+rvu3LmzrFmzhqCMgKJB+YQTwuXSSy81X0Tre1A/p+iXSZ06dZLGjVmwB/WHoAwAAODD3F2vNSBrJfuSSy4xXzyOHDmSoIyAUpNZr4G6xtcyAAAAPk67yN91110yadIk6devHxM7AkAdIygDAAD4MO22/cILL5iArJN4AQDqHkEZAAAAgWtZisTH97BbiuTZ5uopljnJg2VOsd0FEDQIygAAAAhQuTJxfIGMmLFcFizQLV162msAoCoEZQAAAAQRrRL3kInL7K5X1bhk9mBP9VmvL5k9Rqaty5dpw5y25EwpMcc74dtToXafx55jtrt67VxelikjyxwDwF/s+HknQRkAAACBKlqGDhcTdEfOdvefDpV+NyZIzpJc125xtmRLonNkpqRNj5A0U3leLuN6iYQMmCwjIqNcFemMIRJiAnGGdPVUqKeKjHd353YCdUGiaZ+p9/mCSKoeM8G5rxfcIRuAr9u37w/5dtMWgjIAAAACV8iAWSa8JhX0Fc8Y5V6JErsoy1wuyc0SiY2TkNAhkjq8QFI9leMKaKh2V5hNtXiU5EiBFNkMHhsT7bqgwiOcYO3o1E26rFstG0wjAF/3w7YdckTLFgRlAAAABL6eY5dLWu/5km26QWulucC5XCy5OSJx0aHmGBOqU0TSquwuneCpOru2WdLPdXMAAWD7zzulVcvDCcoAAAAIBsVSVGgvOkKiE6VoSYasCU8uG3RNZTlKitxlYsmXNe5ycGicxEXOl5mebtwAAs1vv+2W5s2bEZQBAAAQqLwn3uor2bHzzNhjQ0Nv4XwRd3fp4tLJt5JyEiV1gKZnO555vLbrhF/OfsZUCZuu3bhdx5aOfQYQCPb98Yc0btRIGv3hsG0AAADwA1988YUMHTpUnn76RYmI6GpbUTMaorMkjiWjfMawYVfLJZfEyR133GFbgPr3+dfrpWvnUCrKAAAACDLLdBmnUSITCMkAKkZQBgAAQHDplW4m4vJ0wwaAcgjKAAAAAAB4ISgDAAAAAOCFoAwAAAAAgBeCMgAAAAAAXgjKAAAAAAB4ISgDAAAAAOCFoAwAAAAAgBeCMgAAAAAAXgjKAAAAAAB4ISgDAAAAAOCFoAwAAAAAgJdGfzjsZQAAAPiBL774QoYOHepsybYF8H8LF/5PLrkkTu644w7bAtS/z79eL107hxKUAQAA/I0G5Tvv/IvdAwJH3759CMpoUARlAAAAAAC8uIMyY5QBAAAAAPBCUAYAAAAAwAtBGQAAAAAALwRlAAAAAAC8EJQBAAAAAPBCUAYAAAAAwAtBGQAAAAAAR+NGjWTfH38QlAEAAAAAUM2bN5PffttNUAYAAAAAQLU5sqX8tPNXgjIAAAAAAOqYo1rLLzt3SaM/HLYNAAAAAICgtuPnnQRlAAAAAAC80fUaAAAAAAAvBGUAAAAAALwQlAEAAAAA8EJQBgAAAADAC0EZAAAAAAAvBGUAAAAAALwQlAEAAAAA8EJQBgAAAADAQ+T/ATOMHyd8K01wAAAAAElFTkSuQmCC;" parent="1" vertex="1">
          <mxGeometry x="200" y="-130" width="830.27" height="410" as="geometry" />
        </mxCell>
        <mxCell id="AT_uzg10whJC4qiR5lYj-14" value="Internal Application&amp;nbsp;" style="text;html=1;align=center;verticalAlign=middle;whiteSpace=wrap;rounded=0;" parent="1" vertex="1">
          <mxGeometry x="310" y="-100" width="60" height="30" as="geometry" />
        </mxCell>
        <mxCell id="AT_uzg10whJC4qiR5lYj-16" value="" style="shape=image;verticalLabelPosition=bottom;labelBackgroundColor=default;verticalAlign=top;aspect=fixed;imageAspect=0;image=data:image/png,iVBORw0KGgoAAAANSUhEUgAAAyAAAAHhCAYAAACWW9pQAAAAAXNSR0IArs4c6QAAAARnQU1BAACxjwv8YQUAAAAJcEhZcwAADsMAAA7DAcdvqGQAAMFTSURBVHhe7N0JXBT1+wfwj4oKnuAJXok3pCamKXiUmJp4pJim4PFTUEvNUsi7yzSPQM08KiX/adhh0ilmJVaelYmlgeaBV4IneIKK8p/vM7OwICIqx8J+3q/X+H1mZlmXYXdnnvleRVI0ICIiIiIiygNFjZKIiIiIiCjXMQEhIiIiIqI8wwSEiIiIiIjyDBMQIiIiIiLKM0xAiIiIiIgozzABISIiIiKiPMMEhIiIiIiI8gwTECIiIiIiyjNMQIiIiIiIKM8wASEiIiIiojzDBISIiIiIiPIMExAiIiIiIsozTECIiIiIiCjPMAEhIiIiIqI8wwSEiIiIiIjyDBMQIiIiIiLKM0xACqmkhDgkXDZWLFVyEhLiEpBkrKb61hdFihSRxfdbY5tFM36PZGPVyiRsCUYfF4fUv5mdkysCf7ztr0pEREQkmIBYjAgE1nSCnXERl26xc4JTy26YtiIScdm4rouZ3xx2Dk5wKNscwQeNjZbmcjj8K9vBwckBTsPCb09CCowYBLfUfw8792BtzbpEv90cDu0CEbYvwdiipWNxTnBpYmus3cWRxehWMy15Sbdo72FXT38Er4+22uSOiIioMGICYjGSEHsiLvML8aQ4xO0Mx8xhzeGkJSN9VsRkecEeHRlpRJEI/fYBL4kvRyP8bX909F6csxfXcdHYZlyzJqwI09IvC5KchOj1wfD37IPFd03gorFrpxHuDEXYESO2BnunodsE471Wzw/L/ziM2NjD2LV9EXwd9c13pR3rmBNpyUs6CXGI3hSCQC9X2Nl5YNqWOzzOWtzT+5KIiMhyMQGxRLZuGL1kLdZ+ri+LXvGBZz3THeU4hA2rA9exEbjT5ZjH0AC42GiBox9mDHXWN96n8FGu2kVmCCIO5HAdRW0vBHTVr1Ld5wXASyILsd4Prl6BCNkUnY2aGQ/4jXORyHHoDPjVltAqRCwxanxsfbD2j+Xwa+EMR0dnuLV2QTbrP9Kr7Y2glab3fSiCxnnBzd7Yl7wdM9s5o+OyaGODFbqn9yUREZHlYgJiier5IuB5b3j31ZfR00Ox8UAi4jcHwdO4IIt5tyP6LIvTVzKw7xCEqBspSIldDi/TBZylsXGBX3gsUlJSsM24gC+Y7OE5L0p+j9gPvbQ1axGN7ZuMy+ABvvDOiV+8nR8CBpne9z4ImLcOu+ITcfhzP+hpdAIiRnhgzBZZISIiogKKCUgBYt82ABu3B8HNWI8YMRqrLb2jORVSMYjap0cu9R+sli1rtnDuuxy7vvExkrsELB40TUt/iIiIqKBiAlLQNApA6CumC74wLFqRVgsS87Zrho68vgg39qVKjkPE275o7mSX+jg7p+bo9upiROxLa9hheq5uq4wNewNRJ/V5taVJhg7XB4PhauxzfVvbk5yA7e9q/4+D6Wfs4Pqm6i8QDl/Tc5g//k5Mrzf1eYrAwaUjAldEIiHTjskxCG5iPDbjazSTdqxc0zrqm36HnquNDdEIrG88V8bHmv8/pmXwbUc7VcKWxfD3dIVDcdPj7eCU1e9hei3uiyF/4bPbsXiw6gOU9vN1PAMRdvBBG+MkIWbNNHRraTYAQnEHOLX0RfD6TPoapf6duyH1KE0xe99lcQwehH2PECzubawcCcbiTUac0W3HSR+Vq+P4EESeNR6TTvr3S/SJCEzzNvs7ZXUsTJLiELkiwzHUFoeazeH7djhi7vSD2f3M3NP7MoP7Ph4eWHxCW1Wfv1f7oI7Z+04dj8Wm/jjaa45cEYiO5qOg1dfe12uy7qemv+/S/9xdj3WefSaIiCjXpZCFWJfio/051J8EjYNSDhtbM3UgKMXF9NgOy1Nijc2H57ro21IXH+1ZzdyISglqYb4/w2I7OmWb8dDbnyvDkvE1mr0ml7nbUtYNss/wM84pU/eoB5r9nsbiMjfDb/uNT7r9d1zqjU7ZGG/8TKrDKUGNjf1ZHMe0388lJeiAsdH8uGa6mD3W/P8xLYPSHW3djdiU0L6O6R+Xccns90h9Ldpxi9COmX2Gn0ldHFP8whONH7pH8dtSprbO7DnTFvtOy1OibhiPV+52jDI7Blkxf767/azZ+8L2BdM7NU3UB14pjqbnynTRjlVYxgNt9ne0tU+xv+1n0pbbjoWSuC7Fzzbzx6cu9trn8Lb3qSa7n5l7el+medDj4Tw5NMvvC7e5a1OCsnj/OA5fl5LpOzN+Y0pAo8x/JnVpHZQSlfGH8+IzQUREeYIJiMW4hwRESxNGp170+KUlGZfiU2JjY1O2TTZdXKdPQGIXuhvb1cXU1JS1fxzWHn84ZdfnU1O8a2jbzS8AjecK7Wv8P42mpmzT1tU2Wc5kOMGbXSTZ2usXUs5Dl6fsitEeu2ddytRXQo1EKTElXp4jNMXbeHzWCYhjivs443lidqWsWxKQ4u5o2qct9lrSlO6i8AESkBvGa1vpnbpv6nb1Wk1LfEqi2f+VeEZt0y7iTRdTt11AJ6asG2p2UdnIL2VRRJQ81+E/1qZM7WqWmLS4c0Ini41Lis/cdSlR6nVox2H5cLMEsfbUlCjjx7JPO05mF5eOXU3vh9iUqIhFKX5mF4j2Q80uJE3HyOzvh77a31a2aUv8PV74mf+ed0tAYpeneJoem+F4xX7omfp64eiVMvXzXSmHjWO1dq5PiouNsQ/2KaM3Gz8kMiSS5j+7Z2NKaLqfzXAsDNte0P7GNo4pnuMWpawzjqH62UXmfyOzGwWpsvuZucf3pZJjx0P7/Hm9YrzvMv5OxqLeO+v2qNcRlbJxiV+Kc+o+000HMze2pQSYfX5dhi9K2Sg/q7/vAtqafSYyHrNc/0wQEVFeYQJiMe4lATG/SMhQy6FJu7hOv2/dINPPeKWEXjI2mtzQEo4zRmwm9Wfu9poyXBy4zb3b6T/t980qAfEJM7aZU7UKvdMu7J0n7zJ2KA+QgJik/v+Z31lOz+z/y3gBvXl02h117YL5trvnKfHp7np7rza7tDU/ni205C+TO+gbn7c1ftYlZUa0sTGbYj9Iu0C11173bU+frrYskwtJ8/fr3RKHrNxLAnKnz8jx9InJ7cdZc2Ztio8paW+9yOzC1uzv12hG5j8br100p37eMjkW8YdTojL57Ci7JjsbP5fJe+lePzPZfV/m1PGAW8qMPbcnlNteTksSMnvvxIf5pNga+x3TfTaNZE322af4fJNZtVBiStR002fTNmV0hLFZyeXPBBER5R32AbEiDvamwVF3YddeIzSxsYdjJSN+ULWnIiSnRrZSwwlnZOMIn5Wh0C6gRMysIIRb4ER14R8sNoZKdkHQJ8bQyOnYw2vJYngba2HLQvW27Rm49PODeyajTHn28DWiaEQdMMJsiUHoQmPmFVsfhC7JZPQuGxcErJhqjD4Vg+APtktkiaI/mGnMI+OORV9mdpw1lbwRPNddj3csRmhmfSZsbGGb2c/auyNo4WhjaOEYhKw2zbNjsHeGyx0+O26D/bS/vhKNXVn1nM/Bz0yOHY/GvvBpfPuAyu7ttPTG4NX39veOfW9fmN6ZcSdijUhzeTWC3tU/EbbPr0Voj0ze1NpRdpm8CKPlv03C4hWZ9ynK+c8EERHlJSYgVsRdO2nr5+w4BHftiOBcmtjNtkc3uGV20ZOTynghcJxptrswhO8wQouxHeFrjLCRL7zqGXFGZTzh1cGIN23XUsN7UN/FuLgFIvdl0ZE/o7gIhJsS0N594FXGiDNq3A1exvVn0vZt2qW3JYpE6DLjlXXwQ58aepgZR3dP6O+YuyQDmenglXZR/WNEJsciCXE7QzCtZ/oO3w49FqU+Nqu/Uc59ZvLoeGRJe182NkIzSd+Gap9UxRZ+PmlJzG1sPODRyYgjo+/tfXe/nwkiIspTTEAKpDjEpN6xtDPKbGi7CNvmGXc9EyIQ2M4BRWqqEWuikZSDNQjONU2JQe5ya2m6iElCfLwRWorLMWmjH7V0S70oup0jnFIvEnchOi9mUj8RgygjdHEzDeqcGUc4mxKnndHaZWo+i4tNqyFKvTEfixjTxk3+cDIu/DNdWs7MtIYpe8wuqk/Ep58ENGE7gjs7wamlP2Z+G4k4s0GYEg7GZT6iUwY595nJq+Nx72K1950uCYvbZfJ6Uhc7+H5rPJSIiAolJiAFUVwUok1XNS3S7vhlh8u4bTKhobfpovdEBIL7ucKuZjeEGPM6FBi5XcvyILSL5Xu//6r9UfOiKVlszH1ceCYaZT46GIltRogmLnrzsIPRyNAgKlvsHuS9ExejXeYbkqMR3MkDgT8aKUkjHwSt3Iio2FjExkZh40Ifo5Yhj+TH8cim6D33kcLe3gKMiIgKASYgBVDSpjCjjbd2fnb3MNrpZ5+a0HDt8UTE/rEcfo2MjXHh8HfpiBA19j89uNrOqRNGZp8T7O/UHCon1Xe9p6RV2DrAwQjzS2T42tTaBE/35nrg6JT2/h+0Tmakz86yvKvxM/fD0Vn7S+nilvohcKceO7+wEfHRoQgY5AkXR0c4OrrAs2vzvD1u+XE8ssmphikVc0HQgcxfx23LHwH3/P1GRESWjwlIgRODxW+ZOmbawq+f0aTqntnCsYUflkfHY9vk1LnVMWau5XY2zih6r+lerwtc6xuhpbBxgoPp7m10Vu3YY9Rug3Zhmxe3y+0dUy+go9P+80xEa8fYCBs75+2d/IwuhyNovqnexhM+PYxXU8YZzqbjfMKsiVZOS45MG7jBxZSAxCB0pfF5cQxA6DzP2zvz57W8Oh73wcnZ1Yhi0pqJERGRVWICUsBEv90HgakXhTMQ0NaI75s93KdPg4+xdsfOxnstoA9AOnGI+MZ4Rbae8DTV5MAO9pWN8GyGtvpm4s5kp9OI9jvf90g6bvAw3VXeuRbhd6pZOhGOtcYddPTQfg8jzFWOHnCvbcSfhCPiTs2+NoUj1AgdO3nm453oBISP8sVqo/rDdlAAfFOzIXd49TXCTcGZj+aUAxLWhKTO/O7S1dR5W2OqktGOj3ueNQnM6n2ZN8fjfjh28DJq3pIQ8kF46qEjIiLrwwSkwEjA9rc7wmOC6a6/M6auuNfmCTGIWB9z+4k/KSntQt3JKfXuuEi9qIrAtoxD9+aFO1wcR7/thTHGyFcu0wO0yy4TR7iahg6NW512cW8mYcc0jH47i1uwNmkd+yO232/aZQufF0xDt27HtCnhtydDyQkImxCo7VW0xw/3Nh6f21wwZrxxxJIWI3B+Jr9jUjRmjl1svFdcEDjs3huU5YjkOIQNa45uq0xHzwshC73SHSevsabhgqMROGBmWv+ojE7EIO5++ticDcPoUaZaR08EDDD71JleyOZtmSToWuL0VlDOJe7ZfF/m+vG4X/X8MK2HHiat8oXfl3e6PZCAmIN32kdERIUBExBLdDAcIavCELZGLasRPL4bmts5aMlHhHERaw/v1dswo4WsZN+mYHTzqgO7mn0wbU0kYuLiELc3HNO8R8N0eeXeyTP9xd2gtPkPZnbqhmnroxGn/Vz0psWYtux+urvem9XeTvAYH4LII9prjYtB5HrtgrmdE1xNiViLIKwdlz4NSxtuWHvN7q7wX2H6XSOweIQrHNxnZt1Rt5OPMQ+B9gxveqLbq+GINv38q9pr0XfdXYcZWDtIfyUJq7rBpV0gFm/Sj1/MzhD4N3FAn0+Mq8MeIVjcw/zI5y7H50MQZLx/Iie4wnVwMMJ2ahek6m+7fhq6ObtimpFwOk8ORcCdhhHOSZtDsVje82rR3l8+HeFk54Q+K0x1cm6Yuj0UPhnbObWYgXVzjQRp5zS4lnWF79thxntGvVe1z9Dg5tr7vg48384iHdgbCA+vaanHQf7e4z3gVLkPVhvXw25zF8EvddQyZ/gONhK5IzPhqf1s+F7j/1wfDF8XB3RbkZboxsc/4EV1dt+XOXU8cpw9fFauM/5+Cdpn2wFOZp+JuCORCF8aiI41HVCnyWiEMQchIiq8UshCmM3ynNXi6JUStD2zGYTT3Gkm9G0vmGYJvsPS+u6zdadbOixPm0HZbJbi22Y2z1Q2ZkK3sU2dUTnTpd7olI2ZHgrtNQ9Nm635tkX7Pde+lcVM6Jp47TVo10npf04Wz5TladNGa7KYCV1RM4q3Nv/5TBZ13DNOOJ2d43nPxzyD+HUpfo5mryOTxXHo2pT4zGbSzo2Z0LNaGvmlrD1u/Eym4lO2veKe+c+aL820Y238hM585u+sF+cXNt5lxvjbF8ehoSnLBxmfO1uflLXmM6bfx98v++/LHDge5rPNm0udkR0pPt8Y29K5y2fieGiK913ed1qKnOKXcab0vPhMEBFRnmANSAFgX8MFngOmYvkfsUiMXYeA1hlvAWeP+9wY7PpwKrxaOKar5bBv5ImAD3chfvMdZuv+MAbb5nqndW7V2Do6wqWSXS4OzmoPn7BYxB9Yh6BBbrBPfV2q87wXpn4ehcToRfDM9FDor/nw5wHwbJT2ANt62u/5+WEkbg+466Rv9j1CEaOGK66X7peGo/Z8dndq0pIZNaP49kQcDg+CT7rjrn4PHwSF66/HxfwPklfsvbD8eLz2nkh/nNSs+C4dArA8Mh6xH3qbHfu8pB2fGm7wGheEddGJSIlenjZ0dKZUX6ZtSDywFlN7uMEx3RvcEW49jM9PpHasjc23aRyAtRmPhfY3Nx2Lwwsz6WQuf99YrB3nmfb5kOPnh0Wb1fHzgd8Hu7BcvYeTV6PP+Mxn9s6u7L8vc+B45JYaPlirve+2LfRLf6zV31z7LvKbuw5Rl2KxPNOZ0omIqDAoorIQIyYisjIxCG5SRx/YoXEQDu/hsK9ERES5jTUgRERERESUZ5iAEBERERFRnmECQkREREREeYYJCBERERER5RkmIERERERElGc4ChYREREREeUZ1oAQEREREVGeYQJCRERERER5hgkIERERERHlGSYgRERERESUZ5iAEBERERFRnmECQkREREREeYYJCBERERER5RnOA0JEIikpCVeuXMHVq1clVsv169dx48YNJCcn49atW7IoRYoUQbFixWQpXrw4SpQogZIlS8LW1halSpWSpXTp0vJYIiIiInNMQIgKIZU8/Pfffzh58iTi4uJw6tQpnD59GmfOnMG5c+dkiY+PR0JCAi5cuIBLly5JopGTihYtirJly6JcuXKwt7eHg4MDKlSogIoVK6Jy5cqyVK1aFY6OjnByckL16tVRvnx546eJiIiosGICQlQAqRqJgwcP4tChQzh8+DBiYmJw5MgRHDt2TBaVaBREKlmpWbMmatWqhdq1a8tSp04d1K1bF/Xq1ZOEhoiIiAo2JiBEFkw1idq7dy/++ecfREdHY9++fdi/fz8OHDhgPOLuTM2jTKWpyZQq1WJjY5O6mJpVqUXVYJgW1eRK2blzp5SNGjVCmTJloL4+VLMsU3nz5s3URSVJpkXVrpgW1axLLdeuXUtdskvVkjRs2FD+fxcXF7i6uqJx48aoUqWK8QgiIiKydExAiCxEbGwsdu3ahcjISPz111/4+++/8e+//xp7M6eSA1OfC7XY2dnJovpimBb1GKVMmWKwty8OBweb1LJUKdWHo4iWkBQ1yiJaWTS1TB8XQevWq+S55s9fqiUCrloicU0WUyKR+XpSunXVPOzcudM4f/68PJdi6nOilsTERFlUXxRVqiRMJTFZqVatGpo2bYpmzZrJ4ubmhgYNGhh7iYiIyJIwASHKB+pCe8eOHfj9999lUTULR48eNfbeTiUSqvmR6titah7UomI94SiKGjVsUblycSOxUKXNbaVKJB6E+qZwclomsUpAunfvLfH9UknFuXOqT8oZnD2rLxnXVcKiqORFJSJquXz5spSq34oq70T1N2nRogVatmyJVq1aycKaEiIiovzHBIQoD6g+GVu2bJFl27ZtknxkRjV1Uv0gVGdsUwduVaomU5UqldASjZKoXr2kJBx6rCceeSGnE5DsuHjxgpGYnNbKs6nJyZEjh3D6dJw09VKJiFouXrwoi+pUf6caE9Vky8PDA23atEHbtm2lXwkRERHlLSYgRLlAXRBv2rRJll9++UWaVWVGJRdqhCi1qKRDLY6OJVG3rp2RZNimJhylSuXvtD35kYBkRSUbKhFRS0yMXp46FSv7VC2JaYQvVaoRvzKjOrg//vjjeOKJJ9ChQwfpAE9ERES5iwkIUQ757bff8OOPP+Knn36SpCMjVbuhmgWZhqNVSUepUiXRoEEpNGxYWlv0slKlvKnRuFeWloBk5vLlS5KMmBIStcTFnZRO8ioJUYvqe6KWzIYdVv1InnzySXTq1AmdO3dO7T9DREREOYcJCNF9Uv0PwsPDsX79enz//ffSiTwjNeeFWkzzX1StWjJdsqFKY4Api1cQEpDMqKTkyJHDqQmJSk5iY/+T2hHTnChqydhsS/W76dKlC7p27QovLy/WjhAREeUQJiBE90AlGd988w2+++47WTJSncPVBHuVKlWSpXbt0mjevCwaNVLJRuk866+RGwpqApKZkydPYM+eSG3ZLaWqDVG1Iqqfieqvk1mTLXd3d+137o6ePXvK0L9ERER0f5iAEN2FmlE8LCwMX331FSIiIoytadTISirpUGWZMirhKCdJhypVR/HCojAlIOZu3UoxkhE9ITl+/AjUPCUqEVGzx6slY3OtRx55BL169ULv3r0lJiIiouxjAkKUCXUHfM2aNfjiiy+kX4c5NWFf1apVZVFJR7VqpSTZePRRlXSoEasKZ7+BwpqAZKRG1zLVjKgyMfGq1IycOnVKFjU/iTk150ifPn3Qt29fzj1CRESUDUxAiMyohOOzzz6T0pyaMdzJySk18WjcuExqLYcascoaWEsCklFU1N9GQrIbhw8fkOQ0Li5OlozzkLRv3x79+/eXRQ02QERERLdjAkJW748//kBoaChWr14tzW5MihUrJkmHKfFo2rQs2rWzR5s29ihbtpjxKOthrQmIufPnz+HPP3/Dtm2/Yv/+fyQZUf2C1KJmbTc3YMAA+Pj4SL8RIiIiSsMEhKySunO9cuVKWTJOCqiSjWrVqslSu7adlnQ4oG1be5mPw5oxAUnvxIljkohs3/6rzD+ikteTJ0/KoiZINFFzjQwaNAiDBw+WmIiIyNoxASGr8vvvv2PFihX4v//7PyQlJRlbITOOV69eXRZHxzKSdKjaDheX0sYjiAnInanmWSoRUQlJUlKiJCFq8ALzGjVFdVwfOnSojKRFRERkrZiAkFVQTayWL1+On3/+2diivfmLFJG5HWrUqIFKlSpKLUf79g5o1aqc8QgyxwTk7tRcIqZE5K+//pQZ2VUicvz48XQJb6NGjeDn5wd/f3+ZkJKIiMiaMAGhQkuNXPT+++/jgw8+wLFjx4ytQPny5VMTj6ZNy6NjxwpS42Fnx1mvs8IE5N6cOXNakhG1HD0aI/1EVCKihvU1UYMbjBgxAiNHjkSTJk2MrURERIUbExAqdKKiorBkyRIsXboUt27dMrZC+nSoxEPN2fH44w546qlKaNyYTayyiwnI/TtwYF9qzch//52QhFgt5n1F1Jwizz//PDp16mRsISIiKpyYgFChsXXrVixatAiffvqpsUWfs+Ohhx6SpWrVclrSURFdulTU4hLGIyi7mIA8ODXp4Y8/rpPl+PGjkoQcPXpUmmqZtGvXDmPGjEG/fv2MLURERIULExAq8H744QcsXLgQ69atM7YAZcqUSU086tUrLbUdKvkoUsR4AN0zJiA5a+vWXyQR+fffaGmedeTIEZw7d87YCzRr1gxjx46VTutERESFCRMQKrBUwjF//nxs3LjR2AKZ/K127doymlXr1uWltqNFC3YqzwlMQHKH6qz+ww/rEBn5hyQgMTExMsmhieqw/tJLL0k/ESIiosKACQgVOOvXr0dQUBAiIiKMLUClSpXg7OwMR8eq2oVxZantqFXL1thLOYEJSO46dOhfSUQ2b47AhQsXJBE5ceKEsRdo0KABAgICpNM6ERFRQcYEhAoMlXDMnTsXGzZsMLZAOpSryd1U+fTTldG7d1VUrGhj7KWcxAQkb8TFxab2E1EzratExHwUt4cffhgvv/wyhgwZYmwhIiIqWJiAkMXbuXMnZs2ahbCwMGNL+sSjW7dK8PaugipV2LE8NzEByVuXL1+SGhGViJw4cRyHDx+WYXxNWrZsiUmTJmnvfW9jCxERUcHABIQslrrz+9Zbb8kEgiYVKlRAvXr1tGSjivTvUIlHtWoljb2Um5iA5B+ViKxf/zUOHNiPQ4cOyeSGJp07d8aUKVPw+OOPG1uIiIgsGxMQsjjXrl3Dm2++iZkzZxpb9MkD69atK3N5qIkD+/Spipo1mXjkJSYg+e/rr9fgyy8/xalTp3Dw4EEpTQYOHIhXXnlF+ooQERFZMiYgZFHUzOXTp0/HyZMnZb1YsWIypK67uzuefLIKvL0rw9nZTvZR3mICYhkSEhIkCVFNs9Ss6ioROX/+vLEXmDx5Ml577TWULMkEnYiILFNRoyTKVz/99BPatm2L5557TpKPIkWKpDa1srW1RatWNxEQUIvJB1k9e3t7DB36HGbOXAAvr57w8PDAI488glKlSsl+1V9K1RaaN10kIiKyJKwBoXylkg3VbOTDDz80tgC1atVC/fr1UadOY9y8aYN16z6W7Vu29NWSEnuJKe+xBsQy7dr1O8LCPsXhwwdw4MAB/Pvvv9rfSv9a79ChgzRnbNOmjawTERFZAiYglG8WLFiAqVOn4urVq7JesWJFab/u6FgNnp6+2kWTfoH77LMuuHgxHs88Ux+LFj0h2yjvMQGxbD/9tB5fffWZjJilkhDzOUTUjOqqT5VqzkhERJTf2ASL8tzmzZuludW4ceMk+ShRogSaNGki/Tw6dx6Al176IDX5UJ5+epiUX3xxANu3x0pMROk9+WRXLalfDl/fYWjWrBlatWolzbWUhQsXomHDhvjoo49knYiIKD+xBoTyTHJyMiZOnIh58+YZW4DatWvLhVHduo9IrUedOk2NPekNG9YKsbFH8fjjNfDZZ12NrZSXWANScJw5c1qaZf3yy48yf8i+fftw69Yt2derVy/MmTOHo2UREVG+Kfa6xoiJcs2XX34pFz7r1q2TdXVn1s3NDa6uTeHlNRw9eoyCg0NV2ZeZkiVt8dtvP+Lo0YtawlJBWxyMPZSXgoN3SfnUU921C1gXicnylC5dGi1atELjxm5a4pGM4sWL4fr167h06ZIkI0uWLJHmWKoDOxERUV5jEyzKVRcvXsSIESNktmY1XKjSqFEjaYLl5fU/aW712GNesj0rTz01SLvg1WtHFiyIlJKIstawoQumTHkTw4ePkYS/efPmMlqWqg0JDAxEx44dERnJzxMREeUtJiCUa7744gs0btwYy5bpzXbUkLpqtmZPzx5aUhKEbt1GwNa2tOzLjoEDJ0r5zz/nsGJFlMREdHfduvXG7NnvonNnL/kMqqaPSkREhCQlqkkWERFRXmECQjkuKSlJ5vPo27cvjh8/jqJFi0oi8thjj6FnzxHw95+LGjUaGo/OvpYtO+LRRx+XWNWC3Liht2knorurVau21IYMGuSf+nk0jYo1adIkdOrUSUvu/5F1IiKi3MQEhHLU999/L5OiqRnNlapVq8odVw+PJ+HnNxsdOvjI9vs1fPgbMknhqVNXMX8+m44Q3avu3b0xa9a78PTsJJ9NZ2dn2a4mA23atCkWLVok60RERLmFCQjlmClTpqBr164yB4Hy8MMPo2XLlujSZQiee24+HnroYdn+IB56qJF24aSPvqRqQU6evCIxEWXfQw+p2pAZ8PEZmvo5NfUNeeGFF9CvXz+cPn3aeDQREVHOYgJCD2zv3r1yJ3XWrFmyXqFCBbRv3x6tWj2OIUPeROfOQ2R7Thkz5m3tYqm0drGUwg7pRA+gR48+2ud2YWptSM2aNWX7mjVrZC4RNXodERFRTmMCQg8kJCREOrH++uuvsl6/fn0Z2rNz54EYPXoR6tZtJttzkuq43rXrQIlXrozG33+flZiI7t1DDzlj6tSZMoGhaj6pEg8bGxvExsbK6HVq7h4iIqKcxASE7tvIkSPh7++PGzduSPMN1anV3f0J7ULmFZnbQ/XVyC3+/m+gUiV93hDWghA9uJ49n8GsWe/ISFnt2rVD5cqVZfvcuXPh6emZ2rSSiIjoQTEBoXu2a9cutGjRAh988IGsV6tWTS5YvLwGS61Hw4aPyfbc1rv3SCnDw48gIuK4xER0/x56qA6mTZsJP79RaNWqldRoKps2bZLP/KeffirrRERED4IJCN2TFStWSE3Hn3/+Keuurq7SBMvbeyx69hyN4sVLyPa84O09SrtgaiAxR8QiyjmqNmTSpOlo3dpdOqiXLFlSZlEfMGAAJk+ebDyKiIjo/jABoWwbP348hg0bhps3b6J06dJwd3fXkpF28PObo12k3H0289wwYMBLUv7xxyl89hmbiBDllKZN3TB9ejCefLKL1HCqiUSV2bNno3v37jh16pSsExER3SsmIHRXqjPqU089hfnz58u6k5MT2rZti/bte2LEiGA89JCrbM8Pjz/ujcaN9SZfBaYvyM0b2Pre7+jbYT1atNAWj58wbPYpnLtp7FeuX8bnL/8MD7W/w1Ys2HnD2KFcw9fPbcCEDebbiHJexYqVMHnym+jVq5/UfNarV0+2r1u3Dq1bt8bPP/8s60RERPeCCQhlSV1gqJqODRs2yHqDBg3w6KOPokuX/+HZZyfJiFT5bejQqVLGxFzE4sV/S2y5bmHr7M14cfk5xFwyNl2/gb+/2IUuk07CtOmPeTuwtIQLNvzWFZteLYP1Lx/AH0aCcmnDP3jzYgO81KW4voEolw0ePBz+/mPQqFEjuLm5oWjRojhy5Ag6dOiA9957z3gUERFR9jABoTtavny5XGAcPXoUxYoVk74ejzzyKPr3n4InnuhvPCr/ubq2Qps2XSRWtSAXLlyX2CKdO4mPv7wGlK2KV77sgp07u2Lb6gZoWEzbt+kEIs6pByVg04YbaNOlKspq28t2qIaWl+Kx/6S262YCls67iGHTnFFNPZQoj3h6dsFrr81FixaPSQ1ouXLlZPvzzz+PwMBAiYmIiLKDCQhlSs1qPnz4cInVhUabNm3g4dEZI0cGaxf87rLdkjz33CzY2BTHpUvXLbsp1tUbuKjKdjXxdE3941eiQV2MkvzpBi5dVWVRlCmrytvFrPwH61s9DP/8a/VGVqxhQxdMnx6kJSOdJQlRI+ApwcHBMmfIlStXZJ2IiCgrTEAonZSUFPj4+KTOau7o6CjJR6dOPhg2bBYqVHCS7ZamUqVq6Nz5WYmXLv0bhw5dkNji1HRAy4paueFffHxE36RqNf7YrZUVK6KpTERdBo20BGPrhlO4dBO49NNJbC3rgIbFTmDuMjtMfLky8m6sMaL0Spcug/Hjp2oJR3+pFTX1C1GzpqvO6lFRUbJORER0J0xAKNXx48fRvn17fPLJJ7Jet25dGfu/d++x6NZNn3PDkr3wQhDKlXOQ2HKH5bWH39QaqIiLWPBsBF5ceQZfv7ELH58siaem1kVTeUxReE59DE8f34MOrdajy+Kb8FvojEuL9+Hicy546g61I0R5qV+/QRg9OhBNmjRF06b6OzcyMlK+Q3744QdZJyIiykyRFHXLm6ze77//jv79+yMmJkbWGzdujAYNGmkXGRO1soVsKwg+/nguQkPnSfzVVz3QurWjxBbl5g1EzNyMCd9cMzYAzkPbIHR0uTvXbOyOQpc3bLDwC6O/SD5Q3xROTssknj9/Kbp37y0xWbejRw/j/fcXYufO3yQBuXZNf1//3//9H4YMGSIxERGROdaAEL799ls88cQTknyo0W1UrUfz5u4YOnRWgUo+lIEDJ2gXybUktsy+IDew9Q2VfABtxrpjwxfN0a9uUcSs2Arft8+ljoKVzs3L+HDuSbQcVy/fkg+iO1Gzp6t+Ib169ZUR88qXLy/b//e//2HOnDkSExERmWMCYuU+/PBD9OzZE4mJiShVqhQ8PDzQsuUTWvLxFqpX19t2FzR9+46W8uefT+C77/QaHUtx/dcoTAu/hmpDW+CdwfaoWLsqJnzmiXe8SiLms0jM+fWW8cg0576JwvJyjTCu9dUs5gYhyj82NjYYNWo8nnlmgCQhpkkLJ02axBGyiIjoNkxArFhQUBD8/Pwktre3l4nF3N2fkuSjfPlKsr0g6tp1COrXbyKxpdWC/LFZzfVRBr266UOY6oqjTf8aqIYb+H6zjMOb5uoZzF94A6Om1sDhLOYGIbIEgwePQN++vjJpYc2aMqKCjJA1bNgwiYmIiBQmIFZq2rRpePnllyVWdyvVXcv27b0xYMBUGc62oBs0aIKUe/eew//9nwWNyiPN46/h7FlZS3M1WW9+ldYtRPy9eA/+8HoYA2tmMTcIkQXp23cgfHyG4pFHHpGBLJQVK1bIML3sckhERAoTECv04osvYubMmRJXr15d7lZ6evqiZ0+96VJh0LJlJzz6aHuJ1YhYN25YxoWPcz1V83EDn8+OwtZzenOr60dOYMLUo5KANG1qVjNyPAZzwivi1dH22sqd5wYhsjTdu3vDz280XFxcZPZ0RQ3T26lTJ1y8KDPhEBGRFWMCYmX8/f2xcOFCiWvXrg03NzcZYrdjR1/ZVpj4+78u5alTV7FgwS6J81u1px5CS9WR/MhRvNhlA1q0WA+PZ/boM6BXrAE/r5LyOFUV8vXMf1FubCO0KaXW7zA3CKdDJwvVseNTGDPmZZknRI2qp2zcuBFdunRBXFycrBMRkXViAmJFBg4ciJCQEIlV04gmTZrIMLutWnWXbYVN7dqu8PTUh4pVfUFiY2Wa8fxVpQaWftscA1uVkaZUokRxNPVyxYdfNDGSDdVZfR8WXKyHCT1NCUlmc4PU15MZIgvl4dEeL7/8GurXb4BmzZrJth07duCpp57C0aNHZZ2IiKwP5wGxEn379sUXX3whcYMGDfDww020hORVODvrE4gVVomJl+Hr21Qrr2LIEBfMmdPW2EP3ivOA0P3aty8KCxa8hf379+HPP/+Ubap51jfffJM6kzoREVkP1oBYAdX505R8qPbY1pJ8KHZ2ZdC160CJP/ooGnv2ZBhliohyXaNGrpg8eQaaNWuOli1byrbo6Gh4eXlpScl+WSciIuvBBKSQ6927t3T+VFxdXeHi8rDVJB8mw4dPR8WKVSW2lL4gRNbmoYdqY8qUGWjVykNbWqFIkSI4cOAAunXrxiSEiMjKMAEpxFTNx1dffSWxSj4aNnSxuuTDpHfvEVKuW3cEmzadkJiI8lblylW0JORNtG/vKUlI0aJFcejQIXTv3l2SESIisg5MQAop1efDvOZDTz5es8rkQ+nTZzRq1aov8fz5rAUhyi9lypSVJKRLl24yBLhKQg4ePIiePXsiJibGeBQRERVmTEAKITXalanPR/rkQ58d3FoNGPCSlL//fgqff867rUT5pVixYggImIYnnnhS+oSo5lj79u3D008/jZMnObsmEVFhxwSkkFHzfISGhkqsOpw3auSCQYOYfChPPNEHjRvrHWDVsLxElL/GjZuM1q3bpHZM37NnD3r16oWEhARZJyKiwokJSCGiZjg3zfOhhtp1dVUdzl9D7dpMPkyGDJkq5eHDF7BkyR6JiSh/2NmVwksvTZbRsVq0aCHb/vjjDxk8Izk5WdaJiKjwYQJSSEybNi11hnM1yWDjxk2ZfGSicePW8PDoIrEaEevixesSE1H+qFixkiQhLi6ucHNzk20///yzDKJBRESFExOQQiAoKAgzZ86UuHbt2tLvQ412xeQjcyNHvgUbm+KSfCxYsNvYSkT5pUaNWpKEqJsnTZro31vffvstBg8eLDERERUuTEAKuA8//BAvv/yyxNWrV0fjxo3Rr99EJh9ZqFKlOjp16ivxkiV/4dChCxITUf6pX7+RJCEPPfSQzJKurFq1StumDx5BRESFBxOQAkzdIfTz85O4SpUq0nyhe/fn8fDDbWQb3dnYsfNQtqy9xKwFIbIMTZs2x4svTpSakHr16sm2d955BzNmzJCYiIgKByYgBdTvv/+OZ599VmJ7e3s8+uijeOKJ/njsMS/ZRnfXo8f/pFyz5l/89tspiYkof7Vq1RYjRoyVUfxq1aol21555RUsW7ZMYiIiKviYgBRAx48fR//+/ZGYmIhSpUqhefPmaN26Gzw9fY1HUHYMGjQJjo41JeawvESW44knOmmfT380bdpU+4w6yrYRI0bgu+++k5iIiAo2JiAFTEpKCnx8fGTGYDWDsEo+Hn20I3r0GG08gu5F375jpNy06TjWrTsiMRHlv65dn8Yzz/jId5yq5VUGDBiAyEjeLCAiKuiYgBQwvr6+2LJli8TqxNykiTv69Zsg63TvvLyGoF69xhKrYXmJyHJ4ew9A9+7e8l1na2uLy5cvy3fguXPnjEcQEVFBxASkAJkyZQo++eQTidVoV66ubnj22QkoVsxGttH9GTRIT+D27DmHjz6KlpiILMPAgX7o1q2XJCFKdHS0tm2gxEREVDAxASkgli9fjlmzZkmsRohp0MBFaj7Klask2+j+PfZYZ+3ipp3Eqi9IcnKKxERkGYYPfwHu7u1SJyr8/vvvMXo0m50SERVUTEAKADUr8PDhwyVWHTLVGPnPPjsR1arpw1TSg/P3f13K2Ngr7JBOZIFGjnwRDRs20paGsr5kyRLMnz9fYiIiKliYgFi42NhY/O9/+nCx5cqVkzuATz89BvXrPyrbKGc4Oz+MDh16SawSkLi4qxITkWVwdHTCiBEvat999VGzpj563fjx4xEeHi4xEREVHExALNzQoUNx9OhRFCtWDM2aNYOHx9N49NEuxl7KSaNHz4WtbSkkJ99iLQiRBWrRohWefXYwHnnkETg4OMg29R2pRgUkIqKCgwmIBVN39zZs2CCxOuE2beqBbt1GyjrlvNKly8HLS59L5f/+Lwp793KkHSJL8/TTfdGmzRNyQ6Z48eI4ffo0hg0bZuwlIqKCgAmIhVqxYkVq++YGDRqgbt2G6NVrrKxT7hk+/E1UqFBFYtaCEFkm1R/k4YebyI0ZRfWTe+GFFyQmIiLLxwTEAu3atSu107mTk5MkIE8//YJ2Yewk2yh39e6tH/vvvovRLmz+k5iILIeNjY30B6lRo0Zqp/RFixbJaIFERGT5mIBYoBEjRuDmzZsoXbo0mjZtCk9PX7i6uht7Kbc988wLqFVLH2GMkxMSWabatetITYjqlF6tWjXZpr471Q0cIiKybExALMzIkSPx559/SqySj2bNnsATT/SXdco7/fu/JOWOHXFYs+agxERkWVRfkKef7iffleqGTUpKinyHEhGRZWMCYkFU84EPPvhAYldXVzRs2FSaXlHe69DhGTz8cAuJWQtCZLmefXYQWrVqI0mIsnPnTowaNUpiIiKyTExALMTevXtTT5qqOUGdOnW05GMsbG1LyzbKe0OGTJHy0KELWLp0j8REZHlGjnxJOqWrSVqVpUuX4qOPPpKYiIgsDxMQCzF69GjcuHEDpUqVQpMmTdC9+/N46CFXYy/lhyZNPODu3lliNSLWpUs3JCYiy1KmTBnpD1K3bl0ZuENR36kHDhyQmIiILAsTEAswZcoU/PrrrxI3btxYu+jtgcce85J1yl/PPTdTRty5cOEah+UlsmANG7rCz2+0fIfa2triypUrGDNmjLGXiIgsCROQfPb9999j1qxZEqvRXBo1aoquXf1lnfJflSo10alTX4kXL/4Lhw9flJiILE/Hjk+hbdsOkoQoP/zwA2bOnCkxERFZDiYg+SgpKQkvvviixBUqVJDx7FXyUbx4SdlGlmHs2PkoW7a8xO+8w1oQIks2aJAfateuLf3olGnTpmHr1q0SExGRZWACko9eeukl/PvvvxKrO3atW/fQkpBWsk6WpXv3/0n52Wf/4vffT0lMRJanUqUqGDjQX0YSLF9ev3FgutFDRESWgQlIPvniiy/w/vvvS/zwww+jbt2H0bWrPgM3WZ7BgyfD0bGmxOwLQmTZPD274LHHPOS7VVFzK02aNEliIiLKf0xA8sHFixcxfvx4iatWrQpnZ2d4eQ1HkSJFZBtZpmee0YdJjog4jvDwIxITkWUaNMgf1apVR4MGDWR9zpw52mc3QmIiIspfTEDyQUBAAI4fP46iRYtKM4G2bfugbl03Yy9Zqm7dhqJePf2OKmtBiCxbxYqVpSmWSkAcHBxkm/ruJSKi/McEJI99+eWXMuO5opKPevWaonNnvX8BWb6BA1+W8u+/z2LlymiJicgyeXp2llnS1Xetsnv3bkydOlViIiLKP0xA8lBycjImTJggcZUqVWSkFg65W7C0avUU3NzaSqxqQW7eTJGYiCyTqgUxb4r11ltvYfv27RITEVH+YAKShyZOnIiDBw9K7OLigiee6K8lIfp49VRw+Pu/LuXJk1fYFIvIwlWsWCm1KZZpVCz1XUxERPmHCUge2bx5M+bNmydxo0aN4Or6GDw9fWWdCpY6dRpryePTEqsE5NSpqxITkWXq0KETWrVqKzd+FPV9HBwcLDEREeU9JiB5ZPLkyVLa29ujXr16eOopP1mngmn06LmwtbXDjRu3WAtCVAAMHOiHmjUfkqavypQpUxATEyMxERHlLSYgeWDBggWpM/GqO3CtWvXQToQNZZ0KpjJlymtJpF6DtWJFFP7555zERGSZVFMsNUu6qoG2tbXF9evX2SGdiCifMAHJZSdPnkw9yak7bzVrOrPpVSExcuQMVKhQWeIFC3ZLSUSW64knOqFt2yckCVE++eQTfPXVVxITEVHeYQKSy1555RVcvXoVJUqUQMOGDdGxoy/s7Eobe6mg69VrhJTffnsYv/zyn8REZLmefXYwatSoISMRKuo7moiI8hYTkFz0008/4cMPP5RYJR916z6Cli29ZJ0Kh759X0DNmnUlZl8QIstXtaoTnn66n3wnK3v37pWheYmIKO8wAclFr7+uD9dasWJFPPTQQ1L7QYXPs8++JOX27bH44gt9mGUislze3s+iVq3aqFtXv3nw2muv4dixYxITEVHuYwKSS95///3Ujudq/PlHH+0MZ+emsk6FS8eOfeHq2kJi1oIQWb7ixUtoSUh/+W4uWbKkTBL7xhtvGHuJiCi3MQHJBdeuXcP06dMlrlWrFpycqrPjeSE3ZMgkKQ8eTMB77+2RmIgsV6dOXqhXr2FqUyzVXPbXX3+VmIiIchcTkFzw5ptvyuhXRYoUQf369bXkwwdly1Yw9lJh1LRpW7Ru3UliVQty+fINiYnIcvXu3V9uEjk4OMi6+u4mIqLcxwQkh6mJrWbOnCmxSj7q1m0CD4/esk6F23PPzUSxYsWQkHCNTbGICoAWLVrh0Ucfk6ZYiho45NNPP5WYiIhyDxOQHGYaTcXOzi619oOsQ9WqtdCpUz+JFy36C0eOXJSYiCxXr179UblyZTg5Ocm66QYSERHlHiYgOWjnzp1Yvny5xPXq1UPTpo+jQYOWsk7W4cUX56Ns2fISsxaEyPLVrVsfHTt2lRtGihqWd9GiRRITEVHuYAKSg2bNmiVl+fLlZdjdNm3Y9Moade8+RMpPP/0Xf/xxSmIislxqRKwKFSrI97Yye/Zs3Lx5U2IiIsp5TEBySEREBMLCwiRWY8s/8kgHVKtWT9YtUtzHeHPkNGQ9XtMlHNowAZNf9MUPccYmkxsx2LSkJ0YNb4Hh2v41+y4ZO5Rz2BLsgaW/m2+zHoMHT0HVqjUkZi0IkeVzcKggHdJVzbXy33//Yc6cORITEVHOYwKSQ+bOnSuluotWrVo1i679uLp3Ll59bQGO3TI2ZObWJez68BnM/iICN+o8jSYVje2GfZ8Pw1fFX0LQ+zvxzv+c8dvSpdhnPN/V3+fgoyuj0PexsvoGK/TMM6Ok3LjxONavPyIxEVmu3r3TT0749ttv49Il67yJQkSU25iA5ID169djw4YNEqs7aG5uT8LR0VnWLcq1GGxZ1gUvvvM5YrNKPjSx3z+HpdvPobz7XEx/oR+cihs7xN/Y9fslNHnME6W0d1Apt65odPUvHDur7br1N776fB+6DR6ISvqDrVL37sO0CxlXiRcs2C0lEVk2VQuiEhB9NLsEBAUFGXuIiCgnMQHJAaaTlBpJpUqVKhZb+7EntC8++l1LKh7ph1bVjY2ZObIEC7/cD9R+CQH/05OM9EqilJ0RZhD7/Rz85joR3WobG6zYwIETpPzrrzNYtSpaYiKyXE888SSaNGmWWguivtvj4+MlJiKinMME5AGtW7dO+n8oderUwaOPdtGSkFqybnEc2qDvxE0IGjMQte74lz+HTZ99iLNFPeE/biCcMn2cM2o5awnN7xG4egu4unM99pR6BLWKfY3V31WHT/82SFdhYqVat34Kbm5tJFa1ICkpEhKRBevR4xn5LrexscHVq1cxb948Yw8REeUUJiAPaP78+VKq2g+1WHLfjya930Hnenfpl3H8M/xwUCurX8OumR4YrjqZj+qA2aEROJs6uXcJNB+0FG1Pv4kXR7ZA4JfX0e3FgbgatgBXn34JrUoZDyMMG/aalP/9d1lLQnZJTESWq3nzlmjY0FWSEEV9x1+4cEFiIiLKGUxAHsAPP/yAjRs3SqxOVo895oVKlbJq22T5zkZtherKgeNbsev0ddmGG5dw6OcJmDz3Y32fUqol+k7dhGXLdmLJzLnofOtjrD7SF0M6VTMeQEq9ek3x+OM9JVa1IKdPJ0pMRJarc+du8p2u+oJcuXIF77zzjrGHiIhyAhOQB7Bw4UIpK1WqJLUfHh4Ff96P2P/260HtYQgI2qYnGG++guZqbr0jIfhhn747nVsxWLd6PRr188+iaZf1Gj16LkqWtMO1azc5LC9RAdCunSeqV6+ZWguiEpBr165JTERED46Xi/dp69at0v9DcXZ2RuvWPVChgqOsF3xl0aHPKDQqX0LWijs+Df9+nlp0CXuijQTFzIWtc7Gu9Evo6/pfFnODWK+yZe3x1FMDJP7ww38QFXVeYiKyXKoWpHbt2ihSpAjOnz+Pd99919hDREQPignIfVq0aJGUDg4OqFq1Ktq08Zb1As9G/VMNlSrIWqriJfVk5Gx8aiMs3bWtWPPFRfQa9DRis5gbxNo999xb2ntFH5iYtSBElq9Tp26oWLGSJCGK6TufiIgeHBOQ+xAVFYVPP/1UYnVyatnSC+XLF45ZL2o5t9T+3Y9jsfq6yY1ren8QJ8f0fTwOhU3HvtYT0blKFnODkOjVa7iU33xzGL/+elJiIrJMahSsTp28pIZbOXr0KJYvXy4xERE9GCYg92HJkiVSlilTBtWrV0eLFl1kvTAo37gD1Aj4v30+F3su6EnHjdNfY/nnaqjhsmjUwGyCxdMfY/WOlhji3VRbufPcIKTr1+9F1KyptynniFhElk/VgpQqVUr73NaU9aVLl0pJREQPhgnIPTp79mzqSeihhx5C/fqPwslJv6gsFBz6oa9nRS25+BwLA/VheEdNfRO7LmjJifsM9KpnPA7nsGXVEpR6ZhyalFTrd5gbxJqnQ8/Es8++KOW2bbEICzskMRFZJnt7B6kFUd/1yq5du/Dtt99KTERE948JyD16//33cevWLRQvXlxOSmriwcKm7oAvMMn3KdQto/f7QPFqaNRpLl75XxuYpvi48dd8rLniD582WrIiMpsb5Hk04jssnY4dn4WLS3OJWQtCZPk6dequJSL2qFKliqyrcwARET2YIikaI6ZsUEnHsWPHULduXbRv3xkvvKA3xyLKrr//3oKJE5+R+I033DFyZGOJLZ36pnByWibx/PlL0b17wR92mig7Fi16G2Fhn2Pnzp2yHhkZiWbNmklMRET3jven70FoaKgkH4pKRApT3w/KO02btkWrVk9KrGpBrlxJlpiILJPqC+Lo6IiyZcvK+rJleiJORET3hwnIPTCNgFKtWjWUL+9QKJtfUd547rkZMstyfPw1NsUisnANG7qiadPmqFWrlqyrc8HFixclJiKie8cEJJt+//13/PzzzxKrEVFU7UeJErayTnSvHB1r48kn+0r87rt/4ehRTtpIZMlUZ3SVgKgbB9evX8eHH35o7CEionvFBCSbVqxYIWX58uVRuXJl1n7QAxs7dh7KlCknMWtBiCzbo4+2Qv36jVKH5DWdE4iI6N4xAcmGK1eu4P/+7/8kVicfF5fWqFJFr4onul9FixZF9+5DJP7kk3+xc+dpiYnIMrVr55magPz999/48ccfJSYionvDBCQbVq5ciaSkJBQpUgQ1atRg7QflmCFDpqJq1eoSv/MOa0GILJmHR3upBa9YUR9+XJ0biIjo3jEByQbTSUbd+apZswEaNGgh60Q5oU+f56X88cfj+P77oxITkeUpW7YcWrVqKzeilI8//lgmpyUionvDBOQu/vjjD+zYsUNiddJp2vQJiYlySo8e/qhb11XiBQsipSQiy+Tu3k7OBTY2NrKukhAiIro3TEDuQs39oZQrVw4VKlRA48btZJ0oJ/n4BEq5e/cZ7YJmn8REZHkee8wD5cvbp9aCmM4RRESUfUxA7mL16tVSVq9eHfXrP6qdeCrJOlFO8vDwQrNmHhKzFoTIsqm+IGo+KEXNjq6GaSciouxjApKFL774AmfOnJFYJSCNG7eVmCg3+Pm9JuWJE5eZhBBZsNat20uNuKoZVz755BMpiYgoe5iAZOGzzz6TsmrVqihVqgybX1GuqlfvEbRv30NilYCcOZMoMRFZlgYNGuGhh5zlxpRiOlcQEVH2MAG5g/j4eKkBUVRVu6r9KF68pKwT5ZYxY+agZElbJCXdxDvv7Da2EpGlcXdvDycnJ4ljY2Px3XffSUxERHfHBOQO1qxZI2WxYsUkAWnShM2vKPeVLVsBTz01QOLly/ciOvq8xERkWVQCUqpUKVSuXFnWTecMIiK6OyYgd2Cq/VB3uNRFYcOGrWSdKLc999wsODjogx0sWMBaECJLVLlyFTzyyKOptSDqnJGcnCwxERFljQlIJv777z/8+OOPEquTCzufU17r1ctfyq+/PoTNm09KTESWRY2GZUpArl69irVr10pMRERZYwKSibCwMCmLFy8uHdDZ+ZzyWr9+L6FGjToSc0QsIsukRsMqXbqMnCeUL7/8UkoiIsoaE5BMfPXVV1KqO1tVqtRCrVousk6Ul/r3f1HKrVtPahc2hyQmIstRvLiN1II4OjrKujp3XL9+XWIiIrozJiAZqNFMIiIiJGbtB+Wnjh2fhYuLm8Tz57MWhMgSqc7opgTk2rVr+PrrryUmIqI7YwKSwTfffCOljY2NJCCurvrs1ET5YfDgyVL++288Pvhgr8REZDmaNGmGKlWqaksVWTedQ4iI6M6YgGRgGstdJR8VK1aXJlhE+aVZs/Zo1aqjxKovyNWrHGWHyNI0aeKW2g+koMwHolqK5cZCRJQdTEDMXLlyJV0CUq9ec4mJ8tOIEW+iaNFiOH8+iR3SqWC5vBUz+kzDb8ZqqjMReGd0B3Tp0AIdOnigx+hpCI8xv3q9jqNfT4BPF23/kx0wYskfuGzsUc5/9zy6vPp9um35SdWCmBKQhIQEbNiwQWJLduuW9ufRDmBOL0RE2cEExEx4eLgRQarT69dnAkL5r1q1OnjyyWckXrhwN44duyQxkUW7GYPPA1/Exoxzaf73MUYMmICvoi5paYZyHZejvsfbw4fi82OyAYhcgDHLS+D5z3di09pXUGvjBISYcu/L32uJ+EX4jXwKZYxN+U3VgNja2qJChQqybn4usXQpKTm3EBFlFxMQM+vXr5dSJR+2tnasASGLMXbsfJQuXVZi1oKQ5buE3+Y+h6X7jdVU17F5+QIcuAnU9/0Q3/6kJRgbNmB654pawrIfS1dESFLyz5b1uOzRFe3KayvlPdGpxSX8s1+fD+efFfNxsP+r6FddVi1CuXLlUb9+o9R+IKZzCSkxCG5SBEWKmC92cGrZDdPWxCDJeJQlCh+c4XUXd9Bf94pIJFh4a9iYt13lNbu+HWNsuXfRs1zhNCXz8030q3XuuI8oO5iAmPn++++lrFy5siQfRYvy8JBlKFasKLp3HyLx6tX7sWvXaYmJLNHRT5/DpB/OGWtmzq/Hlz9rZfVheNm/KcoU0+ISFdFuwgz0UtUZm7dCXdKUsNOT7dsc+xDv/NASL/o2NDZYDtUMS507lAMHDmDPnj0SU2aSELczHDP71YGdezCi8+JiPiEaIeM7wmnEA9ROJSfor3tYczi4BGJ7IW9yFr0nGnGfrEW0sZ4mBuFfxiBuxy7EGVso9yXsDUGgpxP8vzU2FHC8wjb89ttvMgSvou5isfaDLM3//jdNe29Wk5i1IGSpLm+bhvHv70eFzi+hXz1jo8k/f0iC8VDXrqivb9EVewSN1YjTN/fhqHZF81C9RsC29dh8Qdt2IQI/biuLh7WcI3zBcji+NBGt7OSnLIpqhlW+fHmUKlVK1n/44QcpycQFQQdSkJKiLYnxOBwRBC81evGOQHgMC0eC/qDcs3kG/OdHIO4+qlx8vsnkdR8Mhu/c2y/NC49I7NqkFUdWIzTjAIxxEQhX27ZHaqkI5ZVtc/0RvCkOicZ6QccExPDjjz9KWaZMGZQuXZoJCFkkb+/npfzhh2PYsOGoxEQW49jHGP/q90Dnd/DRZE9UNDabxP6nX67Uq+UsZZoSKCNJxXUZSanEE69gXtcYzO3TAh36LcB133fQ7/ISLL00Cs93vEPtSD5r2NAVZcuWRaVKlWSdCUgWbO3h3CEA66LXwcceSFg1BkEFYZRx0+v+cSrUOzjmy/DCewF+ORqRUr0Rg7D16X/LpE1hkNnSkrZh2xHZZKESsHqYP8JzPbul+8EExPDTTz9JqarQHR2dUaGCPrEUkSV5+unhcHbWZ+ZfsGC3lEQWQY14NW4BzrWbgWUT2mTdQVw1vcpUDI6cUGVZuI0KNfqIfIPpfYHPF/yNXoED4SSPs0yqFsTUDEudU9TEhJQFey8Ez/XUghiErDav1U1CzJpAdKxvp/e9kD4j/gg7aF59Yepb4grfKb5o7pDWT6P54MXYftZ4mEb6Q/Rcra+s6mY8ZxH43m9TlsYecDdC89cRvC8OYSOaw06e3xUz9xkPSdIu4rXtTnbGa7RzQvMRYYgx/Tp7p6GOtt1ulD4JcjoHg+Gacd/Z7Vg8uDkcihvP5+CKPm9vv3u/lH3BaK4e3zIbzd52b9OTDE30Su21GrH624StMTVji8Qu8z/bzmlwUs9vtji49EHwlvQZgN4/pQ9Wn9B/D/14ab9jfe2xO8wfm4TVPdM/323HziQ5Advf7oM6pmPs0By+I/pg9IoQjHnXvKYqO++tcPhq++pMiUj/nKb31u4wBHrWSfe6F++9vWot6WCGxzk1h3+Gfk/ZOxb6e6zbKn0t7Zj4aq+04GICorl06RJ++eUXidXdK9Z+kCUbODBQysjI0wgNva2XL1E+OIfwV19EZP1XMG/aU6hwxwTj7kpm8rNHP52Dn1pMxCDL6/qRTuPGbqk1ILdu3UJERCYXlJSOYztPqFsqcUdMl7hJ2D7eFXX6BSMi9aJQ9RkJQZ/6zvBfn/FCLxqrZ61GpOlaTbsQjVw1Bh71tYuz3LrzvXMbtquysj3SWgPGI3SQC/osi9QvMB294dVIK5OjEdyujmxPbf6VFIfIZdqFrXMgtqtEoPEYBLTWNi8NQXiGxCDmyxDtN7SFX1+VqGkOhmgXzx4Ys8qsI3xCNMImeMCh3WKzRCGDBO2i2j0QkfY+WPdjAFxsjO13EBcdrf0etvDqqqVae9ciXG4MaJIjsO5LrezhBS+tiNxndnHfwhd+tY3YkLBPuwhv54wxW4wNqcLgW1P/PVIPi7pgd++DENP/pf3/3gO8jdhgOnZeIWb9TxIQPswZHhPMEpOESKxeFoGEFkHYOFm/aafeR/fy3oqZ1TH9c5reW25acrApLZFQr3tMSz+Em/UJStoSCFeVRJg/Li4SIf3qwHlEeOo2XXaOReHDBESzaZNq6KhjAkKWzsOjGx55RL//xr4gZAmOfjoWb2tvxfO/vYn/Panm9lBLTyw9qPZ+j0na+oxt8lBxPfFOM9Y1xEM1jNDkzNd4Z2U5PO/fErFZzA1iCVRH9OLFi8PBwUHWmYBkg42tXu6J0S+etQs3r/laVM8Pa6MTU/teRH3oDXvtkjNk1IwMnaK1i+SFuxCbqPppJCJ+z1r4qb5HCasxZp7+SOeXo5DyjY/EGLROf05tCe2hb8q2pATEbApGx04z5bW69+6GtLYS2oXxQU8sl9eciNjIQKhuTdHTuyFwpxa0mIqNsfrvkxi7EVNbqB8Jhu909Rod4TdWXWivRsga80vTGISt1PY7BsCvg1rXfv8R/ohIsIfn3I3G76w933Hj+XaMQeAn6S9thUqCOnXD6gQ3BG0PhZe9sT0LMXvUB9YD3tN94a6lW2Hrjcv9HeHa5TLgM3wa3LRfPnp72kWz6uczI0Z/TbIkxmLjy+riPwGLP8jkXr29J4IiYpGoHntpF2ao3wERWG36vzS2A9amPZ+2JEYvh5d6y2h/h1D5ftHsDdIu3rVs01Z7vkj9GMdvnirHHzvDEWGqDbvn95aWrJn+79TfRXHG6G/0150Yu1aaESJpNUL1lvza8d6OwB7B2l/PGX6fRyHxhnoO9d5cDm/tsXHLxmBGxiaHWR4LZwTsScG6QWqbWZ+kFO1vqW8qkJiAaEwJSMWKFVG6dDnUqdNU1okslZ/fa1IeP34J77zDpliUn7Zi1fvZq4lzqq73/TgYk/E+7UkclS5N1VFRn0rDcB2/LV+Ay0NfgdeJLOYGsRAVK1aCs3O91FqQn39WQ35RtjRxln4V4R8s1i5X3bFok3ax1shITmzt4TJ0LULVBdiRMISZmjYJZ3h2dYOjPNQW9o29sXzTImkiFbMmLJMRnO5dapMXOwfU8QzUEgBtY4sghDxv3lTbFqPDtORHXrMtHB3VVWkkQpdJqoJFX86Ap/4iYevoiRlfGq9xvd6PxLbvaIzWdoctC027s38wDCHaharzcF/9YvpgKIK1yxXb59dqF8Oexu+srdfQnu+TIKlJCvs244V+HMKHeWhJkC18wiIQoGpl7ioG27ZraYWtC1xb9IFva+1S+JN18roiw9dqCYc3unVwg2tLbcOP22RgiUzZOsLz1Wn6RXJktPye5lymLEdAB0ftaGnKuCFgvH45HZtw527Wto38MGOcOu7R2GX642rfJ+q5XV5dhIBm+kGxbzsDi19QcQQi/pBN9/HeMqN+lxF+cowxIAiLeuiv29bRGzOm6IlJ5EHjN1y/CIu194j7wm1Y3tcFtlLbpN6bWuKzUiXCWmL5bfp35v0ci4KOCYjG1PxKJSCs/aCCoH79ZmjfvrvE8+dH4uzZTO56EeWJNpi2SUsKblu+wfMyCtZTmK2tT/PQwofq4CGtiP15Iw6oXSZntuBXlcPUawpX8xGu9izA3J1d8WLfalnODWJJVC2IOpcoO3fu1D6bZp0R6HZxRs2Hrbr0ikG0XM1ux5iapnbuaYveBj4aUenePJnQLsi7qQvtfVG3XfQ+KPsabvDRLizjt2dsxqQlUDWNMFUsYtRVe6Nu8MxYs1dDT7iwM1pPkmw84acurDeFYK3R7CZ65WJtnzN8+hl33qN3yWOTlna87dgUqR+oP4+pJskQ85aXdtxUxpSE8E3pL3rvTHtNqtbG3U373x3Rx0dLlTatxrq4SKxdof1CvfvAu4wt3Ny115WxI7rRPyW1v0vZ7PdTsC2jV82o4X/TGH02XBxSf9fms1JTtHuQQ+8txVRrdwcx+/SUbPtYp9v+H1NfpOjorN+ZmR+LwsXqE5AzZ84gMlJ/s6hZbGvVMj7oRBZu1Kg5KFnSFklJyXjnnTvegyKyHLVawE31Tv/vQ7wduh/Xb2px4n58FRyCf7Tw4e5dzTqZn8TnC9fDLeAlPFwsi7lBLIzqiK4SEHWxoWzevFlKylzE6hBpwuPpnt2bf7YwWrhlIQmJOdj/I63JSwrij+9C6AvusL9LH4p0tAvWrC9ZdW4+ftoF/3YEf6AuOqMRukq7SG08Gn6N9f3Zkq5finYkEhLgNncb1g6wRcK7vpimEou7ORgN1QDLsXVzaWLm2Fs1w4pA2MK1CNOu/b36esvv49JI1ctEahfTWqGoTu6V9b4M9zPc8e0SED7YSe+zsS+LP2hLT6geMtHTxyB4t/4fJ+2eidHvyjsLnqqmJluy897KGbb2efQfWTCrT0C2bNF7RqmThTpp1KjRQNaJLF358hXRpUt/iZct24t9++IlJrJcTeE3+SmoVlYHlvuii+ov4uWLd347BzR8CS93Txu49/x3byKk7EsY5VFC1jOfG6Sa7LMkDz/cFHZ2peSGlsIEJAvaBWvgUnWR6A2/AepS1wlOUi3ghdBLaRf96ZdELGqrHpOFg9rFsrpJ3ri53mQm3zjBWf1aeyNun7Rwr9GRvYVL2ms0OqPHrApF9N5QrD4CuI/w1WtKFO3gSEIweVcmx8VYIvzM+qVojx23Ddtedof3khDtqMZg5tCZdx8By6hpad7EeGU19GZY4bO0n9WexbeHkU65uMpr37ZbPVr1oQjU0hG9f8rheKOPRco6GL1v7t2Waeijam9Un4098UZfihQcnpvhr+roh0Xz3LWsIwKBbvroVnZu06RpmMsrQfCTA5JD761scKqh/8W8VpuOwe1L4kK9H6c1YwJiJCDqZFG8eAktAbHwYVaIzDz//GzY2+sXbeyQTgVBGY8ZWDZ9INxqGTUaxcqifucJWBQ0EA+ZRsBK3Iol71/EoJeelmRFyWxuED9pGG95VC2IKQExnWPITFICotf4w7WJumDVLhLfmgEfGbfZNOpROHw7BSJ8b4LUjqgajYS9YfDvpzr2ZhSP6Og4JMlFtXpcCPq005sjOff2Srt4d3DQayG+DdWSkxy5PZ8NbvAdrl5BOEZ7L0ZkgvHbxIVjTG+jI/tgswTD1Bn9SDB8h67W9rvDt7dZOmGMMhU3ywt9lkYizpTUXI5DxNvdEJjJsMIOTka/AnsfhHzgKUP++r6bdfOf6L3qr+IIt/qmehujGZbSwxfepjG2G7npHe2lI3oiEs6ojR7wHuQBZ3vTzz6A+Hj5+zv28IFXI3ujL0XmXIYGI6iT3mxJ2DrDe66WfE03fUncz3vr/tiqY6SV4YM9Ebg+GsafXXvbRyNsWB8EmzrP3yMH45iGrwnLoRqm/GX1Cci2bfrQLGrUEiYfVBD16uUv5VdfHdIudiyvTTxZq2rot0z1BZmBVsYWkwrtXsK8jzbpfUV+2oQPJvfDw+YTh9i1wTTtQnFgLWNdZJgbpH/TrOcayUf16jVITUD++OMPXL5saeN15YdoBNY32sHbOcC1X4jciXccuhbbUkcX0i7eBoRg3SDtQnJHMLo1cTDmRbCDQ5M+CFmzWDplpxeHkJ5OsJM5MdTj/PXajxZBWPeq2Z3y1trFu7o+TViNPk7GHBBO+l3y3OQyfpE+2eKPY9Dcwbg779QNi9VF6G0d2bXfv68ffLSL4sid2uVwBz/0Sdd3xAUz1gdpF/1xCBvVHE5ljeNZ1gkdJ4QjeMVq46I6c47DlyOoBRA53j/L4V31fgfN4WrWYV1vhgV4aRfxaamFC5qr5mF/RGl/XWd4dFAHWEuuTMdXlm6QXg9aYrj6Th2878RNb1oVN7+j8ffVlzoT9DZfYZ+EQW+YFY1pbh4I7xGtjyKllsTDWPuyO8xSkvt4b92nMlqy940P7JO3I9jLFQ5Gfxg7NV/LijAsViOb3Qf3fn7y+ySs6pPax8ZpSsG98WjVCUhSUhJ27NghsTpZMAGhgujZZ8dp7139HhprQYjyX+3adVOH4lW2b5fGNmRi6wi3HlOxPDIesWoI1HR3tu3htTIWhz/3g5vZ1aN0/p67SB9iNx1HePb1hLPpqtjWGZ7j1uLw5gydxG3csUgN0WuMkqTYapfrud5w1d4LoTHbsGiQW9rveafXqNh4oc8APfQa7puuOZVoFIBdZ7YhqLdzWiKgHU+XDgFY/qqXWXKQGWcErJqhpQ0R8B+12rh4zygSu9TAoI089P5aJjW019XYE94dzP8HZ7io/hVx27FLS/rc50Vj7XC31Ndg66h32N/2gTccbbQk4a17nDavhh/Wbg+CtykJs7GX33Nt5DoZ7Srpk2kIkdqEGMQcASLGaomokaToix3qeAdje+oveq/vrftn3yMUsQe091sL8/9Ie98PCsKiwWl1Xvek7SJEh2mvPe0Pr13IFtym10W0TDHFiK2OGiKxQwcZXBudO3fG4MGvw9WV7fKo4Pnxx08wb944id97zxO9etWVOCepbwonp2USz5+/FN2795aYiNK7fPkSRozwkf4fFy5cwPTp0/HKK68Yey1DUhJw9ar+uc4p2jUfjIqfPKBmh66DwL0uCDoQhYAcvHjMb2E+RdDnE2+EXlprNE2zDEmXk2BbJusUJ79Ez/dA8/HbM68B6rQcsT+k7xtD+c+qa0B+//13KcuWLYsSJUqgZk3WgFDB1KnTADRq1ExiNSwvEeWfMmXKwtGxGuzt9bufv/32m5REWUpSfTk6wu8TLZahbvXNlsJSkw8l4XgSPF9Zh6jUzu9q4r8Z0mwMsQkovLNpFFxMQDTqJFGhgpOWiOTZrRuiHDd48GQp9++Px/LlOdWYlYjuR+3adVITENUPhChL3/qiiJ3qyxGBBLgh6C2fuzSnolQnFiNgfiTC3+wGV6Ofjd63Y5qMNOY2zNusoz9ZCqtOQNQkUYo6SdSsma3pQYkslpvb43jsMb1JoeoLkph4t7EWiSi3qH4gpgTk9OnTOHjwPoe+Ieuh+jj0DsK2M7uyOWM5iRqjEXFgHYIGmWbEV2zh2MIHizbHY9c4ph+WyGoTkNjYWBw9elTi8uXLswM6FQojRsxA0aJFZWZ0dkgnyj/OzvWkea+Njd7L+M8//5TSkhTsHqDOCNijmtoUkv4fPUKRciMeUWEBcK9kbKNss63nhYCVuxCbaIyClZKI2D9CMbqtWSdwsihWm4Ds2rVLSlVVxwSECovq1euiY8dnJH7nnd04fpzDfxLlB1UDoqjzi2I651iKkiX1DuM5ueTVLNJEVPBZbQISGanfHS5XrhxKlLDVLtwK0RAaZNXGjg1G6dL6JG8LFljWRQ+RtVC1H1WrOsk5Rtm9e7eUlkKNWJUbCxFRdlhtAvLXX39Jqe5OVa9eX2KiwsDGpji6dRsscWjofuzadVpiIspbqhbEVANiaQkIEVF+stoE5O+//5ZS3aWqVCndVKNEBd7Qoa+gcmUnid95h31BiPKDs3Pd1BoQ1RH9xIkspp/Ocxe05VwuLEREd2eVCciVK1fw77//SqxODkxAqDDq0+d5KTdsOIYffjgmMRHlHVUDom5yqb6Gyp49e6S0HJe05WIOLur5iIjuzioTkL170+ZIUCeHypWZgFDh8/TTI+DsrI/lyFoQoryn5gJRyYc6zyjm5x4iImtmlQnIP//8I6Wtra3MgF6pUnVZJypsfH0DpPzzz9NYvXq/xESUN8qVK48qVRxTE5CoqCgprUsMgpuoieHMFzs4teyGaWtikGQ8yhKFD874ujMsTYK1306JwWJ3bd3JH+EceJAoW6wyAYmOjpZSnRSKFy8JBwdHWScqbNq06YGmTd0l5rwgRHlP9QMpU6aMxNaZgGQmCXE7wzGzXx3YuQcjOi/mTE2IRsj4jnAaEW5sIKL8ZJUJyL59+6QsXbo0az+o0PPze0XKY8cuYeFCjsRDlJdUPxBTAmI691gnFwQdMCaJS4zH4YggeKl7fzsC4TEsHAn6g3LP5hnwnx+BuPuocvH5xjS5XYZlTwD0ObadMXq7th67HF76n5qI7sIqE5D9+/WmKOqkwP4fVNg1aNAc7dp1k1jVgpw7Z8mNHogKFzUXiCkBuXjxooWNhJVPbO3h3CEA66LXwcceSFg1BkHsHkNkVawuAUlOTsaBAwckVieFSpVqSkxUmI0aNRslSpTE1avJ7JBOlIcqVqwste0mphEYSWPvheC5nloQg5DV5t9LSYhZE4iO9e2M/haqz4g/wg6a3zwx9S1xhe8UXzR3MPplFHdA88GLsf2s8TBNzNuuKNJztb6yqpvxnEXg+62+6YF865v6fGl9QjSyvQ6m7YxDmGr6Vdx4jENz+H8ZZzxIFznFKe051KL9Dq7ewel+h9Tf13s14nYshq9b2rGpox6bSRVSwhbtcS2dYGc8r51Tc/i+ux0J5k3ezm7H4sHN4ZD6+lzR5+0MjyHKBVaXgBw8eNCITE2wWANChZ+9fWV06dJf4g8+2Iv9++MlJqLcVbFiJRQtWhSlSpWSdfNzEAGO7TzhopVxR0yX7knYPt4VdfoFIyI14VB9RkLQp74z/NdnrMGNxupZqxFpugBPTkDkqjHwqO+L8Bxq17W6p3Fxnrpoz23sy1oMZmoJQB/V9Mt0QZ8QiRBvF4zZYqxr3Hz8jKZcBu13iP4yUPsdxmB7xkTgS184uY/B6t1pxyZGPdY7BGlpTRIiX9WSinba47QEKPWRcZFYPTYAoaYHHgzRkjwPjFkVmZZwJEQjbIKH9rOL05IpolxgdQnIoUOHpFQnBDs7OyYgZDVGjZqjJSIVJGaHdKK8UaFCRdjY2KTWgjABycDGVi/3xOgXvFsC4TVfi+r5YW10ot7XIjEeUR96w167xA4ZNUNLOczZwmvhLsQmqn4ZiYjfsxZ+9bTNCasxZp7+SOeXo5DyjY/EGLQutQ9HaA990wPpEao91zoYz54JZ/h9HoXEG+r3iMXaQfbatgSEfL5d3600noHDpn4l2pIYuxEBjbXtCYuxaL3+EHP2nYKwMVY/NomRM+CmNm5ajXWmxEI7hp5vqu94s/9bOzaxqt/N8DHwk8se7ViO8EdEgj085240jp/2fMc3YmoLbfeOMQj8JGOyR5RzrC4BOXz4sJSmu1FMQMiaPP20v5RffnkIW7eelJiIcpdqhmU655jOQZRBE2epBQj/YLF2ee6ORZuWw7uRkZzY2sNl6FqEDtLiI2EIS9eX3xmeXd3gKA+1hX1jbyzftEh7BiBmTViGZOX+3N4JPRRexr67GrQIy/u6wNZGi20d4T12NFTf+6SEO9dC2zp6YsYU/X+I3JexHsIF05YEwFP/hWHbLACBkkjFIsEYAlg/hoDX6l1p/7d2bBxVv5sPfLRIczAUwZu0rc+vxcaXPY3jp63X0P7vT4KkVirsW44YRrnH6hKQmBj9w6xOBhUqVJM7U0TWon//8ahevbbErAUhyhvmCYjpHESGOKPmw1ZdAccgWr6WtmNMzYzNnoqg2yq1LxpRejfOO9MuorupOVj3RVleMyJ7BzioMjI63Wu7rb+GT3Yv/rWkS1WqaMdll2RbpmPoA7++siNz0bskOUta2vG241ykfqCeuJlqpYhygdUlIEeOHJFST0CqSkxkTfr1Gyvl5s0n8fXXepNEIso9lSpVlia/ytGjR6UkXcTqEOmj4OneXN9wV7ZwkCv4rCQhMdfH9c050W/f3l/DIlS2h/6uJcp5VpeAHDt2TEp1MihT5q7fYkSFTufOPmjYsJnE8+ezFoQot6kaEFMCcu7cORmOlzT7ghG4VF1ye8NvgGqY5AQn6Y3thdBLGZs9mZZELGqrHpOFgxEIU/0hGjeXpkQWLS4EYyZo38P2ngiKOIx4oy9Gap+Ve2Y6hmGI2CwbMqc9SB1xx8m7MhxfsyXCTx5DlBuYgBBZoSFDJkm5b188QkI4AD9RbjKvAVGOHz9uRFYqKQHRa/zh2iQQ6haIy1sz4CNTpdjCe4C3VobDt1MgwvcmGDUCSUjYGwb/fmbD3KaKR3R0HJJkFCf1uBD0aac3IXLu7ZU2upSDg9734dtQLTmxoHqGywmIVaW7N3zdnWFv9MW4f6ZjmITFnT0QuD7a7Nhox9Brpt68qoUv/Gpr+c8sL/RZGok4o/8ILsch4u1uCMyJIYqJsmBVCUhSUhLOnDkjsa2tLRMQslpubk+gZcsOEqtakKSkmxITUc5TNSDqnKPa1yvWORlhNALrG30M7Bzg2i8E0dqFsePQtdj2clo9he2AEKxTI0XtCEa3Jg5Gnwg7ODTpg5A1i3H7/ZI4hPR0gp3MY6Ee56/XfrQIwrpXzeo/WmsX3DIA1Wr0cTLm0HCaJglQvqrtAU/1utaPgZOdcXzUYsxbEr1ytRyne5F6DJO3I9jL1ezYaMdwfQhC5Ri6YMb6ILhpxy9sVHM4lTX+37JO6DghHMErVhvJH1HusKoE5L///jMiPQEpW5YJCFmvESOmayecojh7NgkLFuwythJRTlM1IIo67yjm5yKrZOsItx5TsTwyHrFqeN10Y8HYw2tlLA5/7gc3sz7U9jXc4DN3kT7EbjqO8OzrCWdTzYGtMzzHrcXhzQFwMX9eG3csUkP0NkurYrDVLrHzfUak216XLRxb+GDR5m1Y3tsR2DtNSxSMXdmmjmEMoj7UjqFpeCuNraN2DBeGIlB10FcaBWDXmW0I6u2s1w4p2t/GpUMAlr/qlbaNKBcUSVEN/azE5s2b0b59e4m9vLzg5zcLzs5NZZ3IGs2b9wJ+/HGNxDt3DkCNGtIOIlPqm8LJaZnE8+cvRffuvSUmoqxdu3YNQ4c+g61btyI+Ph4zZszA1KlTjb355YK2qMvvnLwEUDU8+ih7uU/NDF4HgXtdEHQgCgG3JSZEZMmsqgYkLk6fpadEiRIyESGbYJG1Gzs2CKVL60kHh+Ulyh0lS5ZEuXLlpVRiY6XVPxGR1bKqBOTUqVNSmk4CTEDI2tnYlES3boMl/vjjfYiM1PtIEVHOqlSpSuq5x3QuIiKyVlaVgJw+fVpKVQNiY1MCdnZ3bm5CZC2GDn0VlSs7SfzOO6wFIcoNqiO6KQExnYuIiKyVVSUgphGw1EmgTBmz3m1EVq5Pn+ek/P77o/jpJysfIpQoF6gERN38Us6ePStl/lO9tIvn4JKuN3kuc0bAHjVfBft/EBVEVpWAqAmglOLFi3MELCIzTz89Es7ODSWeP58jYhHltDJlylhYAlJeW2rkwkJEdHdWmYDY2NigdGkmIETmfHzGS/nnn6fxySf/SkxEOUPVvKubX8r58+elJCKyVlY1DG/z5s0RGRmJsmXLolSpUloSUk5byqNMmYxl+Uz36dtN28oZz0pUeEyc2At//70DDz1UFr/91t/YquMwvET378cfw7FgwWwZDl65cOECypXjeYSIrJNVJSB16tRBTEyMfOnb2dkZW++PmjH09iQlfcKiSvUYU0Kj79fjUqXKGs9EZDn27/8TL73UTeKpUx/DCy88IrHCBITo/v3yy0btc/MWIiIiZP3o0aOoVauWxPkhBh/iKD4y1nLOE/jFiIiI7syqEpCKFStK1Xfjxo3x1OAaKO2QgkvxN3A5IRmXL1zHlYvJuHrpBq5eTkbSlWQkXr2Ba4nJuJ6kLdduGs+SM9QM1OkTk7QkJrMEJmNiY2dX2ngmopw1c+YwbNkSriXJNti50wcVKugj9zABIbp/O3ZsQVDQm/jhhx9k/e+//0aTJk0kzg8qAfkXQbiJRGPLgysGO3RBlLFGRHRnVpWAqA6AN27cQKtWreAzwRke3qWMPXd36xZw4fR1xJ++gYRz13Hx3A1cPH8dl+OTcSnhBq5c0BaVvGhJTOLlG0hUCYyWvFy7qi1aApN8I2cTmGLFVD+W2xOTtDIteUkr9f0qLlnywWqAqPA6f/40hg5tievXr2HkyCZ4443Wsp0JCNH9i4z8A3PmvI7w8HBZV7Oie3h4SJwf8i4BMc1YbqwKWzi28ITfhEWY1tdZW7NM4YOLoNsqY8Vg38gTfUbNQNDz7rDPMOhXzNuuqDMhGi5zDyPqZWdjKxFlxmoSkKSkpNRmV23atIHPxFp4rEfeXYTfTE6R5OXCGW05ex0Xzt/AJS2BUTUwlxKS9QTmoqp90ZIXlchoCYyqfZFFEhgtA8pBNjbFMyQs6ZMUVWaWuJi2lShhqacMygmLF0/Ad9+tlPjXX/uiQQN7JiBED+Cff/7GzJlTJQG5desWNmzYgM6dOxt7817+JiBmWgchanMAXHJ7BN+EaIRMH4NplwMQ+4GXsTFrmSUgqRz9sC56ObzMRvRnAkKUfVaTgKgRsCpVqiRx+/bt4TulOpp3KTi1ADeupSDh9DUknL0hyyUtgVG1MJcSrksTMpW8qCRGNR+TGpirejMylbyo5WZyziYwJUqUzJCk3Kk0T3LSthcvrg9HSZarf39XXLhwHt7e9bBkSQcmIEQP4ODB/Xj11UBJPFRNfFhYGHr3zr/PUN4nIC4IOmDM2ZGUgJjtIRjjE4jwOMB+0DrErPRCrs7O9a0vivRcDWj/V4r2f2WHKQHx+SYFoT20DclJSNgXjsC+fRCyT1tvoSVP29OSJyYgRNlnNQnI8ePHUzv8dejQAQNfcULTDtZzF//a1VtIOHNdkhdVC6Oaj0nti/SB0RbV/8VUA6OSGC15SZLmYzdwPekmbt7M6QTGNl2CkjFpuVNCY4pVDQ7lrtWrg7BqVZDEYWHd4e7uxASE6D4dO3YEkya9gJ9++klq5D/++GP4+voae/NeviYgJgnh8HXuhtUJzpi65zBmNDa254acSEBMkqMR7O6KwJ2A9+pErB2gX0swASHKPqtJQA4cOIAGDRpI/OSTT2LQ61Xh2kbvXEt3l3TlFuJPX8cFlcCo/i+qH8x5I3m5oC96AqMlMloSo2pf9ARG78R/61bOvs1sbfVhlE0JS2bJinkik1YLo8py0oeG7s7PrzVOnjyC9u2r47PPvJiAEN2nU6diMW7cCGzatAlXrlzBsmXL4O/vb+zNexaRgGjilnWE04gIOE7ehdi33IytSYhZMw3+UxYj4mCStq76jPhi8SeL4F3PdOMw7Xl9JrsheulqRCZom23s4TZgBhbPGw13vdFDamKQ0W2JRQZ3TECULWNg124xknqEIvEbH+nHwgSEKPusJgHZs2cPmjZtKrFqdztkRmU0aMkEJK9cvXgT8WeMBEZbpAZG9YNRCYzqxG8ageySqn3RO/Gn9oG5loyUHE5g1ChiGROXjE3F0hKW9KXar0YxswYbNoRiwYIAid9/vyNGjtwoMRMQonsTH38eo0cPwS+//IJLly5h0aJF2vpoY2/es5QEBPtmwtVlGqIHrEXKam9tQxK2j3eFx/wYfX86jvALj8HyrnK5bzyvvuc29j5YFxMqfTRyJQFJDoNv8T5Y3WgGoqKnwkXbxASEKPusJgH5888/0aJFC4mfeuopDJ1VCXWasR9CQXEp4SYSpAZGH4HsgpHApA6hfCFZRiGT5mNqMYZQVst1lcDk8LtczeNinpCYJylpNTDpS/O4IHnxxS7499+/4OJSAdHR+gzOTECI7s3Vq1fg799fJiJUkxAGBwdj/Pjxxt68ZzEJyMFguNYPRHTjIBzeEwDnLWPg0G4xEur5Ye23i+DdSEs2khIQ/YkfPIaFIaH2VETFzNAu+E3PawuvhdsQMtwNjrZJSNgbjsDefRByEHB+JQqHp6vUQJOTTbBEOHyLdMNqaIlOipboaFuYgBBln9UkIDt27IC7u7vEXl5e8Hu7Imq5sh+BtVDNxeJV3xdVC2MMoXwpXktejCZkaQmMXvuSrgmZlsDktPS1KrcnKen3p699yetJLHft2oSpUwdIfO3aNZQsWZIJCNE9Sk5OxuDBvbFlyxYkJCRg9uzZmDhxorE371lcAmLUgOgX/e5YdHwbRtcwHmPQ97lgRnQUpjbK4nlPLIZHzTHYblY7kWsJCGtAiO6L1SQg6ku/Xbt2Enfr1g0jFlREtXrsB0DZk6CGTzaGUE5Qo4/F631grkgNjJbEXNQSF6MPjN6B/waSEm/iuurEn+OTWBYxEpXMa1cyS2BMj1exnV0Z45my75VX+mPnzp/lzm25cuWwYMF7TECI7tGgQb2xefOvMiHuzJkzMWXKFGNP3rOYBMTUl2Kolhh86GI81th3B3pCkNXzRmOmiyum7UurncjxBCQuBB2d/BHRIgiH/wiASjeYgBBln9UkIL/++isef/xxiVUCMmpxRVR5iAkI5T6ZxFKNQKYlMAlGEzLp/yJzwOjDJ6s+MKlNyK5oyYuqfTHmgLlxPacnsSwmyUhawmKepOhlqVJ6adqWknILgYFPy53b4sWLY9myVUxAiO6RaoL1008/SgIyffp0LbF/xdiT9ywlAYkYZYeOS5Pg+UEsNg5PzEYCYovRmxOxqG1WzxuJaU7NMTMu9xKQuHc94DR2O2xf2IbEhXrrCiYgRNlnNQnIzz//LMPvKt27d8cLH1REBadisk5kyW7eTEHCKX3+F1MfGNMwynofGJXAGEMoq078ag6Y1ATmRo5NYqmGDr148aLEjz76GL755kctQcnb5mBEBdmoUUOwfv06mZfqjTfewKuvvmrsyXsWkYDsC0Zzl0AtXfBG6KW18CmThNU97eD7rZe2vk5bNx6XqSyeN2O/ErUtJxOQOwwfzASEKPusYyifTKhmLEQFQbFiRVCxWgnUbVoazT0d8ETfKug5sgZ8Jzlj5Oz6CFjqildDH8Hsr1vgnYjW+GBHW6z8+wl8duBJfHW8K7485oUVOztiwfeP441QD4x/pwWGv/4I+r/oiu5D6uOJXrXR0rM6Hn6sKuq4VoDTQ+XgULkUSpUpAZviaV8R5vcq1JwGTD6I7k3RojzvCNWpfI0/XJuo5ANweWuGkWzYwnuAGglLu8DvFIjwvQlQg/CqkbES9obBv1+wlnZkFI/o6DgkSVc99bgQ9GmnJR/amnNvLz35UBwcZKhcfBuKsDj9We9ZchLiNgWjm4tKPrRXOyAIgbk5dwlRIWY1NSBq6MMnnnhCYlUDMmpJRVSuyRoQoru5nnQLW747iaBRkbh+/Tpu3ryJEiVKoGPHpxASEmo8iojuZvjwAfjxxx+stAmWsZqB49C1iP7AG/apLaITED7YGd1WqUk9MjKvccj6eTPOUo7k7RhT2QOLzZ/WcSp2xc6AafaRjEw1IJlqrT3/Ju35TdOSaFgDQpR9VlMDotq9m6icK/m6VeRdRA/syqVk/N+b+1C0aFE0aeKKiRPHSD+QX3/diE8/vdPZmYgyUqPImajPk9WydYRbj6lYHhmP2A/Nkw/FHl4rY3H4cz+42RubNPY13OAzdxH8MvQhUXODePb1hLMpEbB1hue4tTi82Sz5UGzcsWjPWvg1S8sYbJGEeCPOFht7uHTwQ1D4YSSq5MYs+SCie2M1NSDbt2+Hh4eHxGoYXv+gSqiZ7tuJiDLzlt+f2LYuTpKOb7/9PzRr1hi9eg3Djh1/oly58ggP/wVVqzoajyaizNy6dQsDBz6NrVu3Ij4+HrNmzcKkSZOMvXkv72pAcktWndCJyNJZzS0YdfFkok4EyTdYA0J0N2sXH5LkQxk3boQkH8qcOVO1z5QNLl68gDFj/GQbEd2ZqfZDnX8U83MSEZG1sZoERLVZN1GVPjfZBIsoS//8dh4r3twncYcObTF+/AiJlYYN62pJyDSJd+/+E2++qcdElLnr19MnIObnJCIia2M1CYiavdlEnQBuMAEhuqObySlYOknv3enkVBWffLJYYnM+Pr1lUVauXI6IiA0SE9HtMtaAmJ+TiIisjdUkILa2ab3F1Cg+yTeMFSK6zRIt+TgSfUniWbMmS5kZ1RRL1YYor71258cRWbuMNSDm5yS6H84I2JOClBT2/yAqiKymE/qZM2dQpUoVidWM6AOnVkezTjwBEGX046cn8M5Lf0k8bNgAvPVW1h1lt2//E717D5P48cc9sXz5aomJKM2hQwfwyivj8cMPP8hw1mvWrMEzzzxj7M17qhN6Ev4z1nKOC/JvaGEiKjisJgG5cuUKypTRp1Vt27YtfCbXREsvO1knIt3xA5cx9snNuHHtFpo3b4rw8OwNs7to0QrMmLFA4nHjJmLUqHESE5EuOnov3nxzMtavXy+18OHh4ejatauxl4jIulhNE6zSpUunjruenJyM5OsSEpGZJRP3SvJRrlxZLF8eZGy9uzFjhmoXUx0kXrRoPvbu1WtQiEin+oDIACha8qGYbogREVkjq0lAlLJly0qpEhCOgkWU3kdv7cOebecknjr1RVSrVlXi7Jo9eyoqV66IGzeuY8KEF4ytRKSoPiDq3GNiOh/llxs3cmchIsoOq2mCpdSqVQvHjx9Hs2bN4BPYEB18Sxt7iKzbbxtO4c0hOyXu1csL7703S+J7FR6+EcOGjZf46af7ICjo9tGziKzR5s2bMG/eTGzcuFHWDx06hDp16kicH44eBfbvN1ZySLFiQMeOxgoRURasqgbE3t5eyhs3buDaVdaAECkXzl7Hkol7JK5Xz/m+kw/Fy6sjRo36n8Rff70Wn38eKjGRtVNNsNS5x8R0PspPKmEgIsoPVpWAODg4SKlOAlfi9aEQiazd4kl7cC7uGmxsbPDOO28aW+/fq6+OQ6tWzSWeO3c6zpw5LTGRNVNNsMwTENP5qPCLQXCTIihSxHyxg1PLbpi2JgZJxqPyh+m1uSL4oFoPh2+615nFMjhcnoGI7o9VJSAVKlSQUp0ELjMBIULY0sPY9l2cxOPGDcejjzaR+EHNmTMFxYoVw4ULFzBmjD5EL5E1M09AVPKhLmKtVxLidoZjZr86sHMPRnRa1xgishJWlYBUrFhRSjUGOxMQsnZRv8fjwzeiJX7iiTYICHhO4pzQqFF9maRQ2bVrJ95661WJiaxVYmKinHuUSpUqSWldXBB0QE0cqC2J8TgcEQQvR23zjkB4DAtHgv6gfOaFUPX6zJZ1g9R2s9duWlZ6yU8Q0f2xqgSkcuXKUkoCkqAPhUhkjdRkzEsm6f0+HB2rYPXqRRLnpIED+2DAgF4Sr1jxATZt+lFiImt07txp6QeiWGcCYsbWHs4dArAueh187IGEVWMQtNfYR0RWwSoTEHUSSLqSghv6uYDI6qhO50eiLkn81luTU+fIyWmqFqR+fX2kn9dfz3pGdaLC7OzZM6k1IFWqVJHS6tl7IXiupxbEIGR1pL5NJCFmTSA61rcz+lyoPiP+CDto3mMkrf+G7xRfNHcw+mYUd0DzwYux/azxMCKySFaVgFStqs9rYLoLxWZYZI1++uwEvl91TOKhQ/vDy0tdAOSOEiVKSH8Q5eTJ/zBixECJiazNuXNnUs89pnMRAY7tPOGilXFHYvQNWvKxfbwr6vQLRkRqwqH6jISgT31n+K/P2G09GqtnrUakqQ1XcgIiV42BR31fhFtGuy4iyoRVJSCOjqrBKRMQsl4nDl1JHXLXza0JZs2aLHFu8vBoialTx0q8adNPeO+9dyQmsha3bt3SEpCzqece07mINDa2erknBpKCbAmE13wtqueHtdGJen+LxHhEfegNe8QhZNQMLeUwZwuvhbsQm6j6ZiQifs9a+NXTNiesxph56R9JRJbDqhIQJycnIwKSkpK0BIT9QMi6qOTjetItlC1bBsuWzTW25r4XXvBDly5PSPzuu/Pwzz96EkRkDVTth6LOO4r5uYgMTZzhrBXhHyxGAtyxaNNyeDcykhNbe7gMXYtQ1SH8SBjC9umbdc7w7OoGR3moLewbe2P5pkXaMwAxa8IyJCtEZCmsKgGpXr26ERkJSAJrQMh6rJy1H39vOSfxlCkvokaNahLnFdUfpFIlBxmO9OWXXzC2EhV+qv+HYkpAzM9FVi/OqPmwVRlEDKKlK8h2jKlp9OkwW7qtUvuiEXVAlVmo4YlujbRyX5T+3ERkcawqASlfvjzKlSsnsV4DwgSErMPvP57G5+/ITFt4+umnMHRoP4nzkhpta/bsaRIfOLAPEyYwCSHrYOqAfvOmXuvOBCRNxOoQmYzQ012fvPTubHH3ORyTkMj+H0QWzaoSEKVmzZpSqjHZORs6WYOL56+n9vuoW7c23n9/jsT5oXv3J/H884Ml/vLLNfjii08kJirMVBMsU+2HYjoPWb19wQhcqo6LN/wGqH4xTnBS7bDUfByXzObcSLckYlFb9ZgsHIxAmJpftXFz6eBORJbH6hKQWrVqSakSENaAkDVYMnEvzp5MkpnJFyyYbmzNP6+9FoCWLZtJPHv2dJw/rzcLIyqsVAJy9epViUuXLp06JLzVSkpA9Bp/uDYJhGpx5fLWDPiUUTts4T3AWyvD4dspEOF7E6R2RNVoJOwNg3+/4EyaVMUjOjoOSTKbunpcCPq0C5S+H869vaRfCRFZHqtLQGrXri2lOhkknGYndCrcvno/Blu+jZX4pZeGaxf+j0ic31R/EDX3yIUL8Rg1aqixlahwUk2w1E0vxXQOsj7RCKxv9Oewc4BrvxBEa0mD49C12PZyWj2F7YAQrBtkD+wIRrcmDrCT/h92cGjSByFrFiPktgkL4xDS0wl2xU2P89drP1oEYd2rrP8gslRWm4Cok8HZE0xAqPCK3pmA5a9FSfz44+54+eXnJbYErq4NMHv2VIn//PN3vPXWaxITFUZnz55OrQGx3gTEjK0j3HpMxfLIeMSq4XVtjO3CHl4rY3H4cz+4aXmIiX0NN/jMXaQPsZuOIzz7esLZGDALts7wHLcWhzcHwCXd8xKRJbG6BKROHX1W5itXruBmcgrOn2QSQoVPSgqw1Oj3UbVqZaxevUhiSzJ48DN49tmnJV6x4n38+utGiYkKG/MmWKZzkPVwRsCeDP04EmOx65sZ8GtmlmGkYwvnvsuxKz7tZ+KP70Loy15piUYqB3i9tRGHZR4Q9dyHsXGedyaPy4zptUUh4LbERue1Muv9RHR/rC4BqVu3rpTJyckyKdSZE9JwlKhQWTJpLw7/c1HimTMnoVgxy7wVqGZJr1dPvyP86qsTpSQqTC5duiQd0E0JiOkcRERkzawuAalXL+02hqoFOcdmWFTIbPz8BNZ/dFTiIUOelZGnLJWtra30B1H+++8ERo5UM40RFR6mSQjV+UYxPwcREVkrq0tAypYtmzoGuzohnGUNCBUi/x26gqWT9F6azZo1lhoGS9emzWOYPFmfEyQi4ke8//67EhMVBqoDuqr9uHVLH3WxQYMGUhIRWTOrS0CUhg0bSnn58mV2RKdCZcmkPUi6ehNlypTGBx+8bWy1fC++6I/OnR+X+N13g7Bv3z8SExV0586dlnONYmNjg/r160tsKYoVy7klb929/wYRWS6rTEAaNWokJWtAqDBZNedf/LVZn1NjypSxqFWrmsQFxezZU1Chgr30zQoMHG1sJSrYYmIOpSYgpnOPJbCzA5o0yfmFiCg7rDIBcXHRxwZXnQMTL6Xg8nlOSEgF2x8/ncZn8w9I3LNnFwwb1l/igqRaNcfU/iD79+/DxIljJSYqyI4cSUtATOceS1ClSu4sRETZYZUJiKurq5QyFO/Nm2yGRQXapfgbMtu5UqfOQ/jgg7kSF0Q9enTGc8/pHdHDwj7Xls8kJiqIrl+/jmPHjsjNLsV07iEisnZWmYA0btzYiPRaEDbDooJMDbl75r9EFCtWFPPnv2FsLbhefz0QLVroM7bPnv064uPjJSYqaFTth2JKQMzPPflvay4tRER3VyRFzdxjhdRIWCdPnsQjjzyCZ0Y1xFMjyhh7iAqOrz+IwbJX9dnOx40biYkTR0lc0O3dux+dOj0rE4u1aNEKn3zytbGHqODYsOE7LFkyD5s2bZL1ffv2pQ6Ckv/CtOUjPcwx6nLiGz0kIsqCVdaAKE2bNpXy4sWLrAGhAmn/roTU5KNdu9aFJvlQGjduKJ3SlZ07f8OcOQW/Zoesj6oBUecYpXTp0haUfJio/o+JObgQEWWP1SYgzZo1k1KdHOIOMwGhgmfJxD1SVqlSCaGhhW/ujCFD+qFfvx4SL1++FL/++rPERAXFkSOHUxMQVdtunWIQ3KQIihQxX+zg1LIbpq2JQZLxKHNJ6/3hpD3O490YYwsRFTZWn4BcuHABVy7cwtn/2BGdCg7V7+PQHv3C5s03J6JEiRISFzazZ0+VjvXKq6++LCVRQXDjxg0cPXpYzjGK6ZxDShLidoZjZr86sHMPRnRe3gNMjkPE275o3i5YS42IKL9YbQLi5uYmZXJysgyR+N++G7JOZOkivvgP4f93VOLBg/vi6ac7S1wYlSpllzo073//Hcdzzw2RmMjSqfk/FFMC0rx5cymtlwuCDqiJA7UlMR6HI4Lg5aht3hEIj2HhSNAfJGy7Lkes9rhtLzgbW3LQkVCMmbAakeb/IRHlOatNQBo0aIAKFSpInJCQgBP7mYCQ5TsZczW16VXTpg9j7txpEhdm7dq1wsSJ+sSEGzduwLJliyUmsmSq/0diYqJMrKk8+uijUpLG1h7OHQKwLnodfOy1c/CqMQjSRxInIithtQmI0qJFCynVHSomIFQQqOQj6cpNlC5dCu+/P8fYWviNGzcCTz7ZTuKFC9/Gv//uk5jIUqkERN3cUuzs7NgEKzP2Xgie66kFMQhZHSmleX8R32/lUSJ8sGlbAra/3QdOxU3rScC3vhK7vp2xUVU4fNVzNTGaW6nH1Q9EtIr3BqKO2pfpzxFRbrPqBOSxxx6TUp0kVEf064lWOSIxFRAfz/0Xu389K/HkyWPh7FxTYmuhmmI5OJRHUlISAgIKz4hfVDiZJyAtW7aUkm7n2M4Tan74uCPZSwIip3vCY0IY4qTfiBe6dbCV7URUsDAB0aiJzlS7VNaCkKXaGXEGn847IHH37p3g7z9AYmtSvbpTan+QffuitCTsJYmJLI3qW6hGwDIlIK1atZKSMmFjJBB7YhADZwTsScHhuSolyVz0TmBqRCwStXN2YmwovO9lCq8eoUg5ECQJDxoH4bDqj6ItUS/nQl8TIsqSVScg5icFlYQwASFLdDnhRmq/D2fnWli+PEhia9SzZxeMGDFQ4i+++BRffrlGYiJLYpoB3TSLPxOQbGjirKUfd+e+MBwzOjhCpS22jvZSElHBY9UJSJUqVeDq6ioxExCyVEsm78Xp44koWrQo5s3jhHzTp7+MRx9tIvGsWa/h4kV9lCEiS6FGwFLnlFu31ER/2kWzu7uUlIk4VfOhsc1eKuFcWw2dRUQFnVUnIIqHh4eU58+f51C8ZHG+WX4Ev355UuKxY/20CxlrH8pTN3u2PvpXfPx5Ds1LFufIkYNyTlHU7OfVqlWTmG4XsTpEJiP05HcbkVWx+gSkTZs2UqqTxdVLKThznBMSkmX4NzIBH0z7R+K2bVth0qQxEhPQpEkjLQmZIvEff+zA3LnTJSayBHv27E5tfmU6x1Am9gUjcKlKP7zhN+DBazaio2V8qzSXE9LNL0JElsPqE5C2bdtKqWatVcPxshaELMWSifrA+JUrV8THHy+UmNL873/P4plnuku8bNkSbN36i8RE+Ul1Pj979gzOnTsn66ZzDJlJSkD0Gn+4NgmEGnzX5a0Z8LmXzuQZOTlD0pcVwVi8TyU02n8RF4FpnXwRLmtmytjDSZV7Q7F6t/5YIsp7Vp+A1KtXD3Xq1JFYnTDYD4QswXtT/sHBv/W+DdOnT4BtNttHWxs1KpbqmK9Mm/aylET5ac+eSLmZpW5qKe3bt5eSohFYX593o4idA1z7hSA6GXAcuhbbXr7zqFfZ0sIPgY1VEIExLnbyf9g5dcTMHbI3Pcdu8OmggkhMc9MfW6RIN6y+LHuJKI9YfQKiPP7441KqBOTQ7usSE+WXn9eexHcfHpF44MC+6N37KYnpdmpCRlNTrBMnjuH55/8nMVF+Uc2vzp7V5+tRN7jq1q0rMZmxdYRbj6lYHhmP2A+9YW9jbL9vzgjYtA5TO6Q147LXkpK1B9bCx1hP4wi/sG0I6m3W5MseiNf/ZESUR4qkqEGwrdzKlSsxZMgQ2NjY4KmnnsLIdyrAsc4DfyPmk5vY++o+fF2vPqYOLmFsy8TNZES+fRirfrXFsM9qoXFZY7uScBFrxx7Dj1E3UbxmefSfXxttahv7bl7Bp17HYDffBU/rA4hRDoo7moixHX/F1cvJaNLEBT/++Kmxh7Iyb977mDt3icQTJ74Kf39OVEh579q1JAwd2he///47Tp8+rb0P/bFs2TJjr6UJ05YV2nJN1nKGqqn9Rg+JiLLAGhBNhw5SHyuTR6nO6Ad3FdBakOtJ+HnsPiwKlyli70x73Pqh/+D9LxJRroM96pQytotk/BwYg33t6+HdnU0xted1rJpxFheNvcffO4bfW1WHF5OPXKHm+1DJR6lSpfDee3OMrXQ348ePhKen3tb+nXfexoED+yUmykuq9kMx9f8wnVuIiCg9JiCamjVromnTphKrqvNDkQUtAUnBxZ1xmPvEfny67S7JB24i8o2D+DpK+71HN8TUl8uhVDFjl3LuIiJ32+GxLrYojiJwfNIBNXdfxTG17/R5fBFqh/7azxSXB1NOCn37X+z6+YzEasSrunUfkpiyR/UHKV++HJKSEhEQwBoQynuq/4c6h9y8qY+m2LFjRymJiCg9JiCGJ598UsozZ87gyN/XkXS5ALVMO34W7z53Codhi07PlDM2Zu7qhuN4f8NNlPNyxrihKsnIwK4I0lWIpNISl3dO4upz1fCYeXMtyhF/bjqDT4IPSNyt25MYMcJXYsq+mjWraUmI3h8kOvofTJkyTmKivKISEHUOUR577DFUrVpVYiIiSo8JiKFTp05SqrHbr1+/jkMFqhlWETg9Uxszfm6IPh7m1RkZ3LyMb2Zf0K7UquKF18plnmiUsoVjzUT8viEJN5CCuA3xON6sFBx3x+GTqEoY7JtFvxK6L1cuJkvTK6V27ZoICQmWmO5dr15d4e+vdztds+YTfP31FxIT5TY1CEJcXGxqB3TTOcWy5WT/DyKi7GMndMOtW7dQunRpJCUlwc3NDd0G18XTL2Vdm2CRfj2G58bHo+ZYl9s6od/46QhemHQBlVqUg93+izh+SdtY1hZuQ2tgkG/ptKZYR87j/XEnEHk8BaVcK2HQzIqIm3gQsc89jGHtixgPopzy9qhI/BJ2UoaDXLNmGdq2bWnsofvVtasvIiP3okKFivjpp99QtuyDTDJAdHfr13+N999fiIiICFn/5ZdfLHwI3itGmdNKGyUR0Z2xBsRQtGhRdOnSRWI1eknB6wdyd/t/1eeVOLvTSD6US0mIXHgQr8++iNQZUGpXwMgvm+K9nY9g3srqqLvzP4RXr47+TD5y3LchRyT5UMaMGcbkI4fMnj1VyvPnz+H55wdJTJSbVAd0U/OrihUrFoD5P1SikBsLEdHdMQEx07VrVylVAnLp/C2c2H+3Dt0FyXXEHtSjck/WxOu/PqIlGE0x972qqFkMuPjlaWw9re9P59IFfLHwJnqOdbhD3xC6Xwd2X8D7U/+R2MPjMUydOlZienCPPOKKt96aLPFvv23H22/PkJgoN9y8mYy9e3fLuUMxnUuIiChzTEDMeHl5SalmsJXRsHYVxvaxpeE1vgIcJZsognItHDFYmmpdwf7I21vjHX7vBPZ5VccTZS9i7eC9eK7FX3ih9xFs1efJowewZNJeKStVqoBVq96RmHLOsGH90aeP/pn+4INF2LZti8REOe3vv3dL30FTAmI6lxARUeaYgJhRw/G6u7tLfOrUqQLWET0bZG7FEqhURdZS2ZXVO3+cPZXaCEt3/Aw+CS+LwaNLYmsWc4PQvXt/2j84sDtB4unTJ8iM3pTzVFOs2rVrSPzKKwFSEuU0VfuhzhmmLpXdunWTkoiIMscEJIPu3btLqU4mx/fdwOX4W7Je8JVA3SYq0UhC7HF9i0niJX3Meqea5p3Wk7F1ZixKja2GxolZzA1C9+yXL0/i2+V6FZKPjze8vdlcI7eozuem/iDHjh3F6NFDJSbKSWr4XXXOUFTzq3LlCuAAJkREeYgJSAY9e/aU8urVqzIk7/7fCk8zrDodVD+ORKyfeQbHr+rbru6Ow8qVqqanDBrqczGKG7+exNqLThjU2yaLuUHoXp06lpg65G7jxi6YN+81iSn3PPGEBwIDn5P4hx/WY8WK9yUmyglHj8bIELymBMR0DiEiojtjApJB48aN8cgjj0gcFxeHfzYXon4gLaqiTwst6dh5EjPb/yX9Ocb7n8Lxm0DNsdXRpqLxuJtXsHbmJTw2oTIqqfU7zA1SSx5M90IlH2reDzs7OyxdOtvYSrktMPB5dOjgIfH8+bNx6JA+6SPRg9q+/VdJPlTfQYUJCBHR3TEByUSvXr2kVAlIzN/XER+rN1Eq+GzQZvHDGOlTBo6m2czL2uGxSfUwbrCtsQE4G/offm9RAz2bGRtgh6fn10Sldf/ihRZ/Y+6vpTHyrUpgI4N7o2Y6VzOeKxMnjkb9+rUlprwxZ840aZKVmJiI8eOfN7YSPZht236Vc4XSsWNHVKtWTWIiIrozTkSYib/++gvNmulX323atEGfsTXRrh8bIdH92/XzWbza/zeJu3btiBUr5klMeSssbD1GjZokcb9+vpg5k7PO0/37668/tcT2dWzYsEFqQBYtWoTRo0cbe4mI6E5YA5IJ1QRLzYauxMbG4p/NSRIT3Y+rl5OxdJLe7+Ohh2ow+chHqsO/n98AiT//PBTffhsmMdH9MNV+mJpfeXt7S0lERFljAnIHffr0kVIlIKeOJOO/QjUpIeWlpZP2IvaI3us/KIidzvPbzJmT8MgjDxvxq7h69YrERPfi2rVr0v9DnSMUNfqVk5OTxERElDUmIHfQt29fKVV78TNnzmAva0HoPny34ig2ffGfxGPGDEO7do9JTPlrzhx9aN5z585i5MjBEhPdC5V8qCTk5MmTsm46ZxAR0d0xAbmDBg0aoH379hKrE8w/W5iA0L05+PdFvDdZn+3c3b0Fpk17UWLKf82aPYyZMydKvGPHVgQHvyUxUXapBESdG1Q3ymLFijEBISK6B0xAstC/f38p1UnmwplkHPijkM2MTrnK1O+jYsUKWLnyHYnJcvj5+aB3b30SyPfffxe//bZFYqK7OXUqFnv27E6t/VDnijJlykhMRER3xwQkC6YE5ObNm6wFoXvywStR2L8rQeI33giU4V/J8qhZ0mvVqi53sadMCTS2EmVt+/bNuHLlijTPVUznCiIiyh4mIFlwcHDAgAH6iDn//fefloBcw019sBOiO/r161h8syxG4gEDeuOZZ7pJTJanfPmyWhIyReJjx45gzBg/iYmyoka/UucEpVatWujevbvERESUPUxA7sLHx0dKdacr4fwldkanLJ0+kSiznSuurg0xf/7rEpPl8vRsi4CAkRJv2LAO//d/H0hMlJl9+/7BiRNHUxMQX19fKYmIKPuYgNyFurNVp04didUJZ++vTEDozlTycTnhBuzsbLF06SxjK1m6l18ehccfd5d4/vw5OHLksMREGanO56dPn5YmWMrAgQOlJCKi7GMCkg2DBg2S8vjx4zj453XEHuKcIHS7T+cfwM6Nepvwl18ejYYN60pMBYMamrdMmdIyL8hLL+k1IkQZqf4fJ06ckPjJJ5+Eq6urxERElH1MQLJh8GB9noCkpCSZdGrXhkRZJzLZ/etZfDznX4m7dOmAUaM4t0RBU7t2TemUrvzzzx5Mm8ZO6ZTejh1bcPbsmdTRr4YMGSIlERHdGyYg2aCaYPXq1UtiVQvy5/eJSLyUIutESVduYslEfb4PNaLSRx8tkJgKHjVgwNChz0r82WcfY926ryQmUrZu/VnOAUqVKlXY/IqI6D4xAcmmoUOHSqna/l68eAl/shaEDIsn7sHJGL09+NtvvyIlFVyzZk1B06YuEs+Y8QoSE9nvi4DDhw/izz9/S01ATOcEIiK6d0xAsqlnz55o1KiRxMeOHWMzLBLr/u8oNn2hj4YzatT/UjsyU8E2Z840KVVzm5EjeZebgB9/XCdNr65evSrrw4YNk5KIiO4dE5B74OenzxGgEpCz/13H3l+vyTpZp0N7LmLpJL3pVevWLfDqq+MkpoLPza0x3nxzgsTbt2/BvHmzJSbrdPr0Kfzyy0+ptR+9e/dGgwYNJCYionvHBOQe+Pv7o3jx4jIzukpC2AzLui2ZpM/3UaGCA/t9FELDh/uiV68uEr///kL88cd2icn6/PDDOiQkJKTOfD58+HApiYjo/jABuQf29vYYMWKExEePHsWRv6/jxD4OyWuNlr0Whf1/Jkj8+uvjZUZtKnxmz56GGjWccOvWLUyZMt7YStZEDcusml+p73ylefPm6Nq1q8RERHR/mIDco5Ej9fkBLl++LEPy/rlBbw9M1mPzN7H4+v0Yifv374V+/XpKTIWPvX251P4gR47E4IUXeOfb2qjaj0uXLqY2vzKdA4iI6P4xAblHTZo0kfa/ypEjR7D7pyRcOn9L1qnwO3MySWY7V1xdG2DBgjckpsKrY8e2GD9er/n8/vtvsXLlconJOqjaD/Vdrzg6OqbWghMR0f1jAnIfnn/+eSnPnTsnC0fEsh4q+bgUfwO2tiWxePEsYysVdhMmjEb79q0lnjdvFo4e1WvAqHD76af12nf82dQExPTdT0RED4YJyH3o1KkT2rVrJ3FMTIxMTJjCeQkLvc8WHMQfP56W+OWXn4eLSz2JyTrMmTMVpUrZ4cqVK3jppeeMrVSYqdoP9R2fnJwMGxsbjB492thDREQPggnIfRozZoyUcXFxOBETj21h7AtSmP215RxWzd4vcZcuT2gXIpyEzNo4O9dK7Q+yd+9feO01fZheKpx27NiC48ePptZ+qO/8ihUrSkxERA+GCch96tevH5o1ayaxukO2/curuMkBsQqla4m3Uvt91KxZDR999I7EZH369u2OIUP6Sbx69UqEh38tMRU+qvO5GvkqMVFvYvvCCy9ISURED44JyAMYO3aslCdOnEDciQusBSmkVPLx36ErEs+d+4qUZL1UU6zGjRtJPGPGK7h+/brEVHjs2bMb+/btlZtLipr3o06dOhITEdGDYwLyAIYOHYpGjfQLEXWi2vblFdzg5OiFyvqVx7Dx8xMSP//8EHTo4CExWTeVhChnzpzWLk4HSkyFh+r7oSabVcOtKy+++KKURESUM5iAPKCXXnpJSnWyOhN7UZIQKhxi/rmY2vSqVavmeO01TkRHukcfbYo33giUeNu2X7FgwRyJqeCLiTmEnTt3pNZ+/O9//8PDDz8sMRER5QwmIA9ITUrVoEEDiQ8fPizNsK5d4ZBYhcGSSXtldDMHB3usWDHf2EqkGzlyEHr27Czxe+8txJ9//iYxFWzh4V/KDaVLly7J+vjxvPFARJTTmIDkgICAACnVTLlnT13Atq/YF6SgW/56FKL/iJf49dcDUKGCvcRE5lRTrOrVHXHz5k1MmjTO2EoFlRrdbOvWX3Do0CFZV81s1eSzRESUs5iA5AA1M66pil6duFQtSOIl1oIUVFu+jcVX7+nNL/r164lnn+0pMVFGqnbM1B/kyJHDePFFzpJdkH355Wcy7K6a60UJDNSb2RERUc5iApJDXn75ZSn/++8/nDl1niNiFVBnTyZh6aS9EjdqVB8LF74pMdGdPPlke7z0kr/E4eHfYNWqDyWmgmXz5k2Ijt6DgwcPyvpzzz0HV1dXiYmIKGcxAckhQ4YMQcuWLSVWJ7BtX17FlYRbsk4Fh+r3ceHcdZQsWQKLF880thJlbdKkF9Cu3WMSz5v3Fk6cOCYxFRxffvmpfHcnJSXJ+sSJE6UkIqKcxwQkB02aNEnKU6dOIS72FLaF6RNYUcHw+cJD+P2HUxIHBj6Phx9uKDFRdsyePQ12drYydOvYsWyKVZB8880XMuu5qfZjwoQJqF27tsRERJTzmIDkIG9vb3TurI+Ko9eCXMGZ4zdlnSzb31vPYeVb+yTu1OlxvPDCMImJsqtu3YdS+4Ooiexef5130AuCixcvICzsUxw4cADJyckoV64cJk+ebOwlIqLcwAQkh02ZMkXK8+fPy6hYmz7WJ7Iiy3X92i0smaj3+6hRwwmrVi2UmOheqUELBg/uK3Fo6Ef4/vvvJCbLpZKP8+fPyTDqytSpU2Fvz1HviIhyExOQHPb4449j4EB9ZmR1Ry162zVZyHKpyQZPHNQTRdMdbKL7pd5DpuZ7b745Ve6qk2VSI5f98MN38l2t1K9fX5pfERFR7mICkgteeeUVKa9evSontk2hnB3dUn2/6hh++vSExCNHDkbHju0kJrpfRYoUwezZeiJ7+vQpDB/uKzFZHtXx/MyZMzJ6oWL67iYiotxV7HWNEVMOqVixIq5fv44tW7ZIUyyHstVga1cCDz1c3HgEWYIj0ZcwfdAfMtt5y5bN8MEHc409RA9GTU5YpkwZ/PzzNhw7dlTbkoJWrdroO8kiREb+gTVrQrF7924Z+crT0xPBwcHGXiIiyk2sAcklr732mnYRUl27uE3Bv//+i02hl5FwmsPyWpLFE/fglvYnsbcvjxUr5htbiXLGc88NQo8enSResmQBdu36Q2KyDKZJB+Pj42VdfWcTEVHeYAKSS0qWLIk33nhD4hMnTuD0qTPskG5BQt6IRvTv+oXHq6+OQ6VKFSQmykmqKZaTUxXcvHkTkye/ZGyl/LZx4/eIjt4rN4eU4cOHo3379hITEVHuYwKSi/z8/KRaX9m/fz/+3pSEg39el3XKP1vXxeHLpfqIN3379oCPT2+JiXJaxYoOmDNnmsSHDx/CSy89JzHlH5UMqtoP9Z2smsqqpnLTp0839hIRUV5gApLLTCe2hIQEGeaRHdLz17m4azLqldKwYT28++4MiYlyS+fOj2PsWH+J1637CqGhKySm/PHFF6E4ePBfaX6lqO9oR0dHiYmIKG8wAcllbdq00S4+xkq8b98+HPzrAnZ8zRnS88uSSXtw4ex1lCxZgskH5ZkpU17QvgtaShwU9FbqqEuUt6Ki9uLrr9fId7HSunVrjBs3TmIiIso7TEDywMyZM1GtWjXcunVLqv1VX5ArCeyQntfWvHsIv31/SuLx459D06YuEhPlBTU/iK1tSVy+fAkvvqjXiFDe+vjjZVITrUYnVN566y0piYgobzEByQOqjbHpRKfufB45/B9+/D92SM9Le7afx0cz9bueHTu21y4A/SQmyiv16jmnTnT511+ReOONyRJT3vj004+kBsRU+zF69Gh06NBBYiIiylucBySPNGvWTLvo+EtOfqo/SMmb1VGxWnFUdbYxHkG55cb1W5g++A9cPHcd1as7YcOG1cYeorzVuHEjnDp1Fn//HaUtu9GwoauWmNQ39lJuiYrag2XL3tWO+d+4dOmSDJH+1VdfoUSJEsYjiIgoL7EGJA/NmTMHRYsWRWJiIqKjo/H9sku4dJ5NsXLbkol7cfxfvcbJNEM1UX6ZM2cKXFz0pOPNN6dI00zKXR9/vFyGQ4+NjZV19V2saqaJiCh/MAHJQw0aNMDcufps22oElqOHTmHDMjbFyk0bQo/hx0+OSzx8+EB06tROYqL8UrRosdSmWKdOxcHf30diyh2ffPIR/v13H6KiomS9f//+8PX1lZiIiPIHm2DlMQ8PD2zevBkxMTG4cOECShWpjnIVi8GpXnHjEZRTju67jDcH78StWylo0aIZli9/29hDlL9UU8BSpUrhl1+249ixI1pSUgSPPeZh7KWcEhX1t/a5X4Q9e/bIjOflypWTpleqJCKi/MMakHwQFBQk5eXLl+Wu3PfLLiP+FJth5DQ130dy8i2UL18OH34YbGwlsgyjRg1Bt24dJV68eD527/5TYso5q1aFyMAfqvmVor57a9SoITEREeUfJiD5wM3NDbNnz5ZY1YScOBaHDcsuyTrljBVv7sM/v+lDbb7yyjhUqVJJYiJLomZJd3SsrCXKyZg06UVjK+WETz75P/z7bzT++ecfWX/mmWcwfPhwiYmIKH8xAcknEydOxJNPPimxOkFGbbuK3/6/vTuBrvla2wD+EDHHGCFIRWKsIjWUooqipnt79XbQj9ZQt6qlRWsoOlEzNVyamodS1ExMofSaI4aIkEQmkQgRCUkEiek773v+J1RpqyU55+T5rbXX2f+9T7vu6uc7znP23u/ewAsKH4f9m85j1YwI7f/73x3Qpcur2ieyNs7OJTILI0REhKN//97ap7/nxIlAbNiwSj9bMzIyUKxYMUyePNmYJSKi7MYAko2mTJmiVbGuXr2KoKAgXQVJiLllzNJfcelCOr4bEqT9KlU8MWPGKO0TWas2bZqjb98e2vfxWaOHpunv+eGHOYiOjkZcXJw+y2ctt14REVkPBpBsVKNGDUydOlX7MTExphbLrVh/k4QPCSGOjo6YNm2kMUpk3YYN+xiNGtXT/sSJo3D+vPmLMz26pUvn6wqI/KgjunXrhq5du2qfiIisAwNINuvTpw9ef/117ctfmIF7LmHfqqv6TI9m5fQI3X4lBgzoBS+vGtonsgWyFStvXkekpKSgb9+exig9iqCgY9iwYbV+lt65cwceHh6YNm2aMUtERNaCAcQKTJ8+Ha6urnoQVf7i3LbgCiKP3TBm6c8IOpCEBd+EaL9Fiybo35+HTcm2VKnioYfSRUDAEYwcyUszH0VKSjLmzPkvQkJCkJiYqGPy2erk5KR9IiKyHgwgVsDFxQUzZszQfkJCAkJDQ7F+WgrSklma98+4eeOOltwVrq5l8OOP5v+WRLbmrbf+hS5d/q39RYvmYtu2LdqnPzZz5lQEBh5DeHi4Pg8fPhxt27bVPhERWRcGECvRsWNHDBo0SPthYWE4dTwO66fyPMifIec+zoSab5QfM+YzfSWyVWPHDkW1apW0P2IE/zz/GVJyd//+3XrhoJAKgyNH8gwYEZG1YgCxIuPGjUPz5s21HxgYiMDdyfh5UZo+04P5/hgD3yVntN+zZ2e0adNM+0S2Kk+ePJmlec+fP2f6c/2W9unBdu/eoSV35TMzPT1dbzn39vY2ZomIyBo5fGVi9MkKPP/881i4cKGW5pWb0m8lu8C5fB64VMhjvIMszpy6ghHvHMLtW3dQt24tzJ3L287JPpQv74oCBQpg164DiI4+DQeH3HjuueeNWbKIjAzHhAkjEBoaopUExYIFC9C0aVPtExGRdeIKiJWpUqUKZs2apf0LFy7ogUo5D3LhDO8HuZ+c+7iZcRtFizphzhyGD7IvH37YDe3atdD+jBmTERh4VPtklp6eoec+4uLO6rZVMXDgQHTq1En7RERkvRhArJD8BTpkyBDty4HK05GxGkLoLql4FbQ/SfvDh/eHq6uL9onsiWzFKl3aGTdu3MDgwR8ZoyRmzZqK4OAgHDt2TJ9bt26N8ePHa5+IiKwbA4iVGjNmDNq3b699+Qs22D8RG/7LQ+niwJZ4vfNDdOzYDm+/ba4aRGRvXFycM8+DhIeH4ZNPPtB+Trd69TLs379LPxulfLmUMZ8zZ44xS0RE1o4BxIrNnTsX7u7uuH37NgICAnBoSxr8NlwzZnOmywkZmSV3K1f2gLf3GO0T2au2bVugT5/u2l+/fjWWLftB+znVwYP7sHLlEg0fly5d0rF58+bBzc1N+0REZP0YQKxY6dKlMX/+fO3L7cgSQrbMSsXpwJx7SeF3Q44jKT4djo55MG0ay2xSzjB8eD80bFhX+xMmfIP4+Hjt5zRxcbGYOXOabk21HDqfNGkS2rRpo30iIrINDCBWrlmzZpklJePi4vRQ+topKbh0PuddUrj6u0js23he+/3798Kzzz6jfaKcYNy4oRq85cbvvn3fNUZzFjl0LpWv5HNQ9OrVCwMGDNA+ERHZDpbhtQH16tXTkrz79+9HUlISct3Oh9RzBfHMiwXgkEOq8570S8L43uYqQM2bN8akSV9onyincHYugdKlS8HX9384fz7OFEQuo2lTc5WsnGD27GnYsWMbDh48iDt37qBFixZYsWKFMUtERLaEAcRGSIUXuWhLfvmT7ReOKIYrFxxR88X8xjvs1+1bwIh3/HH5YgbKlHHB9u3LjRminKVWreqIi4vH8eMhOHbsCJ55phYqVvQ0Zu3Xpk3rsHLlj/D399fLBuVsnI+PD5ycnIx3EBGRLeEWLBvyww8/4Nlnn9X+0aNHcWRnUo4ozyvnPk4HmyuAjRnzmb4S5VTjxg1D1arm0PHVV+Zy3fbsl1+2YfHiOfqZJyvBuXLlMj0vRtmyZY13EBGRrWEAsSGFChXSv3hLliypvwLKX8j+m6/g50Vpxjvsz7Zlsdjywxnt9+jxllYEIsrJHB0dMXbsUO2fOxeHnj3/T/v2yM9vL2bNmqYVrxISEnRsyZIlaNy4sfaJiMg2cQuWjSlVqhS8vLw0iEgIkepYt5JdUKBwbpSv6mi8yz7EhKdh5Nv+uHXrDp59thbmz//WmCHK2dzcyiJfvnzYvdsP0dFReji9fv2Gxqx9kJvfJ00aqdtOT58+rWNy0aAcPCciItvGFRAbJOdBFixYoP0LFy7or4NbZqciaFe6jtkLue8jI/227vOeO3eiMUpEom/fHmjbtrn2p0//FkFB5hvB7UFYWCimTBmNqKgoLbkr+vXrh4EDB2qfiIhsGwOIjeratSvGjh2rfamHHxwcjFUTkhFlJ3eELBwdiuN7E7U/fPjHKFu2tPaJ6K4xY4ahVKkSyMjIwKBBfY1R2xYbG6PhQ4LHiRMndOytt97C5MmTtU9ERLaPW7BsWJMmTTLL88qNwLlz50ZSVGFUqpsPhYrZbrb02xoP78+CtP+vf7XVAEJEv1W4cCFUqOCG9eu3IikpEWfOnEbr1u2MWduTmHgREyeOMAWP4zh8+LCOtWrVCmvXrtU+ERHZBwYQGyfbsc6cOaO3pF+8eBG57jgiJbYQajTJB8f8uYx32Y7kxAwtuXvtyi1UqlQRq1fPMWaI6EGqVPHA1avX4e8fgNDQkyhTxhU1atQyZm3HtWtXMWHCCNNn2eHMuz7q1Kmj5Xbz57f/cuNERDkJt2DZgXnz5qFjx47aDwoKwpF9p/HjyGRcTbmjY7bku8FBSDyXjjx58mDq1BHGKD12GfHYMfYTNG/UHvXqmVqjN9DjCx8EXjbm75O40xs9Wna8572+iMowJkVGDH4a2AONZL75R5hy6N7KbJew7v2OGLTVfqu1ZbcvvuiP554zl+geP34ELl40V4yyJZMnj8HRo4dw6NAh3L59G56enli5ciWKFStmvIOIiOwFA4idWLVqFV566SXty2rIoV/O4McRl20qhKzxjsRen3Pa79fvP6hb1/Z+xbUN8VjcswcGrQxBqiVEZKQhcJMpZLw5FXuvGmOGuB8/wssDJZwYb9b3TsXrPVcj6pZ5yP/bT+Cdtye2+m3Ezi/csHngIvgbc6lbv8PIlLfR7+VC5gF6IuR+EAcHByQnJ+PDD7sbo7ZBwseBA3v0okE5zyLV/uQzrWLFisY7iIjInjCA2Am5nGv16tVo2NBcilP2Tx/ZFWszISTY/xLmfh2s/RdfbIRPP31f+/QkFEfjf9ZH/Y7DsGLnGhw6tBH7to5Gj6dNU4m+WLz1kvlt4uo+TJkaATh4osecn4z3DkObkqa5k3PhvVNCSQh2bk1D45cbwckBcGreDPVTgxEaZ5q6FQLvbyPQY/ir4LVxT1b16pU1hIgjRw5h9OgvtG/tvv9+Cnbt+llXPq5du4aCBQtizZo1qF27tvEOIiKyNwwgdqRIkSK/+otbfk0M2BNnDiGp1htC7tw2b70SZcq4YOnSGdqnJyUvKr72FbyHNUJFp7zmkZK18UH3ZtpPyVwWMeWRrT7YcQso2/1jfOBlXsHIW7IRvhnVAU6m/g4/Kf3qiMLy8ABRi77D5ga90VPCDT1xXbr8G506/Uv78+fPws6d27RvrRYtmgVf3436WSUFNaSQhhw450WDRET2jQHEzpQpUwbr1q1D9erV9VkOcx7bew4/fm29IWTG4OOIOpmi/VGjhuiXEMp6iZfNKx8V3e+WPD52SAKGG/7VxtM8YPF0ddSX19AYxJnmq5kCxt6t+5BqCiup23/BXqfqqOrgi/GzS2PwwPqmyENZZdy4oahc2UP7X301RF+t0YoVi02fVSs1fMiFqkI+u6TqFRER2Td+07NDFSpUwPr1601fQiprJRlrDiHbl8diyw9ntN+tWye0b28+x0JZLQ17dprChlMHvJL543M84qLk1RPubjpwV8FC5lCRfgPppl6LYaPxSswUNG/QHi/PyMC7015F6ow5SHm/J9o8ZHWEngy5IV1CiIiLO4v33ntb+9ZEVj6WLVukn01yZkXIFtIOHTpon4iI7BsDiJ2qVKkSNmzYoJVkpKKM/EWv27GsKITERqTBe8hx7Xt5PYOxYz/TPmWDk6swdx9Q9T+vor6DMXaPfA8YUxFnIEc94FQb/RYZZ0TWDEOXW6sx7mQHfNGZF0hmh0aN6mPo0I+0L9uwvv9+qvatgZz5WLt2xa/Cx4oVKzIr+RERkf1jALFjVatWxcaNGzWMWELI0d1nrSaEfDf4ONKv3UbhwoUxe/YEY5Sy3K0YzPtmOeKqvINv3nzEwODwgM1V8u8bvxP1+3dC1YcFF3riPvroXbz8svlcz/Tp3+LkSfM5q+wk1a62bvX5Tfh47bXXtE9ERDkDA4idkxCyadMmVKtWLXM71uH/xWR7CFk0NhSBexK1P2zYR3BzY42k7BL6/Zf47pQnPhj9Jio+MDBkIPW+0ryZPN1wf6HUxPXemFOkJ/o3jP+du0EoK4wdOxTOzsWRnp6OgQP7GKNZTy4ZHD36c+zc6Qs/P7/MMx+y7Yrhg4go52EAyQHkLIiEkJo1a+qzlLs8uOM0Fg+/hKQ447KGLHRw2wX8NCVc+6+80gbdu7+pfcoGJxdh4Px4rXLVw90Yy1QaZTVdRCDytA7cFRcDPR5SrgScdcBw1R+Tp13BB8NaI/J37gahrOHqWtoUQsyleU+dCsGgQX21n5USEy9q+Ni3b5eGD0u1K9kiym1XREQ5EwNIDiEXem3ZsgX162vtIhw9ehQHdkZgwdBLiDl5U8eyQsqlG7r1Snh6umPmzHHap2xwKwLfDVuOuJId8M3791W5MlSsJKfP47FlV4R5wJC4by9CTa9Va1b/VYWrwBlT4d/uA3Rx+527QShLdejQCr17v6P9NWtWYOXKpdrPCrGxMRgz5nP4+x/AgQMHMu/5kM8iHjgnIsq5GEBykLJly8LX1xfNmpn3hR8/fhwBB8M0hATvS9exJ03Cx8W463pj8+TJXxujlB0Cv/0S82KK441xvVHrIWc1Kj5bW+/7iJs/FfNOme8HyTjlgxGzQ0y9anilzT1nRmJWY9ym2vjiw2qmh4ffDUJZ78svP0H9+l7aHzduBJKSzNsfn6SwsBBT+BiOgIAjGj4sN5zLZxBL7RIR5Wy57sjBAMpRbt68iVdffVW3QAg5pC5nRNr3dkK9dgV07ElYOzMKc748qf0BA97HoEG9tU/ZIMAbL/f0wcO+hrb5diO+aSq9NOz9ohc+3nTP7eiGqh99jyXvWOrzXsK693tgy8vz4N2xuOk5AzuGdMRIh2FYP6IRsHMC/jmqMMZv7/3AKlv05J04cQotW76hZ8Hq1XsOS5euN2Yev8DAI5gyZQzCw8NNASRAx6Qi36pVq3jDORERweErE6NPOYTsv37rrbcQGRlp+qIQiKSkJFy/fh0pMfLFEXCv+fivjQs5dBlj3zui/aZNG5q+nHD1I/uEYErX6fC7Zjw+QKWXO6NFBenlxVNNm6PS1QiEn47HZVkEcfJEmwHDMfYtT+STt5hk7JqOPnsbY/xn9VBc11UdULHBM7i8dAI+GbMAS0PLotf4XmhbhlcSZhcXl5Latm3bpfeDpKVdwQsvmFdDHyc/vz2YNOkbhIWF6SqrqFOnDnx8fPSHDiIiIq6A5HD9+vXD1KnmOwLkFnX5ovBch0K6GvI4fdRyNyKDUlC6tDMOH96KPHnyGDNElJU+/vhzLF9uXv2YO3cJmjZ9fJd/yp0js2dPQ0hIiK5+CNlu9dNPP6FYsWL6TERExABC+Oabb/D5559rX74kSAip27I4XhtUFLkfw3aZ7wYHYdPCaO3Pnj0R//gH938TZZdr166jZcs3ERFxGuXKlccvvxwyZv6eTZvWYvHiuTh27BhiYmJ0TFZaf/zxR+0TERFZ8BA6Yfjw4Zg1a5b2L1++jH379mGvzzks+OwSUhNv6/hfteOn2Mzw0bXrmwwfRNmsQIH8GDfOXJr37NlY9OplrpD1d8iqx7x53lpm1xI+ZHWV4YOIiB6EZ0BI1a1bF/Xq1dOD6VevXtUvEbeuFcC5kPxwq+4IpxKPnlXjItMw4p1DuHnjDmrXfgYLF04xZogoOz31VDk4Ojpiz56DiIqKQP78+UyfAQ2M2T8vLi4WEyeOxI4d2+Dv768/YIjx48djxIgR2iciIroft2DRr8j9IJ07d0ZwcLA+y03qlatUxit9i8CrVX4d+7OGv+GHgF0XUbhwIfz880+oUKG8MUNE1uDtt/vqofR8+fJh5cpNqFathjHzxw4e3IeZM6chMjJcPzdu376NXLlyYcmSJbr1ioiI6GEYQOg3EhMT0aVLF70sTLi5uWnpzAavFESbnoV17I/8MO4Ulk8O0/7o0UPQowe/kBBZm7i483oeJCnpMqpWrQ4fn53GzO9bvXqZKbAs0YPmcuBcuLu7Y/HixWjcuLE+ExERPQy3YNFvyE3FEkASEhJ0W0VKSor2ryUUwbmwXKjwTF7kL5TLePdv+f+cgBkDzeU3//GP1vjyywHaJyLr4uRUGG5u5bBhwzYkJl7E2bMxaNWqrTH7W+np6fD2ngxfXx89bC6lvEWLFi20zG6NGn9+BYWIiHIuBhB6qPbt26No0aLYunWr3hNy9uxZ3LhSAKcP50HJ8g5wLvfbUrqpl25g5Dv+SEu5CQ+PCli3br4xQ0TWqGpVT6SmpuHw4UAEB59A+fJuqF79GWP2LtlqJec9/Pz26g8T8fHxOt6rVy+sWLHCFGZ49T0REf053IJFf2jTpk3o3r07Lly4oM96LqRyZbR4uzBeeKOgjlmM63UUu9fF6WWHa9bMRYMGdYwZIrJmHTq8g0OHjqF48RLw9d33q3s7du/egZkzp+qPELLycfPmTR2fNGkSBgzgCicRET0aluGlP9SuXTscOHAAzZqZb00ODQ3FkSNH4Dv/MlaNT0HGdR3GutlRGj7ERx+9y/BBZEPGjh2qh8gvXUpC795djVFg6dIFuu1KClMcPnxYw4erqys2b97M8EFERH8JV0DokfTt2xfTp0/XfqFChVCrVi1U8yqNFj1y49MOe3X8hRcaYsWKmdonItuxcOFPGDx4lPZ79uyN3LlzYf/+3QgMDMxcAW3dujXmzJmjxSmIiIj+CgYQemTy5eO9996D5Y9O9erV9YyI3B9SqpQzDh3ajHz58uocEdmWvn2HY8WKDdp3cXHBqVOn9PC5GDhwoN7xQURE9HdwCxY9sp49e5pCxiG9uFDI1oy4uDi9B+Cll5oiOTlVx4nI9nh51UT+/Plx5coVHD9+XMNHkSJFsHTpUoYPIiJ6LLgCQn/LBx98AG9vb+3LzcpyX4i7ewVTSHkTL7/cVMeJyPodOxaMuXN/QmDgSQQEBCA5OVnHW7Zsqf8/XqlSJX0mIiL6uxhA6G9buHAhPvzwQ6Slpemzh4cHnn76aTRqVFeDSKlSJXSciKzTggUrsWrVFkRHRyMoKChze+Xw4cMxcuRI7RMRET0uDCD0WISFhaFPnz7w9fXVZ7k/RC4lK1eurIaQ1q1f0HEish6BgSGYO3c5goPDceLECd1KKeRHBCk20bbtwy8lJCIi+qsYQOixGjVqlP5qalGlShVtjRubV0OcnbkaQmQNFi5chZUrN+vdHhI+MjIydLxbt26YNm0aLxYkIqInhgGEHru9e/fi448/1jsDRPHixXVLVrlyrhpCWrXiaghRdgkMDMXcucsQEhKBkydPIjY2Vsfl4sEpU6aga9e7d4AQERE9CQwg9MQMGTIE48aNM57uroY0aVIP774rqyHFjRkiygqWVQ8JHRI+LKser732GiZPnozy5cvrMxER0ZPEAEJP1I4dO/DJJ59oVR0hZ0Pk3pAKFdxMIeQNroYQZYHjx0MxZ85yBAWFaNnsc+fO6biU1504cSL+85//6DMREVFWYAChLDFs2DCMHj3aeALc3d01iLz4YkO8886rcHUtZcwQ0eNy69YtLFmyDitWbEJkZCRCQkL0vh7RqVMnTJgwgaseRESU5RhAKMvs378fgwcPxu7du/VZLjurVq2afgF64412ePPNfyBvXkedI6K/Z8uW/2H5ch+cOhWhwSMpKUnHy5Urp1sjO3furM9ERERZjQGEstykSZMwdOjQzP3nLi4uqFq1Ktzdn0KnTh3Qrl1zHSeiR+fvH6jBIygoFKGhoTh9+rQxA72vZ+zYsShcuLAxQkRElPUYQChbREVF6baspUuXGiOAp6enHlKvWtVDg0iDBs8aM0T0RyIjz2DZMh/s339EQ8epU6cyQ37Dhg11C2Tz5gz3RESU/RhAKFutXbsWn3/+ud6+LGRbloSQp556yhRAauu2rMqV3XWOiH4rOTnVFDw2wMdnBxISEjR4XLp0SedkpWPEiBHo37+/PhMREVkDBhCyCvLr7JdffombN2/qs9wdIkGkVKlSaNu2ma6IlChRTOeIyGzlyk266nHxYiLCw8P1UkELqWwl4aNMmTLGCBERkXVgACGrcebMGXz99deYN2+eMQK4urqicuXKpvBRQkPIm292MGaIcq6dO/frqkd09FmEhYVphSuLFi1aaJhv2rSpMUJERGRdGEDI6uzatQsjR47E9u3bjRGgQoUKqFSpEtzd3TSItGzZxJghyjmOHQvWA+Zyr4eseEizrBpKUJftjG+//bY+ExERWSsGELJay5Ytw6hRozLPhwg5qC7Ny6sGXnutLerXr2XMENmviIhorFnji//9z08PmEvwuH79us7JZYJS0GHQoEH6TEREZO0YQMjqTZ8+XUuHWva3Ozg4aAjx8PDA009XRvv2zdGiRSOdI7InAQEnsXHjThw4cFS3KEZERCAtLc2YhYaOzz77DMWK8XwUERHZDgYQsglyo7NcniY3N1++fFnH8uTJoyFEmptbWQ0i0mScyJbt2eOvwSMo6JQGDylbnZqaaswC77//vl7q6e7OCnFERGR7GEDIpsiXsIkTJ2q7evWqjsmKiIQQ+TLm7FzCFEJaoF27ZihevKjOE9mKzZt/0eAhh8ujo6M1eFy5csWYBbp3745PP/0UTz/9tDFCRERkexhAyCbJPQfffvstJk+enLklJVeuXBpCKlasiIIFCxorIi3g5uaq80TWKC3tmil07NDgcfFikoYOOedx7do14x1At27dMGDAANSsWdMYISIisl0MIGTTkpOTMWXKFEybNg1JSUnGKEyhw00rZ8ne+KZNn9MwIudFiKzF+fMJ2LRppwaPlJRUDR3SLFWthNzl0a9fP654EBGRXWEAIbuQnp6O//73v3pgXbauWLi4uOit6nIZW506z+jWrAYNvIxZoqwXHn5aQ8f27Xv1PJP8eY2JiTFmzWeb+vTpg759++rWQiIiInvDAEJ2Z86cOfD29saRI0eMEcDJyUmDiLRq1Ty1apasjBQpUth4B9GTJQfLf/nFD35+AYiLi9PQkZCQYMxCQ3Lv3r3x4YcfomTJksYoERGR/WEAIbu1YcMGzJw5Exs3bjRGzAfWZXuWtKJFi6JJk3p44YX6aNSorvEOosfnxIkw7Np1ELt3HzSFjUQNHdIsBRREnTp10KtXL7z33nvGCBERkX1jACG7FxAQgNmzZ+vKSEZGhjEK/ZW5fPny2ooVK6IrItJkhYTorzp37oIpcPhr8JBqVhcuXEBsbKyuetyrY8eOesajbdu2xggREVHOwABCOUZKSgrmzZuH+fPnIzAw0Bg177mXEFK2bFmUKFECFSu6ZYYRFxduhaE/lp6eoYFDmlweKJXZ5OJMafdeHChnkqSUbo8ePVClShVjlIiIKGdhAKEcadu2bVi0aBEWL15sjJgVKVIE5cqVg6urq5byrVv3mcwwwgsO6X6HDwdlBg8phCCrHNLuPdshWrZsia5du6JLly7GCBERUc7FAEI52sWLFzWELFmyBIcOHTJGzUqVKqVBRFrhwoUyg4iXF0ui5mRRUTFG6PDHhQsXcf78eZw7d06Dx70fp1LwoHPnzho6WEaXiIjoLgYQIsPBgwexdOlSLF++XL9Q3qt06dJapUha6dLOePbZGhpE5LVoUSfjXWSPbt68pduqAgJO4OjRkzhzJg7x8fEaPKTduHHDeKe5yEGnTp20dejQwRglIiKiezGAED2Aj48PVqxYgZUrV/6qYpGQffwSSKTlz59fD62bw8jTvOzQTsTExOHIEQkd5uCRkXFDQ4el3Rs6hBwkf/3117UVLszSzkRERL+HAYTod8it1KtWrcKaNWuwdu1a3ed/Lzm0LoFEtmtJWV8np8IaRKR5edWAs3Nx451kza5fT9ewISscR4+e0EpWEjzlLIdUsZJ2/0flSy+9pJWsXn31Vd2mR0RERH8OAwjRnyQlfNetW4f169frConcYn0vObTu7OysYUReHR0dUalShcytWrVqVTPeSdYgMvKMBg5Z4QgICNYxORMkoUNek5OTdexestLxz3/+U5tUTSMiIqJHxwBC9Bdt3boVmzZtwubNmxEWFmaM3lW8eHENInLfiLSCBQtoEKlSpSI8PZ8ytQpwcipkvJueJFnJiog4Y2rRCA+P1tWOhIQkDRkSNhITE7XdunXL+CfM5P9uEjratWuH9u3ba5U0IiIi+nsYQIgeg+PHj8PX11fb9u3bcfv2bWPGLFeuXLpdy9IknEhZ37JlXeDhUUEDiayWyKts46K/7sYNCRvRmYFDWmRkjM5dunQJSUlJ+iqB4/6zHOK5555Dq1at0Lp1azRt2tQYJSIioseFAYToMZNzIj///DN27typ7fDhw8bMr8mZkWLFimU2JydzNS1XVxdjhcS8SuLh8RQrbT2EHA6/GzbOmILG3bBx7do13SYnTQKHvN4fDEWlSpXQrFkzNG/eXM91SHEBIiIienIYQIieMNnis2vXLuzZs0ebv7+/MfNrsiIioUS2+VheJZTI6kmZMqUyQ4kEFGfnEihVSrZ2FTP+afuWmnpFt0wlJCTiwoUkI3BE4/TpWJ2X28blpntpsq1K2v0FAyyqVq2Kxo0bo0mTJrrC4enpacwQERFRVmAAIcpiV65cwf79+3HgwAH4+flpIJEqSw8i4UNCiDQp72pphQoVQu7cuU2hxUGDSKlSEkjMoeRu3/ycL19e499mnWRVwhwuzAHj16/mdu3adX2vVKaS/36Wlpqaqk3OeDxIgQIFUL9+fTRo0EDb888/z8PjRERE2YwBhMgKhIeH61atI0eOICAgQNvDQomFVN2SICKv0uTLtqXJ/SQWsn1LgoiLizmUyK3uEkrMLZ+pORqvlrF7m3leVmceRMJDenqG0dKN1xv39O9tMnZDw8SFC3cDxsWLSca/zVxp7Pr16xo0ZAuVvFqarHI8aAuVhfy3qF27Nry8vFCnTh3UrVtX+0RERGRdGECIrFRsbKwebg8KCsKJEycQHByMkJAQ3Wb0R2TlREKINHOIMLe8efNqkxLBllcJF9JkReVhZKXFEkpy5cqdGSjkwPfDyEeLrExIk8PeliYhQ/5Zy6s0CR3S7q9C9SDyv7VatWqoXr06atSooa1mzZq6tYqIiIisHwMIkY2RYHLq1CldNZEWGRmJqKgoREdHa2Wnv0oCiIODQ2aTZ2kSZizhRPrC8rEhr7IqcW+TEGFpf5WsZri7u2vz8PDQcxpyWLxKlSqoXJm3zRMREdkyBhAiOyKrIzExMRpSzp49i3PnzmmLj4/XLV1yIF6alKJ92LmJJ8lyN4o0uUFeKk6VKVNGbxIvV66cNjc3N8hljkRERGSfGECIcigJK1KaVipGyUFuOdQt5yws5y8s26Nk25RlRcPycWFZFZGVEst2LtniJVu+LGdT5LC8HJ6Xal5SZljCh2UFhYiIiHIuBhAiIiIiIsoyDz91SkRERERE9JgxgBARERERUZZhACEiIiIioizDAEJERERERFmGAYSIiIiIiLIMAwgREREREWUR4P8BIoCVoClTCQwAAAAASUVORK5CYII=;" parent="1" vertex="1">
          <mxGeometry x="1050" y="-10" width="482.32" height="290" as="geometry" />
        </mxCell>
        <mxCell id="AT_uzg10whJC4qiR5lYj-19" value="" style="rounded=0;whiteSpace=wrap;html=1;fillColor=none;" parent="1" vertex="1">
          <mxGeometry x="110" y="-1230" width="1250" height="670" as="geometry" />
        </mxCell>
        <mxCell id="tgRXIBtalsCboaSTgpwh-1" value="" style="shape=image;verticalLabelPosition=bottom;labelBackgroundColor=default;verticalAlign=top;aspect=fixed;imageAspect=0;image=data:image/png,iVBORw0KGgoAAAANSUhEUgAABbMAAAG6CAYAAAAyO9vNAAAAAXNSR0IArs4c6QAAAARnQU1BAACxjwv8YQUAAAAJcEhZcwAAFiUAABYlAUlSJPAAAFdJSURBVHhe7f0LdFzlmSfqvyY2GDsM0CEQ7E5jGa+xMawBG9ahA+QCyWCwVkgC/+FioQ7gdDeHpjEXZxgFh0wIoLDaBkwThmQaJ2khc/kfIMCxwUyahA6Qk1lgQw++9TEWTMfcQhpowBgw8alv1y6pJEu2tJFhCz3PWnvV3t+u2lV6VSpV/fTp3SO2VAQAAAAAAJTYTvklAAAAAACUljAbAAAAAIDSE2YDAAAAAFB6wmwAAAAAAEpPmA0AAAAAQOkJswEAAAAAKD1hNgAAAAAApSfMBgAAAACg9ITZAAAAAACUnjAbAAAAAIDSE2YDAAAAAFB6wmwAAAAAAEpPmA0AAAAAQOkJswEAAAAAKD1hNgAAAAAApSfMBgAAAACg9ITZAAAAAACUnjAbAAAAAIDSE2YDAAAAAFB6wmwAAAAAAEpPmA0AAAAAQOkJswEAAAAAKD1hNgAAAAAApSfMBgAAAACg9ITZAAAAAACUnjAbAAAAAIDSE2YDAAAAAFB6wmwAAAAAAEpPmA0AAAAAQOkJswEAAAAAKD1hNgAAAAAApSfMBgAAAACg9ITZAAAAAACUnjAbAAAAAIDSE2YDAAAAAFB6wmwAAAAAAEpPmA0AAAAAQOkJswEAAAAAKD1hNgAADNTTC2L6LiNizPQF8Uw+BAAA7FjCbAAAPnjP/iCOHjsixqRAuG7Z9z98MVru6IhN+dU+DJuevjNajp0a+3Y+vl2j4YjG+O6H/Lg+DMvO6v79Scsf/cnUmPnNm+LJl/MrldbSODN7zE2xLB/ptHZBfCbt26ey79V8bDjZ/Oto+ZPK1/8n34hlb+RjAABDgDAbAIAP3uZN8drmfL3Oa2sfjIWzJsbR13XkIx+sNdcdEX809aRY+NDquse3KV58fGlcNWtePNTLY/5gvRprfjo3Zk78xtYB7Qdk04ur45fXfSM+M35iXPDQ+0iCN78Qv7y6KT5zzAc8u33z6lh45tx4MvaIUxb9IGbskY8PyIf/fQAAGI6E2QAAfHgOnB+r3t4SG9Py5lux/Ecnxu6V4Sfn3xRPVq/xgXltSVMc/c1fV9b2iC+0/kN0/L76uP71xVVxy9cbIj5/TBwysnrdD8+jcdVfLIhfbngr3/5gnHJn/j16+614/p+Xxw2zD6iMdsQPjz0mFq6tXmfAnm2PC1sWx5Mf8MzoNVefFC2PR+z+9fb4b42FkuyKD+f7MGhGfiZa/3fl+/m//y5mfDwfAwAYAoTZAACUw8jRMeXrs+O4fPMDtfnX8V/PWhyvpdm6d3bE0guPiX3ykG/0HgfEV360PJZf0xj7VIeGsdGx+37T4owbVsXy1mmV7RXR8tc3xYvVneX3+Lw48durI/b4q/jZDTMrX02JbbgpWq6rPFYAADoJswEAKIc3Xohffnte3BafijP+29w4OB9Ofnnerj16N+8aU4+dG3c/3bOLdV2f5E2r44cnT4w/yrb3je8+nl+lN8uujx+mGcKHXx7f73W27h4x5cBP5ev1NsUzd8+NmVPzxzd235j53aXdW6hsfjAu2L32uPNl94kx85t3xjM9H37diSXXvLw0Wo7YMz/uSXHbirSvsVKfZHF8rXasD+kklFPOmx9/mdLghxbHfbU0e8MP4uja46ot+0yPM2/4dfeaLGmKMVPnxpq0vnJuTK1d96yl2e6k/9/zftr867hg5hWVWh0Q3/nH6+PwnrPs+/vYs+9RP74Pmzri7m9+MabWvvdj94zPnPWD+E0vvcZfWzav6zmUf50X/PW5sfCbJ8VV9TPfN7+QHXP6Pvkxs37u39iqJs9cPTXbP/3q1ZVjz43P1K5/8uL4X/m+bHECUwBgiBFmAwDw4akPMj+xb8z86b5xzaOr44YegfIX/vKimJCvV22KZx5aEKdNPSIWPp0PddMRC0+YGhfcnZ+0cfRJcdyh2Y5ePfn/PJhdfuHrJw1s9vXKeTHz5AXxy1qYmPpAX9kYU7J2JbmRx8RfXtiQb+Q2dcQvrzsppvbVL3rz0rjwwMZY+Hjeg+PImfGFf1ddLY3K1/WFr6SVB+N/PpGNRIyfHWdnY3VeXRG3XXBETDln6YBOoDnw7/m2/eabM7M/WBzcekdcPDkfrDeIjz1eXRpn7jcxTrvuwa4/WGx+NZ5sPzeOHj+9W2uWF3/6xdj3hCu6nkP51/nDJZviCzc82vVYU6/vz+2bHXNNZ2uW1M/9pkpN9o0zl/TSr+X+c2PKCQs6W7l8YcYxsVt1FQBgSBJmAwBQHi8ujQuO2DOmXvBgvJYPZQ68vKu3dlp+vzy+k4XTK+Lan6zIrtLdr+OXT54YN6x6K+vz3PHPl8fh+Z7evLDhhexyn0/1Nvt6W/L+2q9VHlNdz+/Xbrg+ltXN5p3ynfVdj72y/Ov/vLw68/zx+fHT3maMr30wfrn/JfGLDdXjdixuin32vyiWv70kTsmuMCvuqh1vec/Q94MzOp/d/Fbn1zo6Trm96+vMar94VrUmP/1B3P1G9VrR2B4bV82PKWm9vm/6opnZ7syAv+d9e3XZN+KrN1QT3U+N3ze73Fo/H/t2vw8vxE9ObozbKnc34et3xPIX03Owsv/3z8fS/5y3ZvnzH1Rbs2x+ML5/XvpDSuV5dM3y+Nc3K9d7bX3c8JXqH3N+uawrRF9zRWPW6zv2qTyv/yk/5mu1Y74at501L35TP4O8Ys1DD8aE//xoPJ+OW7n/W075VEy4cFXltrXHDwAwtAizAQD48NQHma+9EqsevT5SjvfMDV+Ms2/bxlzYj0+Li//mr7Kexy9ueL461k1DXLz0jjhj/3SN0bHPPkVP9LcdB86LG1J/7XQ3Wc/vy+P8bCbtiljzbLrs3eiDL4lrz0k3eiGeqeboPcyMHy+9PA7fq7JaOe4+e6Xrvg+19iWdy9RCs5sHrvLYT1oQrZ9P6x3xwvtprr3d73lflsb5f3ZTvLbHHlkwvewv/iru7mUS89YKPvan2+O6hyqXje3x6x+dGFP2yL93H/9UfOF7S+Oa9FeV39xZbc3y7Ip4KD3NJ8+Nq8+ZVv3jwOiGOGPRD2JGZTX+n1VRncS9Im67qaNyWXle31d5Xk/Ojzm67piv3hS3/qY63KnyGO7/3mdi93Tcyv3v7mSPAMAQJ8wGAKAcRu8REw79q7jlnouyVh9333Znt9YOL/7DgjjziH3zHtiV5ZgfbKP1w2fiT7fRVqSnPXavhoOvvrGNAL1fRnfOVu4mtR+5uik+8yddfaCPvmEb93XgMXH4DsrfB09HrMmaXh8Qh2RTrHOvro6fdOvrvG+ck8LdAgb2Pe/Lq/Haq9Oi9R+fj5+dUynqpsVx9nfr2sDUG4zHvmZ5tRf4kqbYt/a4O5d944IscH4+XkszvSvPlV3S5nY9H8+k8Hv0zDjuwOpIl0/Fn34+/UfBpni1R0g/5ajPZAE+AMBHhTAbAIBy2Wvf2DNdPvN8VCctvxrL/mLfaJg5N257/IUCYeb2Hfynx2SXy+7oHqAPileXxjkT942ZLYvjyRd3xKPvh6w1Rj4DPltWxZz9831FbVgaP0ttL0YfE39aO9baBXH0+KlxTre+zkUM7vf84L+5I+ZMHh2Hf689ztgjtYFp2vqEoIP22Adgv5lx3H6Vy7Xz48IbVsSm1CZk0wtx93l/FcvS/j+dGr219wYAGK6E2QAAlMtvO6onRdxrj9g1Xa6cHxf89IWIPY6J1gfWx/OpP3UKZGs9lwfB6MamyM79d/dfxf/Z24n0Kl57uVjCuWbhufGTFyN2/+L8WPrPr8S/5oHyqtYD8msMQZtfjbtb5kaaZDz66yfm/cg3xW3froxtzntFb8j7OleWu5qyK/TfoH7PZ8V/PS8/AefHZ0brj2bF6OiIq/78iljT2WN6EB/7pxqqJxFtWtJ5jK2X2h8TDojv3Ds/Dh/5avzygunxR2NHxJjd943T2tNzbVq0fi891mTfmJAOuml5PLEhG6jTEb9ckv7s86mYMNCW7wAAQ4wwGwCActj0ajzz0IKYeXK1lcQXTmmshoLP5OH24SfGqYc3RN4RpMvmQZjt/PFZ8Z3W/ER6Jx4QX7v6wXixdsK/N1KLkC/GlPENcWYfQfe2PPts6nUc8adfaYo/3W+PPJys0+OkfduTBfxxZ9x6246Zpb5tm+K1lUuj5Zg947TU03yPWXHLZdVZ7akVxgvr0uWn4itNM2NKL32+s5nHNbUWGytvitue7PGV7MDv+e5f+UH8t8bKysp5ceYN1e/NgB97RZ/fh0Nnx/mpFUh7U8z87tJY82q+t/KYX6w8v0+7oMfs//1nx3e+c0y3diC7V45xy6pHY07ntOxpccrsFMj/Oi74T/PilxvyI7yxOu7+iy9Gy8rK+n6z45QBtNYBABiKhNkAAHx4Vs6NqbV+wrvvGVOPnRu/THnx4fPj6q/n00w/31idNb3s3GjYvdZ7uLJMnVvtTXz3Hf08od+2Tbnwwbgru88XYlnLF6PhE/n9fCK1CHkwXht5QExIJ2QcoM/PODG7XHZeXe/nyjK1ZXU2fvcdd8Zr2Vp/HBNf+Xpqpr0pbvuzruOdeXd1745y24m1x71r7Du9MRamKdl7HBM3/GN7zOjs7d0QM76SAtcXYuGxXb3B0/K19rR/ddx2d/Vrzux3Ypyaha+r47v/R+36U+OqdMbDHfo93yNO+du/iy9U1p785rlxW3acAT72bX4fGmLOLfls6ysbY/o++fHG7hoNlef33TfMj592zq7eFMvOaYiZPz8xfv37rpnbzz/6d/GV7OSlXaZcckdcnGZzP35FzJyYH/MTU+O0n6ZA/lNxxt/OG7T/VAAAKCthNgAApTF6/2Nizo+Wx/MPXhRTaidS/Pis+PHy67uFe7sfOiuueXBV3HXetNh98+L47qLaDNv3Y4+Y8aOOWHXP/Djl0E91zaAe/ak4uOn6+MWzj8Z3CpyVcfQp7bH8mhNjQu2AI/eoHu+flsScQ/eITbfNi588ne/brtEx44bVccvsad0e36svDMbX3x+jY5/J1e9Rx7P/EGf0aOg85ZLl1e9J7Xs3uiG+cN4dsfx/VsPZNd++vNoLOtMQc5Y+Gq1fqeuNsccr8epvK5c7+ns+fnbc8DdpJv7S+D/Pq/4xYWCPfTvfh8kXZc+Xa5qmxT5dV8hr94M4NfuXg+TVeP6ZVyMeOjem1v54Ulv2mR5n/nR11yzukdPiO8vXxy3nHdP1XKocc8LnL4pbVnXEDTO6agUA8FE1YktFvg4AAMAH6LWH5sZxJyyInp1War7y92/FLacIqgEAEjOzAQAAPiyvPh9vf/6SuGt518lBN/7++bgla2MS8cyLz2eXAACYmQ0AAPAhWRHfnTg9rursod3DyGPihn/+hzhjfL4NADDMmZkNAADwoZgW31m1Pu5qnRUHdzXXjtjjgPjCeX8Xv059yQXZAACdzMwGAAAAAKD0zMwGAAAAAKD0hNkAAAAAAJSeMBsAAAAAgNITZgMAAAAAUHrCbAAAAAAASk+YDQAAAABA6Qmzoc5hhx2WrzFQaleMuhWndsWpXXFqV4y6Fad2xaldcWpXjLoVp3bFqV1xaleMuhWndoNDmA0AAAAAQOkJswEAAAAAKD1hNgAAAAAApSfMBgAAAACg9ITZAAAAAACUnjAbAAAAAIDSE2YDAAAAAFB6wmwAAAAAAEpPmA0AAAAAQOkJswEAAAAAKD1hNgAAAAAApSfMBgAAAACg9ITZAAAAAACUnjAbAAAAAIDSE2YPcX/YYhnMZfKUA3odt2x/Ubtii7oVX9Su+KJ2xRe1K7aoW/FF7Yovald8Ubtii7oVX9Su+KJ2xRe1K7aoW/FlKNWuzEZsqcjXGYLK/gQbapqbm2PRD6+Jd9/YEO+980ZlRIH763cvvxyf3GuvfIv+Urfi1K44tStO7YpRt+LUrji1K07tBmankbvGqLH7xOxzWqKtrS0fZSDS5zC1K0btilO7YtStuKFUu51G5CslJMwe4oTZg2vxTfOj8YuH5FsAAAD9s2LlM/GFxm/kWwyEcKw4tStO7YpRt+KE2YNDmD3ECbMHz+ZNr8SbLzyerY/aeUyM2mVsjCjxDy8AAPDh2/zu2/H2W/+WrY/ec1LssvuEbJ3+E44Vp3bFqV0x6lacMHtwCLOHOGH24Hnr96vjndc3xMhRo2O3PcflowAAANv21hu/j00bX4udRo2N3cZ/Jh+lv4RjxaldcWpXjLoVJ8weHE4ACbk/vLsxuxy5867ZJQAAQH+k/+xM/vDum9klALBjCLOhB51FAACAAdGfEAA+EMJsAAAAAABKT5gNAJTSI1ecHId9vm65YkW+Z8d57paLB36fG+6Nps9fF4/kmwAAAOwYwmwAoLQmn319PPbQ7ZXl+jh/fWv/wuVHr4vDZt8bz+WbA3ZsS7f7bLrlpXwHAAAAHyZhNgAwBOwdp9/UEsc9cGvcvCEf2uH2jmO+1BBr139gdwgAAMA2CLMBgCFifEyZ1BFrnk3rK2Jer+1AKuMtD0esa4sT6sa7tw+5uJ+B+Evx4M874rijp+Xb3e+z9xnbL8XNs7vut3urlLpWJGn2+BXX1R2v6zH1+VhTO5PZlduk4+f75z2a7wMAABgGhNkAwJDS8WwKkafF5VkrkLSkGdutebBbGW89KmJSc9yT9l1SDaLHnXZVft3b456zI669dBttSCrHqobF58Z9X7o+Lj8iDaYg+9aYsrh2n9fH8T8/d6sw+ZErzo01s7vu98hLate/PRYe+3DMqW+T8kDE8Z37OuLan1T3bfOxrtsQUy6r7WuI+296H+1UAAAAhhhhNgAwpDTst3d22TWDuTXuz0a2pWtW9Qk3duRjfch6Zl8f50/Kt5NHf1W5j464dlZtVvS5ce26WrBedd8VJ8ec9c1xThZ+57KTQ1ZvM+eBfKxmUkM05KsNE2trybYe6/hoGF9dG7dfvgIAADBMCLMBgKFhw2/ivnUNMWW/yvqj18UJN46PhdkM5h7B81ZS64/W6KidTDLN3N6uveP0y5ojbry1qzVIHJXfX9fSflo1WI94ODomXh8LJ7bFNzvbj6yIebPaoqG1et00k3r7ijxWAACA4UGYDQAMAdVgeO2xp8bp4yOee3ZDxLGfjSPTrizk7j5LOtZ1RNec5g2xZl1DHP+5avD8yC9ST+36/X0Y/+U4p9Ya5IjPxnHxcNzQa5/s5Kg457S948hLWqLhxgXVPtcbflu5j6Pi+GymdrX/dqz/7XbaghR8rAAAAMOAMBsAKK21N56bt/XIZyt39sA+NeuTne27NOKcsxti7c9/Uw2Kjzg1zp/0cMzJbpdOujitsj86W4Tcd3RLFkzf14+TJ6ZwutqPO/XoTkF17fFUltm99atOPbvHV+6rcr+1MDy7/oKI2c0xed3D8eA2Tz5Z/LECAAB81I3YUpGvMwT9wXdv0Lz5wuOxedMrsevYPWN0ZQEAAOiPze9uitdfqf6Jc/cJX8ou6b/m5uZoa2vLtxgItStO7YpRt+KGUu12GpGvlJCZ2QAAAAAAlJ4wGwAAAACA0hNmAwAAAABQesJs6EEbcgAAYECcigoAPhDCbMjtNGpMdrn5nbeySwAAgP54952N2eVOo8ZmlwDAjjFiS0W+zhD0B9+9QbN50yvx5guPZ+ujdh4To3YZGyNKfPZWAADgw7f53bfj7bf+LVsfveek2GX3Cdk6/dfc3BxtbW35FgOhdsWpXTHqVtxQqt1OJc7DhNlDnDB7cC2+aX40fvGQfAsAAKB/Vqx8Jr7Q+I18i4EQjhWndsWpXTHqVpwwe3AIs4e4gYbZy84aESctzjcqJl+5Ph6/sCHf6sOSpvj4pdPjqccvio/6HIP0wrLoh9fEu29siPfeeaMy4sejv3738svxyb32yrfoL3UrTu2KU7vi1K4YdStO7YpTu+LUbmB2GrlrjBq7T8w+p0XAU5BwrDi1K07tilG34oZS7YTZ7DBFwuxvHVQLsJfGWaMbI+7YEosqF30aZmG2F+Vi1K4YdStO7YpTu+LUrhh1K07tilO74tSuGHUrTu2KU7vi1K4YdStuKNWuzGG2E0AOazPjlFkRT67tyLcBAAAAAMpJmD2sLY3bFh8QX/9K3mYkzcAePSJfpsZ1T1eHu0uzuUfEoVenALy63nmbs5ZWr1KRZoCfdVbd8Q5dEM/U7escH90Uy/Lx7P4rt+k6Zl+PAQAAAAAYboTZw9Dab03Mw+LUYmRVnLd/ZbDWSmTTlngjLStnx08PrAuaMx1x3aFz45CVW/I2JTNjUe36m5bEyYsb46wl1Wsmt0dT176Vc+OyfN+MRbXbbIk7Zi2Ok+pC8FgccUrnvtXxrSvq9gEAAAAAw5YwexhKJ33MAuZ8O1l2x+KIlXPjoNqs6APnxtpYEWs7Z0Yvj8sOnRjfOnh+NfzOPXP11M5g/PZ8rGbyQQfkawfEIQfmq8nTC+LQ/H7qT0aZOXB6TM5Xu24PAAAAAAx3wuxha2YsumNW3H5pV/uPmLWkc8Z0dclnbScrF0dctj6ufLJu9vWSpjjoW9Pijuy6lX31gXWflsZZB86Ng++o3sdTVwqsAQAAAIDtE2YPZ42Xx5UxN066uiNmnDQrYvHcvntUHzg/Lm1siPNunx9PnlRtP/LM2hURs5piRtr/9J3x05X9OJnk06vjyZgVpzSmjY64p3115UaruwJ1AAAAAIBeCLOHtWo4Hd9qjOumtMcbd0yLbx2YtxmpLNWTPPaw/0Vxx5Ur4qRDF0RcOD/rk51d/+SIK688INa237ntYLpy+ytTn+zsPhojLpsfk1feFPc40SMAAAAAsA3C7GEmnXyxevLG3P4XxeO1diKN7XUtRuqul8YfvygmVLdiwoWr8u26E0BWtmd0jve8n4Y47/EtsSibjV1/AsjK/Tb2uP+e97NoZr4FAAAAAAxnwmzoh+famqK57bl45DuHxbd/lQ/WqY4/F+1NTdH+L/kgAAAAADBohNnQTxMmjIuGSZPzrZ4mx5TK/gmT8k0AAAAAYFAJswEAAAAAKD1hNvTDuOb2+N5nuy57OvK77dH06a5LAAAAAGBwCbMBAAAAACg9YTYAAAAAAKUnzAYAAAAAoPSE2QAAAAAAlJ4wGwAAAACA0hNmAwAAAABQesJsAAAAAABKT5gNAAAAAEDpCbMBAAAAACg9YTYAAAAAAKUnzAYAAAAAoPSE2QAAAAAAlJ4wGwAAAACA0hNmAwAAAABQesJsAAAAAABKT5g9xO00wmKxWCwWi8VisVgsFovFYrFYBmcpsxFbKvJ1GPaam5tj0Q+vibdf3xDvvfNGZcSPR3+9/PLLsddee+Vb9Je6Fad2xaldcWpXjLoVp3bFqV1xaleMuhWndsWpXXFqV4y6DdSI+NjOH49ddhsfZ/3lBdHW1paPU5QwG+q03zQ/Zh5zSL4FAAAAAO/f0gefiKbZc/MtihJmQ27zplfi9ecfz9ZH7TwmRu0yNkaU/F8rAAAAACinlLq++/ab8e47G7Pt3fY9NEaO3jNbpxhhNuQ2vrw6ay8yctTo2G3PcfkoAAAAABT3+ivPxeZ3N2XtRsbsdUA+ShFOAAm5996t/pVs5M67ZpcAAAAA8H7VsqZa9kRxwmzoQWcRAAAAAAaLrGnwCLMBAAAAACg9YTYAAJTVhnuj6fMnx2Gdy8Vx84Z8347y6HVx2Ox747l8s2pFzCty31sdKx2n+rXMe7SyWb+/1/stIKvZdfFIvgkAwEeHMBsAAErtqFj40O3xWFpax8e1s/oTKr8UN8/OA+OBOuKzcdy6h+PB+vt49Fdx/6Sj4pjx+XZBj1zRGvcf25J9LZcfkQ8CAEA/CbMBAGCoOOK8uOfsiGt/siIf2BGmxfHHdsR9//hSvh3xyC8ejslfOjzG5dv9Vnm8j9305fx2L0XH+ojjjp6WbWW67R8k478c7Q+dF0fmmwAAfHQIswEAYAgZt9/4iPW/zdpxPHfLxb22IHnulgVx7bqI+1vqx7tafGTLFX0H4kcefVSs/flv8pYfK+K+Bxri+M/tXVmvzvje+hi1meC1/dfFI6ltSLpO1jokjZ/b9ZjS7brt76n6WJtuSYF634/7kSt6jHe2ZdFmBADgo0iYDQAAQ826juioXIw77apq+5HKks3YvrQaDI877aI4f1LEca1p31VxetYeZFpcXmtX8lBLHPdAa99tSOpbjWz4bXRkLUaqgfSa2bVj3B4LozUPnKs6bro14rK077w4MptF3pDv2TtOv+n6rsd0ybR8lnltf710P7fGlMW3R/tpKUDv63FXQ/bzK9fL9qVjplnZrUelnQAAfAQJswEAYKiZ1BDVGLhr1vIJN6Z4e9u6ZnK3xv35WO+qrUbWPFu5zT8+HJFajGz4TdzXOdu7usx5IGLt+rrm2l86NQ/Oi+qIG9IM7ondj9P7464+xv71EAcA4KNAmA0AAENI6l8dE/84xmUzmFuj4+zrqzOTtzcj+dHr4oQbx+cnk6zOkt6WI89ojo5f3BsP/jzyFiNJ3Uzo2pJmROca9qtdr6B1la9tduWxra+bNb6Nx33kJWnsoohLT+6jXQkAAB8lwmwAABgi0gzlOam1xhkpQN4Qa9bVelnnIXfefqSm49muFiDPPbsh4tjPVk+MmM+yrt+/lfGHx/Hr2+LaSC1G8u1JHTv25JOTmuOcI/aO0y9rjo6Wat/r7T/u6vUn9/jaAQD46BFmAwBAqT0cc/K2HtUZyl09sM9JfbJnVffdd3RLHFe57n3ZjOa94/TZR8XaG8/N9qW+1uNOOzXrN52167g0KrdtqDvJY2/2jmO+1BDHzf5yjMu3s77X6/NjZMsOOtHi+C/H35y9IebMvjeiz8ddd2LIWW0RZ59aDbwBAPjIGrGlIl+HYe315x+PzZteiV3H7hmjKwsAAAAAvF+b3nwl3qosI0fvGbvte2g+ShFmZgMAAAAAUHrCbAAAAAAASk+YDQAAAABA6QmzoQdN5AEAAAAYLLKmwSPMhtzHRo3JLje/81Z2CQAAAADvVy1rqmVPFDdiS0W+DsPa5k2vxOvPP56tj9p5TIzaZWyMGJFtAgAAAMCApNT13bffjHff2Zht77bvoTFy9J7ZOsUIs6FO+03zY+Yxh+RbAAAAAPD+LX3wiWiaPTffoihh9nCypCnGfHt6rFp+UUzIhyo/SnHmLnPjkFWrYs7++VB/bHWsdJzGuK2ydsqdW+LHUbf/6QUxferyaH27PWZk1y2qIxZOnxhPfK9y/MZ8aJA1NzfHoh9eE2+/viHee+eNyogfj/56+eWXY6+99sq36C91K07tilO74tSuGHUrTu2KU7vi1K4YdStO7YpTu+LUrhh1G6gR8bGdPx677DY+zvrLC6KtrS0fp7AUZjNcLNlyxs4HbLl2Xb6Z/N+ztuw6bf6Wjnyz33rc7v4zY8uuZy7Jtyrq96+bv2XazrO23J/teD/Wb7l2Wmw54//ON3eA008/PV9joNSuGHUrTu2KU7vi1K4YdStO7YpTu+LUrhh1K07tilO74tSuGHUrTu0GhxNADisz49Sm1fHTuzvy7YhldyyOKaefWDdTu58a22Nj56zsjljzRMQpJ83MtjLd9g+WhpizfMfNygYAAAAAykuYPczMOGlWrLn5zngm21oat7YfEF//SkO29czVU2PMLiPypSmWZaMRy84aEdOv7sgux+wyNRb+XVP1OtMXVI5Tbf3RsjLithMrY2ctrbYg6dzfU7p+fr2K6jFrS9d9dh6jczy/XWX7zCX5dQAAAACAYUOYPdw0NsUpK2+Ku5+urD+9Op48cHZ8Zf9qkD31qfmx8e0t1eXOiK/Vh9E3N8atJ6V9q2LON9pjVesB+Y40W3p9tB5Y7ZW9cdHMbFZ21/7ulp1V7XmdXa9ixqL8/irLXU2L42u1kDvNGG9dn+9LvbbT/SyJU7K9AAAAAMBwI8wedqqtRp5YE/HM3TdFZC1GOuLum1dHtDd2zYY+cXHEyuWxNr/VmkPmv+/2HreeNSK+9sT8+E79cdLJIfP7/Fp7PlaRzSBvmZjNCAcAAAAAEGYPQzMumR9P3rEg7r45OluMJF0zoWtLmhGd7zuo95nW/bc4njxofdx1yNw4sTOgXhpnTp0bB6cZ3ZX76zabO/XcrozdGSlgnxoL00xyAAAAAGDYEmYPR/ufGF9/Ym60RLXFSGoV8pXTD4g1LfO6elYPulnRemFDzFi0JA5uaayG06nNSWX81Gymdj47/InV3fpsT7hwSbQeWJ1JDgAAAAAMX8LsYakaXp/yvYtiQj4y4cJVsap1RXyt1maksuyYEy3OjB/fOS1apjbFsv0vitbUJzu7v8aI782PKXk/764TQ06MlujRmgQAAAAAGHaE2cNUCq979sBOY/VtRmr700kal1/Y1Y4kya67vBaGp5Mzdl0/6bZ//4tieV3LkmoLkep21wkgV8WcxnS9yuX+3U8M2XU/M+PHdY8LAAAAABg+hNnQD8/9fVM0/f1z8cilh8W8f8wH61THn4ubZzXFzf+SDwIAAAAAg0aYDf3UMGFcNEyanG/1NDmmNKT9+SYAAAAAMKiE2QAAAAAAlJ4wG/ph3J+1x+Wf67rs6cjL2uP0T3ddAgAAAACDS5gNAAAAAEDpCbMBAAAAACg9YTYAAAAAAKUnzAYAAAAAoPSE2QAAAAAAlJ4wGwAAAACA0hNmAwAAAABQesJsAAAAAABKT5gNAAAAAEDpCbMBAAAAACg9YTYAAAAAAKUnzAYAAAAAoPSE2QAAAAAAlJ4wGwAAAACA0hNmAwAAAABQeiO2VOTrDEV/eDtfYTA0NzdHW1tbvsVAqF0x6lac2hWndsWpXTHqVpzaFad2xaldMepWnNoVp3bFqV0x6lbc0KndiIidds7Xy0eYPdQJswdVemFZ9KOF8fYbL8R777yZj9IfL//ud7HXJz+Zb9Ff6lac2hWndsWpXTHqVpzaFad2xandwOw0cpfYecwn4xvn/GcBT0HCseLUrji1K0bdihs6tRNmsyMJswdV+6JrYuYXD8u3AAAA+ueJp9bH0Y1fz7cYCOFYcWpXnNoVo27FCbMHhzB7qBNmD5rNm16L11/8p2x91M5jYtQuY2NE5ecXAACgL5vffTvefuvfsvVd95gQo3f/dLZO/wnHilO74tSuGHUrTpg9OITZQ50we9Bs/P3/m7UXGTlqdOy257h8FAAAYNveeuP3sWnja/GxUbvGvxvnPz0HSjhWnNoVp3bFqFtxwuzBsVN+CcPee5vfyi5H7rxrdgkAANAf6T87k/ferX6mAAB2DGE29KCzCAAAMCD6EwLAB0KYDQAAAABA6QmzAYAPz4Z7o+nzJ8dhncvFcfOGfN8O81LcPLv+Pk+OeY/muz4kz91ycRx2xYp8CwAAgN4IswGAD9lRsfCh2+OxtLSOj2tn9SfQrgbS7yeEPq41v8+HWiJaPvxAGwAAgG0TZgMA5XHEeXHP2RHX/uSDnKU8LY4/NqLj2ZfybQAAAMpImA0AlMq4/cZHrP9tPFdZz9pv9NKC5LlbFsS16yLub6kfXxHz6lqHFGvb0aMFSecx0vjFMe+KusdTd/xHrqi7TWVpuqUajHcfvy4eyUar6r+2E27syEf7/pq39fWl+5l3xXVd+2bfm9UPAADgo0SYDQCUz7qOSPHuuNOuyluB3F6dsX1pNaQdd9pFcf6kWquQq+L08elG0+LyWruSh1riuAda+9k6ZEXc90BDHP+5iJtnnxtrZteOcXssjNbOYDoqj6hj4kXVfYubY/IDt2ZBcwqf56xvjntq91u5ZsN+e2e3OPKSumMd+3DMqQXQj14XJ/z8qPw26WtrqI5X9PU1b+/ruz8+27VvXVvcoG0KAADwESPMBgDKZ1JDVOPdrtnI9bOX+9I1q7k17s/H+lKd1V29brReFafHb+K+ztne1WXOAxFr13c18K6F1DH+j/PHtx11J7hMx6p55BcPx+QvHR7j8u3u+v6at/X1TZ6YJfoV42PKpHwVAADgI0SYDQCUSgp6Y+Ifx7istUdrdJx9fXXGcetR+TX6kGY73zg+P5nk9dnM7W3pOgHk7XH5EflgNMT5i7vGs+WSafm+3mWzxKMtTqiFzMe25MdbEfNmtUVDfj/1s6/7to2veYBfHwAAwEeNMBsAKI2sZccDDXH+GSlA3hBr1qX2H9XZ0FnInbcfqak/aeNzz26IOPazcWTa2FCdZT2gkzqOPzyOn9Qx8JNPpvuKWpuRuvB7w28rj/WoOD4Ltl+KB39eeeR5L/CGiQ2x9ue/6aWvdd9f8/v++gAAAIY4YTYA8CF7OOZ0ttVIM4+7emCfk3pGz6ruu+/o1I/64bgv6wW9d5w++6hYe+O52b7U13rcaadmfaSzNhyXRuW2fQXGfakc86br4/z1+TGypftJG/u0rjYzu7pkvazHfznOSX2ys7EFEbObY/K6h+PBDdW+2Asndt2mq51I31/z+//6AAAAhrYRWyrydYaiP7ydr/B+vf7iP8XmTa/FrmP3jNGVBQD6Z0XMuyLi8nxGdppdfsL6U7fbngSAj47N726K11+p/nlxz/0+m13Sf83NzdHW1pZvMRBqV5zaFaNuxQ2d2o2I2GnnfL18zMwGAHg/0vkh62ZzZ7PLBdkAAACDTpgNAPB+jJ8Wl9+U98vOlvOqfa0BAAAYVMJsAAAAAABKT5gNPWgiDwAADIhTUQHAB0KYDbmPjdw1u9z8zlvZJQAAQH+8+87G7PJjo6qfKQCAHWPElop8naHoD2/nK7xfmze9Fq+/+E/Z+qidx8SoXcbGiBHZJgAAQK82v/t2vP3Wv2Xru+4xIUbv/ulsnf5rbm6Otra2fIuBULvi1K4YdStu6NRuRMROO+fr5SPMHuqE2YOqfdE1MfOLh+VbAAAA/fPEU+vj6Mav51sMhHCsOLUrTu2KUbfihNmDQ5g91A0ozH4mFh42JVpW5psVp/xfm+LHjfnGh+CZaw6JqU99PzbedFw+8uFKLyyLfrQw3n7jhXjvnTfzUfrj5d/9Lvb65CfzLfpL3YpTu+LUrji1K0bdilO74tSuOLUbmJ1G7hI7j/lkfOOc/yzgKUg4VpzaFad2xahbcUOndsJsdqQCYfYT360F2PfHmbt+NeJDDLTLGGZ7US5G7YpRt+LUrji1K07tilG34tSuOLUrTu2KUbfi1K44tStO7YpRt+KGTu3KHWY7AeSwdlycOiviyX9+Jt8GAAAAACgnYTa5NGt7dIzZNV9m3183fkicOfuQXvZFLJtdd5vKMv2aajDeffyMWJaNVqXZ2LV9U7+1Jh+tePramN55m65jJX0eb8kZlcdzRpzZue+QWPh0vg8AAAAA+MgQZg9r98eti6fE10+IzvYjG9+qLnfFV+vC5DXx5EE/q+576vsxZfF/yQLjFEp/7cnvx6rsNj+LUyrXPPjfT8huMeOmumPNujW+VgvAl5wRU9vPyG+zKVZdOaU6nux/fizPx9P9xLe+2hlM93m8ZHHEqZ371kTLlXX7AAAAAICPBGH2MHTb/682izn1y34i5sTP4qcr68dHx9cWR6x5qmvWdC2kjv2nxMHVtW2rm2WdjlWz7M5bY0rTVyM/2lY6Z2Af9F+ibs52n8fLHHhITM5XJx9UF44DAAAAAB8Zwuxh6JT/q2uWc9eJH6dE61Nd49mynZMyTrjgZ9Ea/yWmZiHzV+O2WT/rOrHkQf8lDs7vp9vs623obaZ3VbHjAQAAAAAfHcJsIvb/anz9wALtOZ7+Wfw0auFzXfj99Jp4Mk6NU7Ng+5m4u31NxJNrKmvVmdNr2n+Wrfe09qk1XbO2l9wat8WaeCJNz97G8QAAAACA4UGYTcWEmPPYmmh98qvVFh/Z0v2kjX1aWZuZXV3OXFIZ2//8aE19rbOxr0Z89/sxZeVP4u6n02zuJ+Kug7tuU38CyBnfSn2yp1SPdeepcdesiNvuvH+bxwMAAAAAhgdh9rCSQuv61iL1qvs6W4y89ZOYUTfedZvj4sdvPRFz9q+spv7Zs/ITQ1aW1P4jC58ruk7YWLluYzqxY36bbvvypTaju/4EkJWx7Hr5vj6P1/iT2PjY+dXZ3BUpLN9eexQAAAAAYOgRZlNcmhldN5t76rcOibs+okHyc21nRlPb8/HIfz0y5v0qH6xTHX8+bj79zLj5X/JBAAAAAGDQCLMpbv/j4se9zub+aGqYsG807P/v862e/n1MSfsn5ZsAAAAAwKASZgMAAAAAUHrCbOiHcc0/jss/23XZ05H/9cdx+qe7LgEAAACAwSXMBgAAAACg9ITZAAAAAACUnjAbAAAAAIDSE2YDAAAAAFB6wmwAAAAAAEpPmA0AAAAAQOkJswEAAAAAKD1hNgAAAAAApSfMBgAAAACg9ITZAAAAAACUnjAbAAAAAIDSE2YDAAAAAFB6wmwAAAAAAEpPmA0AAAAAQOkJswEAAAAAKL0RWyrydRj2mpubo62tLd9iINSuGHUrTu2KU7vi1K4YdStO7YpTu+LUrhh1K07tilO74tSuGHUrTu0GhzAb6qQXlkU/vCbefn1DvPfOG5URPx799fLLL8dee+2Vb9Ff6lac2hWndsWpXTHqVlwZa7fTx3aJUWM/GaN3n5CPlJMPjMWpXTHqVpzaFad2xaldMepWnNoNDmE21Gm/aX7MPOaQfAsAgL6MHL1n7Pap6ZVPFCPykXLxgbE4tStG3YpTu+LUrji1K0bdilO7wSHMhtzmTa/E688/nq2P2nlMjNplbFk/mwEAfGje2/xObNr4Wra+y7/7dIz5xORsvWx8YCxO7YpRt+LUrji1K07tilG34tRucAizIbfx5dVZe5GRo0bHbnuOy0cBAOjp7Y2vxcY3fh8jRuwUe0w4Jh8tFx8Yi1O7YtStOLUrTu2KU7ti1K04tRscO+WXMOy99+7G7HLkzrtmlwAA9C79B1uyZcsf4g+bN2XrAACwowmzoQedRQAAAACgfITZAAAAAACUnjAbACoeueLkOOzzdcsVK/I9O9Cj10XTLS/lG1XP3XLxB3PfNZXHcNjse+O5fHNA3s9tAQAAYICE2QCQm3z29fHYQ7dXluvj/PWt/QyVV8S8z18cN2/INwdo7Y0LCt8WAAAAhhNhNgBsZe84/aaWOO6BWz+AoLkjrr30Q5zdfMR58dhNX45x+eaAvJ/bAgAAwAAJswGgV+NjyqSOWPNsdat7G5Lr4pHqcGW8Ne5PgfSsrvGsVUjndbcza3tScyz80sNxQh+zwLsfq+t+Y8O90dQ5Xr8vzRTvGu9qY/JS3Dy7x3hqE5K2a61CehxzQLcFAACAHUyYDQDb0PFsNdA98pLUfqS6LDz24ZiTh89HXtISx0VDnL847TsvjqyMjTvtqs7r3nN2bHfmdcNpF2VtTeY9mg/kUpB9wvpTO4/1WGvEnCw8XhHzZrVFQ2vtPhoiJjVUHkUKnVujo7NdSks03Hhu9bgbfhP3rTsqFubHaj9t72xmdXbbmvFfjvZ8/2OLmyNqLVD6c1sAAADYwYTZALANDfvtXV2pm7U854HqUN+6ZkefcGNHPrYte8fplzVHR8t18WA+kmZDP/jzym0faO2cEX1Yy8MR6zqizyNmoXNDHP+5/DHHtDj+2DyQH394HD/p4ZhTP7u7F50z0Ge1xdp8rL+3BQAAgB1JmA0AvcmD4Sn7pY1eZkL3qcfs6Naj8vHtSLOiWyOu7RF+d52Usrak2d/T4vLKce9vqQXmEedftr3e1akPeLr9Z+O+FFb30tYkzQSfs7457snuJ804r9n+bQEAAGBHE2YDwFaq4fXaY0+N08dXNjf8NjriqDj+iLQvnzG9/rd1rUO6emtXrhxr6mZHP/KL7cymrnfEebHw2Hw99o5jvtQQa2+8tdfZ0Om4x+Xh+mMPXVV9nNkM6o647x/zXtcb7o0bHqibXZ6pBuHdH39Vx/qOmPylw6uh+KO/ynqBd31dSd+3BQAAgB1NmA0AubU3npu39MhnVl8yrbpj/JfjnNQnO9u3IGJ2c0xe93A8mJ3YcVqcc3ZD5yzpeY+m7chPCHly3Hd0muH8cNzXox92X6o9uKtS7+17zt6Q32/t+PnOitp9ZkvWSzvNoK72yc7GZrVFVL6Oy1MIX39yx5aH47jZW8/kPvKM1Cc7v+0vPpsF6/f/YkW/bgsAAAA72ogtFfk6DGuvP/94bN70Suw6ds8YXVkAyuy5W66LBz93XnVGdtaj+9aYsjifoQ2wg/3hvc3x2u//d7a++6ePip1Gjs7Wy6S5uTna2tryLQZC7YpRt+LUrji1K07tilG34tRucJiZDQBD0obO2d/VmeQXCbIBAAD4SBNmA8AQlFqQ1J8Ysv20+r7YAAAA8NEjzAYAAAAAoPSE2dCDJvIAAAAAUD7CbMh9bNSY7HLzO29llwAA9O7dt9/MLkeM2KmUJ38EAOCjacSWinwdhrXNm16J159/PFsftfOYGLXL2MoHtGwTAIDce5vfiU0bX8vWd/l3n44xn5icrZdNc3NztLW15VsMhNoVo27FqV1xalec2hWjbsWp3eAQZkOd9pvmx8xjDsm3AADoy8jRe8Zun5qepmfnI+XiA2NxaleMuhWndsWpXXFqV4y6Fad2g0OYPax0xMLp82LK8vaYkY9ELI0zd5kbh6xaFXP2z4d2qPQYJsYT39sSP27Mh/rt/dy2f9ILy6IfXhNvv74h3nvnjcqIH4/+evnll2OvvfbKt+gvdStO7YpTu+LUrhh1K66MtdvpY7vEqLGfjNG7T8hHyskHxuLUrhh1K07tilO74tSuGHUrTu0GhzB7WKmGwS2HLImNi2bmY8Lsel5YilO7YtStOLUrTu2KU7ti1K04tStO7YpTu2LUrTi1K07tilO7YtStOLUbHE4AORy1N8aZS/L1D1xDzFleNIx+P7cFAAAAAIYyYfYwdMqdSyJOnBoLn84HukkztUfEmHyZfnVHPh6x7Kyu8fp9z1w9tW68KZZloxVLmnqMp5nV1e1amN79mAO7LQAAAAAwfAizh6WZ8eM7p0XLf1oQz+QjVbWWI1ti49tpWR9fv3liFh6nwPprT8yPVdn4kjilcu2DJzdkofPUlmlxVza+JVa1roivTa8ed9kdi2NK6/r8WKlPd5pZXb1tzYxFtfvaEnc1LY6vnbU0G+/PbQEAAACA4UOYPVw1tsddh8yNE69enQ9ULGmP22J1tEytzYieGC0rI55c2zU7u6cUOkdTU+cJJSd8ZXZMWbk81lbWZ5w0K9a0TOw2u3srTy+I6fkM7K+152MV/botAAAAADBsCLOHsRmL0szruXFbvl01q3OWdW1ZfmFDTLhwSbTG3JiaBc+NcVvTku33rm5sz25/ZzRWbtNbW5OlcebUuXHwndX7WdV6QD5esd3bAgAAAADDiTB7WGuIOf//+TEl34rGpjglFkdLb7Ohn74zfhq1NiOVZdHMbDjNoI729s5e18uumBtrDpwek/PtJAvCD1wdT6zJB2qeXh1Pxqw4NQvFO+Lum1dHPLG6W+uTPm8LAAAAAAwrwuzhbv+L4s7WafnGzPjx20vi4JaJWduPbMn7X2dW1mZmV5fsRIyN7dU+2fnY19pnxV3LL4oJlV1dJ3ecGC0xP77TcyZ35b5bU5/s7DqVnd+bH1NW3hR3P92P2wIAAAAAw4owe1hJJ1HcslV7kAkXtsec/fONLNDuajGyMQ+mY/8D4uCmJZ3jqSXIbXdUT9Y44cJVXdfPTtZYVX9yx87j5MevPYau66yKOY0XxfJ0WXks/bktAAAAADB8CLPpn9Sz+onUv7o6Y3pqy7S4K281Mhw89/dN0fT3z8Ujlx4W8/4xH6xTHX8ubp7VFDf/Sz4IAAAAAAwaYTb9s//M+PHyutnSdTOwh4uGCeOiYVJ9N/B6k2NKQ9qfbwIAAAAAg0qYDQAAAABA6QmzoR/G/Vl7XP65rsuejrysPU7/dNclAAAAADC4hNkAAAAAAJSeMBsAAAAAgNITZgMAAAAAUHrCbAAAAAAASk+YDQAAAABA6QmzAQAAAAAoPWE2AAAAAAClJ8wGAAAAAKD0hNkAAAAAAJSeMBsAAAAAgNITZgMAAAAAUHrCbAAAAAAASk+YDQAAAABA6QmzAQAAAAAoPWE2AAAAAAClJ8we4v6wxWKxWCwWi8VisVgsFovFYrFYBmcpsxFbKvJ1hqCyP8GGmubm5lj0w2vi3Tc2xHvvvFEZUeD++t3LL8cn99or36K/1K04tStO7YpTu2LUrTi1K07tilO7gdlp5K4xauw+Mfuclmhra8tHGYj0OUztilG74tSuGHUrbijVbqcR+UoJCbOHOGH24Fp80/xo/OIh+RYAAED/rFj5THyh8Rv5FgMhHCtO7YpTu2LUrThh9uAQZg9xwuzBs3nTK/HmC49n66N2HhOjdhkbI0r8wwsAAHz4Nr/7drz91r9l66P3nBS77D4hW6f/hGPFqV1xaleMuhUnzB4cwuwhTpg9eN76/ep45/UNMXLU6Nhtz3H5KAAAwLa99cbvY9PG12KnUWNjt/GfyUfpL+FYcWpXnNoVo27FCbMHhxNAQu4P727MLkfuvGt2CQAA0B/pPzuTP7z7ZnYJAOwYwmzoQWcRAABgQPQnBIAPhDAbAAAAAIDSE2YDACX2Utw8++Q47PNdS9MtL+X7dpxHruh+P8/dcnEcNvveeC7f/sA9et2He/8AAAAlIMwGAErvuNbb47GH0tISDTee269AOwugr1iRb70PG+6Nb944Phbe9OUofHpgYTQAAMD7JswGAIaQaXH54uaIG2+NR/KRHeuluPnStoizT40j8xEAAAA+HMJsAGBoGf/H0RAbomNDZX3DvdHUWwuSbDZ1R8QDrd3GU/uQ2nUP+/x12w3En7tlQVwbzfE3p+2dj1T0uM95j+bjafb1FdfFvM59F8fN6THGipjX8nDEurY4IY3ns8VrrUyqj6l63f49vsrxKvv7MzsdAADgo0SYDQAMQR2x5tnKxfgvR3vWfqSyZDO2F1QD5Mr435zdEHFsS7avPQ+jj7yk1q7k9lh47MMxZ1ttSNbfWg3Eu1kR82a1RUOt7UnlPjtaaqF1xQMRx3cevyOu/Uk6/rS4vPWoiEnNcU/ad8m06nWTny+I+45O178qTh/fn8eXeojfGlMWd31NAAAAw4UwGwAYghpiyn7Vtc7ZzLPaYm11qG91s6rnPJCP9WFtZf85KVSe2BbfrM2CfvRXcX8cFccfUd2M8YfH8ZPyYD2Z1FB5ZFUNE2trfVs78dS4vHasZJuPryNumH1uXFu5TQq+AQAAhhthNgAwtGSB8vhoGF89yeOc9fmM54da4rj8Kr3rPqv6njRzexsm532yjzxjx/XonjyxPpXezuNb93DE7Ovj/PWtXa1NAAAAhhFhNgAwdKSZyy0PdwbNHes7YvKXDo9xaV8WctfNkk7W/zaey1djw28re2uzql+KB3/e0X1/X8Z/Oc459uG4Ic3OPuKzcVw8HPd19sm+Na5d1zVLfJvWdVTufxu29/gmNcc5R+wdp1+WWptsv983AADAR40wGwAovftbulqJpJnLnT2ws1nT51b3/eKzsfDYynV/Ue0zPe60U+O42kkXZ98bz+Wh9JysjceCiNnNMXndw/Fgrd/1Nhx5SUs0VO5n3qPT4vKsT3b+eFoejuNaq/2ut+mIU+P8SbX77iOI7u/jy/qBb4g56WvKhwAAAIaDEVsq8nWGoD/47g2aN194PDZveiV2HbtnjK4sAAAA/bH53U3x+ivVPzHuPuFL2SX919zcHG1tbfkWA6F2xaldMepW3FCq3U4j8pUSMjMbAAAAAIDSE2YDAAAAAFB6wmwAAAAAAEpPmA09aEMOAAAMiFNRAcAHQpgNuZ1GjckuN7/zVnYJAADQH+++szG73GnU2OwSANgxRmypyNcZgv7guzdoNm96Jd584fFsfdTOY2LULmNjRInP3goAAHz4Nr/7drz91r9l66P3nBS77D4hW6f/mpubo62tLd9iINSuOLUrRt2KG0q126nEeZgwe4gTZg+uxTfNj8YvHpJvAQAA9M+Klc/EFxq/kW8xEMKx4tSuOLUrRt2KE2YPDmH2EDewMLsjrjt0Yjxx2ZZY1FgdWXbWiDgplsQbi2ZWBz5g6f6/ddD6ePzChnzkw5VeWBb98Jp4940N8d47b1RG/Hj01+9efjk+udde+Rb9pW7FqV1xalec2hWjbsWpXXFqV5zaDcxOI3eNUWP3idnntAh4ChKOFad2xaldMepW3FCqnTCbHeZ9hdlLmuLjl06Ppx6/KAr/I9z7PEYZw2wvysWoXTHqVpzaFad2xaldMepWnNoVp3bFqV0x6lac2hWndsWpXTHqVtxQql2Zw2wngBy2lsZZJy2Oky97H0E2AAAAAMAHRJg9TC07qzFun7Wks91I8szVU+Pjo0fkS1Msy8fT7Omzzmrq2nfogngm21MNxGPl3DgojZ+1tDKWZn9Xrr+kelk9TuV6ncetXa8XaZb36Klx3dP5NgAAAABATpg9HN3RFCmD7mZJUxz0rWlxx6Yt8UZleerKFXFSZ2gdcXs0ZeNvbFoSJ6+cG5ctSaMzY9EdsyIOnB9PpX11fbefvHRe5Ubp+u0xI10vP252+8WNcVZ2+zpPL4hDU7uSTavivP3zMQAAAACAnDB7GLr9yRQar48rn+wKlZfdsThiVlPMqG7GhK/Mjskrl8fafHvyQQfkawfEIQfmq9vSdHm3ULpr1ndj3J6PdXpqXhx64Nw4WMsTAAAAAKAPwuxhqNonuyHOu2xW3H5p1+zrwXTw5LoTOnab9b0+ruwRhq9dHHHlyvnx5EldrU0AAAAAAOoJs4ezxsvjyqi2DJlx0qyIxe1dfbKvmBtrD5wek/Ptbaqbwd2bZ9au6Jr1/fSd8dOVEU+u7cj2JZOvvDxm7H9R3JFam/TVTxsAAAAAGNaE2cNaQ5x3e5oRPTWum9Je7ZOdn6TxpMWz4o7H+9H2IwXiBy7Ob9f7zOoJF87P+mRnbUZOjrjyygNibfudW80In3Dhkqz1yaFXdwXdAAAAAACJMHtYaYjzHt8SixrzzWT/i+Lx/KSLEy5clZ+ksXbixqoZi7bE4xfW2ob0PEZ1u+s2vdxH/QkgH78oZqT7yYPy3o7dtQ0AAAAAUCXMhn54rq0pmtuei0e+c1h8+1f5YJ3q+HPR3tQU7f+SDwIAAAAAg0aYDf00YcK4aJjUVxfxyTGlsn/CpHwTAAAAABhUwmwAAAAAAEpPmA39MK65Pb732a7Lno78bns0fbrrEgAAAAAYXMJsAAAAAABKT5gNAAAAAEDpCbMBAAAAACg9YTYAAAAAAKUnzAYAAAAAoPSE2QAAAAAAlJ4wGwAAAACA0hNmAwAAAABQesJsAAAAAABKT5gNAAAAAEDpCbMBAAAAACg9YTYAAAAAAKUnzAYAAAAAoPSE2QAAAAAAlJ4wGwAAAACA0hNmD3E7jbBYLBaLxWKxWCwWi8VisVgslsFZymzElop8HYa95ubmWPTDa+Lt1zfEe++8URnx49FfL7/8cuy11175Fv2lbsWpXXFqNzAjdhoVo8bsFaP3mBB/9mdnRFtbW76H/kq/X9WtGLUrTu2KU7ti1K04tStO7YpTu2LUrTi1GxxmZkOd475wcLzx4hPx7sbfxR82v1VZNln6ufzRHh/vddyy7UXdii9qV3xRu4Et773zemx6tSNe3/A/Y8/dx+a/MQAAAPigmZkNuc2bXonXn388Wx+185gYtcvYGFHyf60AYMd7773NsenNV7L1/7XmX+Jzx5+ZrdN/ZqEUp3bFqV1xaleMuhWndsWpXXFqV4y6Fad2g0OYDbmNL6/O2ouMHDU6dttzXD4KABHvvP1mvPnai9n67p8+KnYaOTpbp3+8cS9O7YpTu+LUrhh1K07tilO74tSuGHUrTu0GhzYjkHvv3Y3Z5cidd80uAaBm51262oukNlQAAAB88ITZ0IPOIgAAAABQPsJsAAAAAABKT5gNUDaPXheHff7kuuW6eCTftcNsuDea+rrPbN/7fAzpa5p9bzyXbwIAAAAMlDAboIwmNcc9D90ej1WWe87eEHP6FSaviHmfvzhu3pBvDthRsTC/z4XHPhxzrliRj39Y3u/XAwAAAHyUCLMBSm7caVdl4fINt7yUj+x4Rx59VMT635pJDQAAAJSGMBtgCGiY2BBr11enKD9yRe/tQB65ojXuj464dlbdeI/2IU39DMQf+cXDMflLh8e4fLvec7dc3Hm8w+pnTqf7mn1dzJvddX/zHs33dZNmXNc9lm5tVbqO1+vXAwAAAAxbwuxhpSMWTh8RY3bpWs5cku/K93VtFzEYxwD6lM+UPvKSaiuQnu1AjrykJY6Lhjh/cdp3XhyZBsd/Odrz6z62uDnixgXbaNtROVYeKt939O3Rftre+Xh3aaZ47f7vOTvi2kvremGv2xBTLqvta4j7b+rZJ/uluHn2rTGl8hiz46cg+6aGzpYqjy0+Ku6bVQ2ue/16AAAAgGFLmD0MnXLnltj4dmW5c1bcdmJTLMvHPyzPXD01xpy1NN8C+jTxj6szpetmW895INuzTZ0zuWe1xdp8rHddPbOP/8W2ZkNXZ1anY55wY0c+VjM+GsZX18btl6906ogbZp8b1048NU7Pd6UZ4LGuLU7Ij1d9jBuiQ59sAAAAoAdh9nDW2BSnxIpY83S+DZTUS/Hgzzti8sSUAK+IebPaoqG1a/bztqSWIHPW104mmWY698+Rl1wf5096OO7bqk1ImlndGh1nX1+dSd16VD7eD+sejphdOe761u7tR45tqR6rc7mqM+wGAAAAqBFmD2dL2uO2A2fHV/bPt7tZGmfWtSOpnzm97KwRceZZTV37pi+IZ/J99bIZ17vUZn73aHFSO97TC+LEltUR7Y3Z+PSre87yBB654ty4dt1RcU5qy7Hht5WfpqPi+CPSnmrI3f1EjR2x5tl8taJjfUdX7+tHf5X1oK7f37cNsWZdQ0zZL9/snC1dHT/+c9UWJNWZ1R2Vo/bDpOY454i94/TLmqOjJW8lkk40+cCt22h90t/HCwAAAHzUCbOHodtOzAPlO5pi4/KLYkI+3t3M+HFqRZItS+KU9sZuvbBvi8pta/tWzo3v9uyTvaQppj41v7K/PWZECrInxhPfqx1vS9wVjdXgev+L4s7WAyKalmTjyy/c9ixTGDbqWm9UZ1Z39cA+J/XJzvYtiJjdHJPXPRwPZmHwtDgn9aluqd4uzX4+8ozUJ/vcaguPX3w2Fh4bcf8vqj22t9bVM/uwz7dGtOYzpLP7TCdiTCdnTPcR+UkZU2/tNNu7txnc21A53t+cvSHmzL43njvivHisdXzn8dLSdZLKrb8eAAAAYPgasaUiX+cjrytU/nFjZXNJU4w5cXHWQ/vHjT32VaSZ1VPTrOlc9XrVmdktB63Pg+f62+Xrh8yK29pXROuqVTEnzfp+ekFMnzo31mRHqZMC7EUzq/eTgu/K+ofp9ecfj82bXoldx+4ZoysLANR75aX12eVu+x4aI0f7PTEQzc3N0dbWlm8xEGpXnNoVp3bFqFtxalec2hWndsWoW3FqNzjMzB7OGttjVesBcdsdvZx8Mc2sbpkWd2UzqddH64H5eD/c9sT0WHXntGj5T/XtRw6I1lVdM7Oz5UMOrwEAAACAoUOYPcytfWp1TDnogHwr4sm11c63z6xdEdHUFDPSxtN3xk9Xdu3bnlO+d1FMaGyPuw6ZGydmrUROjK8fuDparuglNK95YnWvfbcBAAAAABJh9jDU2TO7snwtluTtQhpizvdmxZqWiVkv6wkXzs/6ZGfX+08Rra0HxJqb7xxQ4Dxj0ZI4uHK8M5dUjr18fbQ+kR8vW2onhozqfa2cG1PTeB8nkwQAAAAAhjdh9rCSQuVttPpobM/GquF23Qkgl18UMy5c1XmyyBmL6k/UWD1mtc92/XpSPUb9vq77TieGrOl+X72fkPKDo4k8AAAAAJSPMBtyHxs1Jrvc/M5b2SUA1Lzz9pv5WuXN08hd8zUAAAA+SCO2VOTrMKxt3vRKvP7849n6qJ3HxKhdxsaIEdkmAMPYe+9tjk1vvpKt/681/xKfO/7MbJ3+c+b24tSuOLUrTu2KUbfi1K44tStO7YpRt+LUbnAIs6FO+03zY+Yxh+RbANDlY6PGxrzv/zSuu/7GfIT+8sa9OLUrTu2KU7ti1K04tStO7YpTu2LUrTi1GxzajECd+3/5ZHx8n0Ni1JhPZv9GvtPI0ZZ+Lv/66hu9jlu2vahb8UXtii9qN7DlYzvvFqP3aIjdxv8f8cprXe1GAAAA+GCZmQ11/JWsOLUrRt2KU7vi1K44tStG3YpTu+LUrji1K0bdilO74tSuOLUrRt2KU7vBYWY21Fm9enW+xkCpXTHqVpzaFad2xaldMepWnNoVp3bFqV0x6lac2hWndsWpXTHqVpzaDQ5hNgAAAAAApafNCAAAAAAApWdmNgAAAAAApSfMBgAAAACg9ITZAAAAAACUnjAbAAAAAIDSE2YDAAAAAFB6wmwAAAAAAEpvxJaKfB2GlVdffTW+973vxUsvvRR77713fPvb34499tgj27dp06b44Q9/GCeccEI0NDRkY3Tp6OiIq666Kt58882YOnVqXHDBBTF69Oj40Y9+FL/61a9i7NixcfHFF6tdL5YsWRK33nprtn7qqadGY2NjLF++PK655ppsLPnsZz8bf/EXf5FvUVN7fiXpOTdx4sTOn+Ganj/L9P1a19tzka319fsgvQ7ec8898Zd/+ZfZ6x9b61mjVMv0Wrdq1So/q9uRfi889thjnb8L6l//kvQaOH369HyLeqlWhx12WFaf+vcrNfXvW+jS87Wu/ufV+7re1T+/entN6/lzTJf69771P5P1NfV+uHf1vw9q79/qf14TP7Nb61mj2u/R+vfDNd4Xd9fXa9228hSqtvfet/49CwNjZjbD1u233x5NTU3R1tYWxxxzTLad1F5wVq9enW3TXapPCifSG6RUu0984hPxD//wD9mb0vHjx2djX/7yl+N//I//kd+CmvRGYN26dfHf//t/j7/927+N3/zmN9lYkt7Ip/FUP2/ct5aeX0mqz2WXXRY/+9nPsu0FCxZkY2lJH3rSz7I3Ud319lqXnnfp+Zeeh+l5l56XteciXfr6fVB7U79x48Z8hJ56q1H6XTFjxozsuTh58uR45JFH8j3Uqw956qUP17XXOx96etcz9E9Bzo033pjVLL3Wpd+16TkoyO6ut9e69POa3uOl2qX3fOm9X7oeXVI4kd6zpRrVf5ZI+vo5puqpp57K3s+l2tU+S6TnV/r88P3vfz97f/Lb3/7We5MeUniY9PZZIkkBbappet0TZHf3/PPPd35WrX2WSPVMoXUaq42nuh155JH5rUj6eq1Ll2k7jafPGvWvgVRt671vz/csDIwwm2Ep/eL6/e9/n83sTNKHm7feeit7E5VehNMLTvrLGVtLbwSSfffdN7tMf0ncsGFD9sHaX7C3Lb0RmDRpUvYhOgWuf/zHfxyvvPJKvpdtSTOb0nMtSc+99MGnvnbpjXz60OPNZ3d9vdb97ne/i1133TV7LqYlPS9rM1Xo0tvvg1TT9GH7z/7sz/IReuqrRul3hBB229JrWQp5UnDNwKTZdQcddFD2Oteb2mtcX/uHs95e69J7uxT8JLX3fLX3gFT19Zrm53j70u+HnmFrej+SAjOTEvqWapNq5A9yA5eeb9t775beuxx++OGegz309lqXcpP0GaP2+yF91kjb6T0gXfr6PbG99yxsnzCbYSmFYCnQqZdefNOLcvolVwt+2FqqXc/ZiLXapaW1tTUbM7t4a+mDYU+1D4bpQ/af//mfR3Nzc+csZKpqb5bqpedgfZjtzWfv+nqtSx+Can/AS8s//dM/5Xup19vvAx8kt29bNUofci666KLsj1P+ALq1bX3YTv8GnX5HpPr5sLi1bf2xJL3OLVu2zKzsPvT2WpeC7Nr7lvRe5dlnn83W2Vrt92jtj+79Cc2oSq9laTJCfaCT3gen1gUXXnjhVoE3XdavX59NTKiFiUn6b4D0eyJ9HkvPS3qXPnelSUX1nxtMjNm++te69Ls0TS6qfZZNz8eXX345W6e73t77bus9C/0jzAYGTfql1tLSkq2nf5uh/2r/Pp7+PTB94PYGtP/SG4QU0Hrz2X9/8id/koX/f/3Xf539ESW9qa//MAQ7SvrgmNoDpf+2SLNS6J/0+7X2L/latAxc+rA9ZswYM6AG4Itf/GL2uzUFY5deemmMGDEi9txzz3wv9WotWQQTA3f77bdn70fqQ+tUx9RX9uqrr+7WQoMu6b1vapORPj/U/kCXnoO19nGJ/7jrXXpOpfYsJ598cj5SleplYsy29XytSzV88MEHs98T6Q8pe+21lz8Y98J73x1DmM2wlN6Mp79k10svzF58ty/VLn0grNezdilUTB+AzBzrrvbvuvVSgJjeENT+SpvqW5sxS1V6bqXnWL30HKx9qE6hTtrvzefWtvVal55ztT+gpH8t9x8pfJD+43/8j1mvdq91/ZNmedbCnvoZs/RP+u+dWpsv+ifVKk1QSL8n0jkp0h9R/J7dWl/BGNuXZmCnzwvpDyc9pedaChYFsr3r+UeA9PNaa9FSe9+sLdDW0nuO9F9OX/3qV7u9nqXPrOnn2B88+9bba12qYQppa+ek+A//4T/4PbsN3vsOLmE2w1LtRTb9O0yS3ij5kNM/KRxLbzxrb5BqvYzTXxlr7TFqdVXP7lJwnf41K/0Cq80m7hkgprYQtV7GdEnhTXquJbXnXqpnqmX9v/bS3fZe62onqEonbRFSsKP9/d//fecsu/Rc9FpXTH0vY7Yv/b7t2caA/kv/abd27VphbS9qwZjZnAOXfi7b29u7tf5JY+n5lupae3/nv8a2lt67pZ/Jvv4jMdUufcZQu62lmcVJz98HvbVsocu2XuvSvtrJbnv7w9Rw573vjiPMZlhKLyDp37LSG6b0bzHpzZIX3/5Jv8DSX7PTv5ym2iW1mcUpbExjqa71//ZGVapTmimR2jqk9g7pDXyqZ3pTmuqmdn2r/3fnq666Kk444YSsRv51fNu29VpX+yCZZmbX/l0QdqQUhtX6Pqd/SxWO9V/tZzgtfc1kpHcppEi9UfXeHbhaaJZaPghrt5aCsRRO1F7Xzj777M7Qgm27/fbb46WXXurs8Zz6ySZp5uL555+fvVdO75m9P+mu9t4t1S59lki1S78fUqCY+mSnbbXrXfrZvPfee7Of2dp5imotH9JnWOdU6Nu2XutqfyBInyfUb2ve++44I7ZU5OsAAAAAAFBKZmYDAAAAAFB6wmwAAAAAAEpPmA0AAAAAQOkJswEAAAAAKD1hNgAAAAAApSfMBgAAAACg9ITZAAAAAACUnjAbAAAAAIDSE2YDAAAAAFB6wmwAAAAAAEpPmA0AAAAAQOkJswEAAAAAKD1hNgAAAAAApSfMBgAAAACg9ITZAAAAAACUnjAbAAAAAIDSE2YDAAAAAFB6wmwAAAAAAEpPmA0AAAAAQOkJswEAAAAAKD1hNgAAAAAApSfMBgAAAACg9ITZAAAAAACUnjAbAAAAAIDSE2YDAAAAAFB6wmwAAAAAAEpPmA0AAAAAQOkJswEAAAAAKD1hNgAAAAAApSfMBgAAAACg9ITZAAAAAACUnjAbAAAAAIDSE2YDAAAAAFB6wmwAAAAAAEpPmA0AAAAAQOkJswEAAAAAKD1hNgAAAAAApSfMBgAAAACg9ITZAAAAAACUnjAbAAAAAIDSE2YDAAAAAFB6wmwAAAAAAEpPmA0AAAAAQOkJswEAAAAAKD1hNgAAAAAApSfMBgAAAACg9ITZAAAAAACUXMT/B4X0ZrpWMatJAAAAAElFTkSuQmCC;" vertex="1" parent="1">
          <mxGeometry x="200" y="300" width="1350" height="408.98" as="geometry" />
        </mxCell>
        <mxCell id="tgRXIBtalsCboaSTgpwh-2" value="&lt;font size=&quot;3&quot; face=&quot;Verdana&quot;&gt;&lt;b&gt;Integration Front-End Diagram&lt;/b&gt;&lt;/font&gt;" style="rounded=0;whiteSpace=wrap;html=1;strokeColor=none;" vertex="1" parent="1">
          <mxGeometry x="1070" y="-120" width="380" height="70" as="geometry" />
        </mxCell>
        <mxCell id="tgRXIBtalsCboaSTgpwh-3" value="" style="rounded=0;whiteSpace=wrap;html=1;fillColor=none;" vertex="1" parent="1">
          <mxGeometry x="150" y="-160" width="1460" height="900" as="geometry" />
        </mxCell>
      </root>
    </mxGraphModel>
  </diagram>
</mxfile>
